<?xml version="1.0" encoding="UTF-8" standalone="no"?>
<!DOCTYPE svg PUBLIC "-//W3C//DTD SVG 1.1//EN" "http://www.w3.org/Graphics/SVG/1.1/DTD/svg11.dtd">
<svg xmlns="http://www.w3.org/2000/svg">
<metadata>
This is a custom SVG webfont generated by Font Squirrel.
Copyright   : Copyright c The Font Bureau Inc 2006 All rights reserved
Designer    : Cyrus Highsmith
Foundry     : Cyrus Highsmith
Foundry URL : httpwwwfontbureaucom
</metadata>
<defs>
<font id="webfont3Ko8ZXQl" horiz-adv-x="1536">
<font-face units-per-em="2048" ascent="1638" descent="-410"/>
<missing-glyph horiz-adv-x="471"/>
<glyph unicode="ﬀ" horiz-adv-x="1493" d="M948 1219q0 84 16.5 152.5t57.5 116.5t110.5 74.5t178.5 26.5h133v-174h-109q-57 0 -93 -14.5t-57.5 -41t-29.5 -62t-8 -78.5v-80h297v-181h-297v-958h-199v958h-475v-958h-199v958h-215v181h215v80q0 84 16.5 152.5t58.5 116.5t111.5 74.5t176.5 26.5h131v-174h-106 q-58 0 -94 -14.5t-57.5 -41t-29.5 -62t-8 -78.5v-80h475v80z"/>
<glyph unicode="ﬁ" horiz-adv-x="1307" d="M59 1139h215v80q0 84 16.5 152.5t58.5 116.5t111.5 74.5t176.5 26.5h131v-174h-106q-58 0 -94 -14.5t-57.5 -41t-29.5 -62t-8 -78.5v-80h295v-181h-295v-958h-199v958h-215v181zM948 1139h199v-1139h-199v1139zM946 1518h201v-242h-201v242z"/>
<glyph unicode="ﬂ" horiz-adv-x="1413" d="M59 1139h215v80q0 84 16.5 152.5t58.5 116.5t111.5 74.5t176.5 26.5h131v-174h-106q-58 0 -94 -14.5t-57.5 -41t-29.5 -62t-8 -78.5v-80h295v-181h-295v-958h-199v958h-215v181zM1204 -2q-71 0 -120.5 15.5t-79 51t-43 92t-13.5 138.5v1294h199v-1272q0 -41 4 -67.5 t17.5 -43t38 -23.5t65.5 -7h47v-174q-14 -2 -45 -3t-70 -1z"/>
<glyph unicode="ﬃ" horiz-adv-x="1978" d="M948 1219q0 84 16.5 152.5t57.5 116.5t110.5 74.5t178.5 26.5h133v-174h-109q-57 0 -93 -14.5t-57.5 -41t-29.5 -62t-8 -78.5v-80h297v-181h-297v-958h-199v958h-475v-958h-199v958h-215v181h215v80q0 84 16.5 152.5t58.5 116.5t111.5 74.5t176.5 26.5h131v-174h-106 q-58 0 -94 -14.5t-57.5 -41t-29.5 -62t-8 -78.5v-80h475v80zM1622 1139h197v-1139h-197v1139zM1620 1518h201v-242h-201v242z"/>
<glyph unicode="ﬄ" horiz-adv-x="2087" d="M948 1219q0 84 16.5 152.5t57.5 116.5t110.5 74.5t178.5 26.5h133v-174h-109q-57 0 -93 -14.5t-57.5 -41t-29.5 -62t-8 -78.5v-80h297v-181h-297v-958h-199v958h-475v-958h-199v958h-215v181h215v80q0 84 16.5 152.5t58.5 116.5t111.5 74.5t176.5 26.5h131v-174h-106 q-58 0 -94 -14.5t-57.5 -41t-29.5 -62t-8 -78.5v-80h475v80zM1878 -2q-72 0 -121 15.5t-78.5 51t-43 92t-13.5 138.5v1294h197v-1272q0 -41 4 -67.5t17 -43t38 -23.5t66 -7h47v-174q-13 -2 -44.5 -3t-68.5 -1z"/>
<glyph unicode="fj" horiz-adv-x="1307" d="M59 1139h215v80q0 84 16.5 152.5t58.5 116.5t111.5 74.5t176.5 26.5h131v-174h-106q-58 0 -94 -14.5t-57.5 -41t-29.5 -62t-8 -78.5v-80h295v-181h-295v-958h-199v958h-215v181zM793 -180h18q45 0 72.5 8t42 27.5t18.5 51.5t4 81v1151h199v-1149q0 -96 -13.5 -161 t-49 -102.5t-97 -54t-158.5 -16.5h-36v164zM946 1518h201v-242h-201v242z"/>
<glyph unicode="ft" horiz-adv-x="1540" d="M1272 -2q-103 0 -166.5 19.5t-99 58.5t-49 97t-13.5 138v647h-471v-958h-199v958h-215v181h215v80q0 84 16.5 152.5t58.5 116.5t111.5 74.5t176.5 26.5h131v-174h-106q-58 0 -94 -14.5t-57.5 -41t-29.5 -62t-8 -78.5v-80h477l35 323l156 31v-354h303v-181h-303v-620 q0 -37 5 -67.5t22.5 -51t50 -32t90.5 -11.5h135v-176q-10 0 -34 -1t-51 -1h-87z"/>
<glyph unicode=" " horiz-adv-x="471"/>
<glyph unicode=" " horiz-adv-x="471"/>
<glyph unicode=" " horiz-adv-x="471"/>
<glyph unicode="!" horiz-adv-x="758" d="M254 266h248v-266h-248v266zM268 1518h219l-22 -1084h-174z"/>
<glyph unicode="&quot;" horiz-adv-x="1034" d="M195 1518h204l-12 -621h-178zM635 1518h207l-15 -621h-178z"/>
<glyph unicode="#" horiz-adv-x="1542" d="M371 428h-242v182h274l54 279h-328v184h363l88 445h190l-88 -445h297l86 445h190l-84 -445h244v-184h-278l-56 -279h334v-182h-366l-84 -428h-191l82 428h-295l-82 -428h-192zM901 600l60 301h-322l-59 -301h321z"/>
<glyph unicode="$" horiz-adv-x="1372" d="M393 30q-145 31 -276 122l94 147q123 -78 234 -105q79 -19 165 -24v541q-63 13 -123 28q-88 23 -155.5 66t-108.5 115.5t-41 189.5q0 217 124 313q102 80 296 94v138h182v-139q94 -6 173 -27q118 -31 200 -84l-94 -156q-68 45 -169 68q-58 14 -116 19v-475 q80 -16 153 -36q89 -24 156.5 -70t107.5 -120t40 -191q0 -215 -131 -330q-108 -94 -320 -111v-196h-182v195q-105 6 -209 28zM962 234q82 67 82 196q0 70 -24.5 114t-71.5 73.5t-117 46.5q-25 7 -53 13v-505q124 13 184 62zM537 1327q-60 -14 -95.5 -43t-51 -69.5 t-15.5 -96.5q0 -63 24.5 -104t71.5 -67.5t115 -44.5l24 -6v442q-41 -4 -73 -11z"/>
<glyph unicode="%" horiz-adv-x="2347" d="M514 569q-113 0 -194.5 35t-134 98.5t-77 152.5t-24.5 200q0 108 24.5 198t77 155t134 99.5t194.5 34.5q111 0 190.5 -34.5t132 -99.5t77 -155t24.5 -198q0 -111 -24.5 -200t-77 -152.5t-132 -98.5t-190.5 -35zM514 729q70 0 117 24.5t75.5 67.5t41 102.5t12.5 131.5 q0 69 -12.5 128.5t-41 102.5t-75.5 66.5t-117 23.5q-72 0 -119 -23.5t-76.5 -66.5t-42 -102.5t-12.5 -128.5q0 -72 12.5 -131.5t41 -102.5t76.5 -67.5t120 -24.5zM1833 -20q-111 0 -191.5 34.5t-133 98t-77 153.5t-24.5 201q0 108 24.5 197.5t77 154t133 100t191.5 35.5 t191.5 -35.5t133 -100t78 -154t25.5 -197.5q0 -111 -25.5 -201t-78 -153.5t-133 -98t-191.5 -34.5zM1833 139q70 0 118 24.5t75.5 68.5t40 103.5t12.5 131.5q0 70 -12.5 128t-40 101t-75.5 66.5t-118 23.5t-117 -23.5t-75.5 -66.5t-41 -101t-12.5 -128q0 -72 12.5 -131.5 t41 -103.5t75.5 -68.5t117 -24.5zM1501 1520h189l-848 -1520h-189z"/>
<glyph unicode="&amp;" horiz-adv-x="1647" d="M616 -20q-141 0 -241.5 24.5t-164 76.5t-92 133t-28.5 196q0 94 32 167.5t84 130t118 100.5q42 27 85 51q-26 64 -45 127q-32 112 -32 214q0 178 95 260t257 82q164 0 245 -81t81 -261q0 -88 -36 -153.5t-92.5 -116.5t-128.5 -92l-93 -52q46 -78 103 -152 q71 -93 150 -169q71 -67 133 -115q62 88 109 215q51 140 100 326l170 -41q-55 -215 -119 -379q-48 -125 -113 -217q36 -19 68 -32q70 -27 128.5 -34.5t109.5 -7.5h21v-180h-27q-88 0 -168 11.5t-165 46.5q-49 21 -102 52q-58 -45 -128 -75q-129 -55 -314 -55zM762 350 q-92 88 -170 193q-59 80 -107 164q-26 -17 -50 -35q-44 -33 -77.5 -72t-53 -85t-19.5 -101q0 -62 12 -111t47 -84t100.5 -53.5t171.5 -18.5q146 0 246 46q24 11 45 24q-68 57 -145 133zM653 965q54 32 93.5 67t63.5 77t24 91q0 86 -32 126t-118 40t-124 -40t-38 -126 q0 -82 31 -179q15 -47 35 -94z"/>
<glyph unicode="'" horiz-adv-x="596" d="M195 1520h204l-12 -623h-178z"/>
<glyph unicode="(" horiz-adv-x="1001" d="M662 -381q-74 62 -152 156t-140.5 220t-103.5 281.5t-41 339.5q0 175 41 330.5t103.5 285.5t140.5 229.5t152 160.5l143 -104q-66 -62 -132.5 -148t-119.5 -197.5t-88 -250t-35 -306.5q0 -170 36 -309t91 -251.5t120.5 -195.5t127.5 -139z"/>
<glyph unicode=")" horiz-adv-x="1001" d="M199 -279q63 62 128.5 147t119 194.5t88 246.5t34.5 307q0 168 -35.5 309.5t-90 255t-120 197.5t-124.5 140l139 104q74 -61 150.5 -156.5t140 -223.5t104.5 -284.5t41 -341.5q0 -174 -41 -328.5t-104.5 -282.5t-140 -226t-150.5 -160z"/>
<glyph unicode="*" horiz-adv-x="1196" d="M537 907l-324 -200l-80 143l338 174l-338 176l80 143l324 -204l-19 381h158l-17 -381l324 204l80 -143l-340 -176l340 -174l-80 -143l-324 202l17 -377h-158z"/>
<glyph unicode="+" horiz-adv-x="1440" d="M621 627h-410v190h410v408h196v-408h412v-190h-412v-408h-196v408z"/>
<glyph unicode="," horiz-adv-x="518" d="M129 -162q39 21 63.5 37t39 34.5t19.5 39t5 51.5h-123v270h250v-200q0 -72 -8 -122t-29.5 -88t-60.5 -67t-103 -59z"/>
<glyph unicode="-" horiz-adv-x="911" d="M98 735h711v-186h-711v186z"/>
<glyph unicode="." horiz-adv-x="518" d="M133 270h250v-270h-250v270z"/>
<glyph unicode="/" horiz-adv-x="1055" d="M850 1518h205l-850 -1518h-205z"/>
<glyph unicode="0" horiz-adv-x="1518" d="M760 -23q-180 0 -297 55.5t-185.5 158t-96 247t-27.5 322.5t27.5 322.5t96 247t185.5 157.5t297 55q178 0 293.5 -55t184.5 -157.5t96.5 -247t27.5 -322.5t-27.5 -322.5t-96.5 -247t-184.5 -158t-293.5 -55.5zM760 162q125 0 203.5 44t121.5 124t58.5 189.5t15.5 240.5 q0 133 -15.5 241.5t-58.5 186.5t-121.5 121t-203.5 43q-127 0 -206 -43t-122 -121t-58.5 -186.5t-15.5 -241.5q0 -131 15.5 -240.5t58.5 -189.5t122 -124t206 -44z"/>
<glyph unicode="1" horiz-adv-x="786" d="M354 1327h-282v191h477v-1518h-195v1327z"/>
<glyph unicode="2" horiz-adv-x="1237" d="M74 166l508 487l146 143q60 62 97 116.5t54.5 106.5t17.5 118q0 116 -67.5 168.5t-237.5 52.5q-123 0 -231.5 -26.5t-180.5 -65.5l-88 164q49 26 103.5 47.5t116 36t134 21.5t162.5 7q244 0 366 -90t122 -297q0 -86 -19.5 -156.5t-61.5 -139t-108.5 -141.5t-158.5 -161 l-398 -381h768v-176h-1044v166z"/>
<glyph unicode="3" horiz-adv-x="1274" d="M608 -25q-172 0 -305 35t-268 113l100 160q123 -66 230.5 -97.5t234.5 -31.5q92 0 158.5 14t108.5 48t62.5 90t20.5 143q0 71 -15 124.5t-58 89t-118 53t-192 17.5h-225v178h221q99 0 164.5 12.5t105 41t57 73.5t17.5 111q0 119 -70.5 166t-240.5 47q-104 0 -217 -27.5 t-199 -79.5l-106 154q110 68 251.5 100.5t286.5 32.5q244 0 367 -80t123 -278q0 -154 -47 -237t-140 -111q123 -29 176.5 -124.5t53.5 -277.5q0 -133 -37 -222t-105.5 -141.5t-169 -74t-225.5 -21.5z"/>
<glyph unicode="4" horiz-adv-x="1384" d="M98 522l676 996h217l-672 -986h541l41 482h143v-482h273v-172h-273v-360h-186v360h-760v162z"/>
<glyph unicode="5" horiz-adv-x="1323" d="M651 -23q-184 0 -315 44.5t-232 103.5l103 160q92 -52 196.5 -91.5t243.5 -39.5q80 0 149.5 13t122 49t83 101.5t30.5 169.5q0 103 -27.5 168.5t-75.5 103.5t-116 52t-147 14q-111 0 -188 -17t-150 -52l-168 51l39 711h921v-181h-741l-23 -399q54 27 144 46.5t213 19.5 q108 0 203.5 -20.5t166 -78t110.5 -157t40 -254.5q0 -160 -44 -261.5t-121 -158t-184.5 -77t-232.5 -20.5z"/>
<glyph unicode="6" horiz-adv-x="1434" d="M754 -23q-312 0 -460.5 153t-148.5 497q0 237 39 406t138.5 276.5t270.5 158t433 50.5h84v-181h-90q-209 0 -336 -35.5t-197.5 -98t-99.5 -145.5t-39 -177q60 73 175.5 107t289.5 34q145 0 241.5 -36t155 -101.5t83 -161.5t24.5 -215q0 -123 -28.5 -221.5t-94.5 -167 t-173.5 -105.5t-266.5 -37zM756 152q108 0 179 24.5t111.5 70.5t57 110.5t16.5 144.5t-17.5 144.5t-59.5 110.5t-111.5 71.5t-175.5 25.5q-90 0 -165 -19.5t-128 -58.5t-83 -98.5t-30 -138.5q0 -109 28 -183.5t80 -120t126.5 -64.5t171.5 -19z"/>
<glyph unicode="7" horiz-adv-x="1122" d="M868 1337h-829v181h1046v-158l-596 -1360h-208z"/>
<glyph unicode="8" horiz-adv-x="1448" d="M723 -29q-162 0 -274.5 33t-183 92.5t-103.5 143.5t-33 186q0 154 58.5 262.5t191.5 145.5q-111 36 -155 124.5t-44 204.5q0 82 25.5 151.5t88 120t167 79t262.5 28.5q160 0 264.5 -28.5t165.5 -79t87 -120t26 -151.5q0 -116 -44 -206.5t-153 -122.5 q137 -41 193.5 -148.5t56.5 -259.5q0 -102 -33 -186t-104.5 -143.5t-184 -92.5t-274.5 -33zM723 143q209 0 302 75t93 222q0 148 -93 222.5t-302 74.5t-301 -74.5t-92 -222.5q0 -147 92 -222t301 -75zM723 905q195 0 272.5 60.5t77.5 175.5q0 112 -77.5 171.5t-272.5 59.5 t-272.5 -59.5t-77.5 -171.5q0 -115 77.5 -175.5t272.5 -60.5z"/>
<glyph unicode="9" horiz-adv-x="1434" d="M330 176h90q211 0 338 37t198.5 99.5t99 146.5t38.5 176q-60 -74 -175.5 -107.5t-289.5 -33.5q-146 0 -242 36.5t-154.5 103t-83 162t-24.5 212.5q0 122 28.5 221.5t94 169t173 106.5t267.5 37q309 0 458.5 -152.5t149.5 -496.5q0 -238 -38.5 -408t-138 -277.5 t-270.5 -157.5t-433 -50h-86v176zM684 657q92 0 167 19.5t128 58.5t83 98.5t30 137.5q0 110 -28 184t-79 120t-127 65.5t-170 19.5q-110 0 -181 -24.5t-112 -70.5t-57 -110.5t-16 -144.5t17 -145.5t58 -111.5t112 -71t175 -25z"/>
<glyph unicode=":" horiz-adv-x="559" d="M154 262h249v-262h-249v262zM154 1139h249v-262h-249v262z"/>
<glyph unicode=";" horiz-adv-x="559" d="M150 -162q38 21 63 37t39 34.5t19 39t5 51.5h-122v262h249v-192q0 -68 -8 -118t-29.5 -89t-60.5 -69t-102 -60zM154 1139h249v-262h-249v262z"/>
<glyph unicode="&lt;" horiz-adv-x="1440" d="M217 635v147l924 461v-186l-719 -348l719 -347v-192z"/>
<glyph unicode="=" horiz-adv-x="1440" d="M223 586h996v-187h-996v187zM223 1042h996v-184h-996v184z"/>
<glyph unicode="&gt;" horiz-adv-x="1440" d="M299 362l719 345l-719 348v188l924 -463v-147l-924 -463v192z"/>
<glyph unicode="?" horiz-adv-x="1380" d="M551 414q-12 102 -7 173.5t30.5 125t76.5 95.5t131 85q70 37 115 64.5t71.5 55t38 60.5t11.5 80t-11.5 84t-45 63.5t-98 40t-169.5 13.5q-123 0 -235.5 -29t-206.5 -76l-84 174q102 56 248.5 87.5t292.5 31.5q143 0 241.5 -22.5t158.5 -68.5t86 -116.5t26 -165.5 q0 -79 -18.5 -136.5t-55.5 -101.5t-89 -80t-120 -73q-72 -37 -113 -66.5t-60.5 -68.5t-22.5 -92t3 -137h-194zM522 242h250v-242h-250v242z"/>
<glyph unicode="@" horiz-adv-x="2210" d="M1124 -338q-477 0 -713.5 228.5t-236.5 707.5q0 242 61.5 420t180.5 295t292 174t396 57q450 0 693 -230.5t243 -715.5q0 -152 -16.5 -254t-56.5 -163.5t-109.5 -88t-174.5 -26.5q-86 0 -138 15t-79.5 38.5t-39 52.5t-13.5 57q-49 -77 -140 -116t-257 -39q-123 0 -208 39 t-136 109.5t-74 168.5t-23 217q0 117 24 214.5t77 168t138 109.5t210 39q80 0 140.5 -8.5t103.5 -26t72.5 -45t50.5 -64.5l43 133l125 -10v-766q0 -35 5 -65.5t21.5 -55t48 -39t84.5 -14.5q66 0 106 21.5t61.5 72t27.5 130t6 196.5q0 424 -205 625.5t-610 201.5 q-395 0 -602 -201.5t-207 -625.5q0 -416 206 -616.5t621 -200.5q166 0 310.5 32.5t250.5 84.5l52 -105q-121 -59 -273.5 -95t-337.5 -36zM1053 233q164 0 244.5 84t80.5 291q0 103 -19.5 171.5t-59 110.5t-101 60.5t-145.5 18.5q-164 0 -230.5 -96.5t-66.5 -264.5 q0 -86 15 -154.5t51 -117.5t92.5 -76t138.5 -27z"/>
<glyph unicode="A" horiz-adv-x="1518" d="M653 1528h211l609 -1528h-213l-125 319h-758l-125 -319h-207zM1061 510l-307 770l-308 -770h615z"/>
<glyph unicode="B" horiz-adv-x="1468" d="M172 1518h670q266 0 387 -91.5t121 -283.5q0 -133 -43 -223.5t-148 -122.5q129 -33 179.5 -125t50.5 -252q0 -119 -36 -199t-105.5 -129t-175 -70.5t-243.5 -21.5h-657v1518zM852 186q170 0 249 58.5t79 193.5q0 131 -79 188.5t-253 57.5h-473v-498h477zM848 877 q86 0 143.5 17t90 48t46 75t13.5 97q0 107 -66.5 161t-226.5 54h-473v-452h473z"/>
<glyph unicode="C" horiz-adv-x="1497" d="M842 -23q-396 0 -577 200t-181 583q0 201 51 348t149.5 243.5t242 143.5t325.5 47q174 0 309 -50t240 -149l-150 -149q-77 72 -176.5 110.5t-224.5 38.5q-557 0 -557 -585q0 -289 133 -437.5t426 -148.5q82 0 144.5 12.5t110.5 34t85 49t72 60.5l147 -142 q-41 -41 -92 -78.5t-118.5 -66.5t-156 -46.5t-202.5 -17.5z"/>
<glyph unicode="D" horiz-adv-x="1559" d="M172 1518h508q217 0 368.5 -36t247 -122t138.5 -232.5t43 -367.5q0 -217 -46.5 -363.5t-145.5 -234.5t-255 -125t-373 -37h-485v1518zM668 190q172 0 287.5 30t185 97.5t98.5 176t29 266.5q0 160 -25.5 267.5t-91.5 173t-179.5 93t-289.5 27.5h-303v-1131h289z"/>
<glyph unicode="E" horiz-adv-x="1335" d="M172 1518h1038v-199h-831v-436h811v-197h-811v-496h840v-190h-1047v1518z"/>
<glyph unicode="F" horiz-adv-x="1257" d="M172 1518h1010v-199h-803v-457h784v-196h-784v-666h-207v1518z"/>
<glyph unicode="G" horiz-adv-x="1604" d="M840 -23q-209 0 -353.5 50.5t-233.5 148.5t-129 244.5t-40 339.5q0 205 50 353.5t148.5 243.5t241 140t326.5 45q111 0 199 -16.5t157.5 -43t121.5 -62.5t91 -74l-147 -152q-35 31 -75 58.5t-91 47t-113.5 31.5t-142.5 12q-287 0 -423 -143t-136 -442q0 -152 28.5 -263.5 t95 -185t173 -110.5t260.5 -37q141 0 231 28.5t142.5 85t73 141.5t20.5 197v43h-490v185h695v-191q0 -157 -28 -281t-103.5 -212t-207.5 -134.5t-341 -46.5z"/>
<glyph unicode="H" horiz-adv-x="1612" d="M172 1518h207v-627h854v627h207v-1518h-207v686h-854v-686h-207v1518z"/>
<glyph unicode="I" horiz-adv-x="582" d="M188 1518h205v-1518h-205v1518z"/>
<glyph unicode="J" horiz-adv-x="848" d="M229 -2h-96q-18 0 -35.5 1t-40.5 1v190h150q151 0 212.5 61.5t61.5 199.5v1067h205v-1076q0 -125 -29.5 -210t-88 -137t-143.5 -74.5t-196 -22.5z"/>
<glyph unicode="K" horiz-adv-x="1473" d="M172 1518h203v-797l715 797h237l-536 -598l610 -920h-236l-510 768l-280 -313v-455h-203v1518z"/>
<glyph unicode="L" horiz-adv-x="1219" d="M172 1518h207v-1328h790v-190h-997v1518z"/>
<glyph unicode="M" horiz-adv-x="1907" d="M172 1518h270l512 -1227l514 1227h267v-1518h-203v1171l-496 -1171h-172l-493 1169v-1169h-199v1518z"/>
<glyph unicode="N" horiz-adv-x="1620" d="M172 1518h225l850 -1170v1170h201v-1518h-191l-884 1214v-1214h-201v1518z"/>
<glyph unicode="O" horiz-adv-x="1718" d="M858 -25q-182 0 -325.5 45.5t-244 140.5t-152.5 243.5t-52 355.5q0 205 52 353.5t152.5 243.5t244 140t325.5 45t325.5 -45t244 -140t152.5 -243.5t52 -353.5q0 -207 -52 -355.5t-152.5 -243.5t-244 -140.5t-325.5 -45.5zM858 168q297 0 432 152.5t135 435.5 q0 282 -135 434.5t-432 152.5t-431 -152.5t-134 -434.5q0 -283 134 -435.5t431 -152.5z"/>
<glyph unicode="P" horiz-adv-x="1475" d="M172 1518h682q287 0 412 -118t125 -351q0 -117 -30 -210.5t-94.5 -158t-168 -98t-250.5 -33.5h-473v-549h-203v1518zM854 741q162 0 246 66.5t84 230.5q0 84 -20.5 139.5t-62.5 88t-104.5 46t-146.5 13.5h-475v-584h479z"/>
<glyph unicode="Q" horiz-adv-x="1718" d="M1108 -383q-129 0 -211 21.5t-128 69.5t-60 127q-7 43 -7 98q0 30 2 63q-97 10 -179 35q-144 43 -242.5 136t-148.5 239.5t-50 353.5q0 205 50 353.5t148.5 243.5t243 140t332.5 45q189 0 333 -45t242.5 -140t148.5 -243.5t50 -353.5q0 -207 -50 -353.5t-148.5 -239.5 t-242.5 -136q-127 -38 -289 -42q-1 -16 -1 -30q0 -29 3 -51q5 -43 26.5 -67.5t63.5 -34t114 -9.5h168v-178h-29q-20 0 -44.5 -1t-50.5 -1h-44zM858 168q154 0 261.5 39t176 113.5t99 184t30.5 251.5q0 141 -30.5 250.5t-99 184.5t-176 113.5t-261.5 38.5q-153 0 -261 -38.5 t-175.5 -113.5t-98 -184.5t-30.5 -250.5q0 -142 30.5 -251.5t98 -184t175.5 -113.5t261 -39z"/>
<glyph unicode="R" horiz-adv-x="1499" d="M172 1518h676q143 0 244.5 -30t166 -88.5t93 -144.5t28.5 -196q0 -111 -29.5 -199t-94 -149.5t-167.5 -94.5q-35 -11 -75 -18l344 -598h-221l-339 584h-423v-584h-203v1518zM846 774q78 0 138 12.5t102 44t63.5 85t21.5 135.5t-21.5 135t-63.5 83.5t-103 43t-143 12.5 h-465v-551h471z"/>
<glyph unicode="S" horiz-adv-x="1460" d="M727 -20q-186 0 -349 41.5t-304 138.5l104 159q133 -86 268.5 -121.5t274.5 -35.5q117 0 197.5 15.5t131 47t74 81.5t23.5 120t-30 114t-86 71.5t-135 44t-177 32.5q-131 21 -235.5 47.5t-178.5 72.5t-112.5 119.5t-38.5 192.5q0 230 141 326t428 96q192 0 326.5 -40 t226.5 -99l-113 -170q-78 53 -194.5 86t-245.5 33q-197 0 -281 -54.5t-84 -173.5q0 -65 28 -105t80 -66.5t129 -44t175 -34.5q127 -22 234.5 -46.5t184.5 -70.5t120 -122t43 -199q0 -229 -147.5 -342.5t-477.5 -113.5z"/>
<glyph unicode="T" horiz-adv-x="1419" d="M606 1319h-557v199h1323v-199h-557v-1319h-209v1319z"/>
<glyph unicode="U" horiz-adv-x="1614" d="M805 -27q-213 0 -340 49.5t-194.5 131.5t-88 187t-20.5 216v961h207v-936q0 -93 17 -169.5t65.5 -131t134.5 -84t221 -29.5q137 0 224 29.5t136.5 83t67.5 130t18 171.5v936h201v-961q0 -74 -9 -146.5t-34 -137t-70 -120t-116.5 -95.5t-175 -62.5t-244.5 -22.5z"/>
<glyph unicode="V" horiz-adv-x="1513" d="M47 1518h217l496 -1268l491 1268h217l-606 -1528h-211z"/>
<glyph unicode="W" horiz-adv-x="2218" d="M63 1518h216l368 -1182l377 1182h182l377 -1182l369 1182h202l-481 -1528h-182l-381 1190l-379 -1190h-184z"/>
<glyph unicode="X" horiz-adv-x="1491" d="M125 1518h229l398 -568l387 568h229l-507 -723l558 -795h-233l-447 640l-436 -640h-229l556 795z"/>
<glyph unicode="Y" horiz-adv-x="1466" d="M20 1518h226l489 -756l494 756h215l-608 -939v-579h-205v574z"/>
<glyph unicode="Z" horiz-adv-x="1376" d="M86 164l918 1155h-883v199h1143v-181l-914 -1147h936v-190h-1200v164z"/>
<glyph unicode="[" horiz-adv-x="975" d="M244 1589h532v-182h-330v-1569h336v-176h-538v1927z"/>
<glyph unicode="\" horiz-adv-x="1055" d="M0 1518h205l850 -1518h-205z"/>
<glyph unicode="]" horiz-adv-x="975" d="M197 -162h331v1569h-333v182h534v-1927h-532v176z"/>
<glyph unicode="^" horiz-adv-x="1208" d="M496 1539h215l313 -336h-193l-231 207l-227 -207h-191z"/>
<glyph unicode="_" horiz-adv-x="928" d="M-76 -109h1080v-161h-1080v161z"/>
<glyph unicode="`" horiz-adv-x="1208" d="M229 1591h244l303 -336h-184z"/>
<glyph unicode="a" horiz-adv-x="1284" d="M487 -20q-122 0 -201 26.5t-125 72.5t-63.5 109.5t-17.5 135.5q0 120 37 201t125 129t232 67.5t357 19.5h61q-1 49 -7 88q-8 52 -38 84.5t-86 49t-153 16.5q-108 0 -195 -30.5t-141 -65.5l-104 155q29 19 75 41.5t106.5 42t131 31.5t146.5 12q145 0 235 -25.5 t139.5 -80.5t66.5 -142.5t17 -207.5v-406q0 -41 3.5 -66.5t14.5 -39t33.5 -17.5t61.5 -4v-174q-10 -4 -31 -4h-51q-47 0 -78.5 7t-54 22.5t-37 40t-24.5 59.5q-52 -72 -152 -109.5t-283 -37.5zM554 560q-112 -11 -174.5 -37.5t-86 -71.5t-23.5 -113q0 -90 52.5 -138 t197.5 -48q199 0 286 82.5t87 267.5v69h-51q-176 0 -288 -11z"/>
<glyph unicode="b" horiz-adv-x="1343" d="M754 -20q-183 0 -281 33.5t-149 107.5l-37 -129l-140 14v1583h199v-563q47 72 146.5 105.5t271.5 33.5q143 0 237.5 -44t149.5 -122.5t77.5 -187.5t22.5 -240t-23.5 -239.5t-79.5 -187t-152.5 -121.5t-241.5 -43zM721 158q96 0 159.5 28.5t100.5 80.5t52.5 128t15.5 168 q0 94 -14.5 170t-51.5 130.5t-100.5 83t-161.5 28.5q-100 0 -171 -21.5t-116 -70.5t-65.5 -128t-20.5 -192q0 -112 19.5 -190t63.5 -125t115.5 -68.5t174.5 -21.5z"/>
<glyph unicode="c" horiz-adv-x="1165" d="M647 -20q-164 0 -271.5 43t-170 120.5t-88 186t-25.5 241.5q0 131 25.5 241t89 188.5t172 121.5t276.5 43q154 0 256.5 -48t167.5 -122l-145 -137q-41 41 -104.5 78t-174.5 37q-104 0 -174.5 -27.5t-111.5 -80t-58.5 -128t-17.5 -170.5q0 -96 16.5 -172t58.5 -128 t111.5 -80.5t175.5 -28.5q93 0 158.5 28.5t130.5 87.5l133 -127q-43 -41 -88 -71.5t-95 -52t-110.5 -32.5t-136.5 -11z"/>
<glyph unicode="d" horiz-adv-x="1343" d="M582 -20q-144 0 -238 44t-150.5 122.5t-79 188t-22.5 240.5q0 130 23.5 238.5t80 186t151.5 120.5t241 43q178 0 272 -33.5t135 -103.5v563h201v-1581l-154 -14l-22 133q-53 -76 -154.5 -111.5t-283.5 -35.5zM625 162q100 0 170.5 22.5t114.5 71.5t64.5 128t20.5 191 q0 113 -19.5 190t-63.5 124t-114.5 67.5t-172.5 20.5q-99 0 -162.5 -27.5t-101 -80t-52 -127t-14.5 -167.5q0 -94 14.5 -170.5t52 -130t101 -83t162.5 -29.5z"/>
<glyph unicode="e" horiz-adv-x="1229" d="M651 -23q-176 0 -284.5 46.5t-170 127t-83 189.5t-21.5 231q0 123 22.5 231.5t84 188.5t170 127t278.5 47q176 0 273.5 -56t144.5 -149.5t55 -215.5q6 -97 6 -199v-51h-841q3 -51 11 -96q13 -76 53 -131.5t111.5 -86t190.5 -30.5q137 0 217 31.5t146 80.5l106 -139 q-90 -72 -198.5 -109t-270.5 -37zM938 670q-4 67 -13.5 125.5t-38 101.5t-87 67.5t-158.5 24.5q-115 0 -184.5 -30.5t-108.5 -87t-52 -134.5q-6 -32 -9 -67h651z"/>
<glyph unicode="f" horiz-adv-x="819" d="M59 1139h215v80q0 84 16.5 152.5t58.5 116.5t111.5 74.5t176.5 26.5h131v-174h-106q-58 0 -94 -14.5t-57.5 -41t-29.5 -62t-8 -78.5v-80h295v-181h-295v-958h-199v958h-215v181z"/>
<glyph unicode="g" horiz-adv-x="1251" d="M604 416q-105 0 -187 15l-13 -19q-15 -23 -15 -52q0 -24 10.5 -39.5t36 -23.5t69.5 -11t111 -3q160 0 266.5 -14.5t171 -50.5t92.5 -93t28 -143q0 -93 -31 -158.5t-100.5 -107.5t-179 -62.5t-265.5 -20.5q-143 0 -245.5 12.5t-169 43t-97.5 86t-31 141.5q0 49 10.5 93 t35 81t66.5 64.5t105 40.5q-63 43 -63 137q0 59 25 112q12 24 26 44q-12 8 -24 17q-115 89 -115 277q0 193 113.5 288t369.5 95q36 0 72 -2l450 64v-164h-183q60 -33 96 -83q51 -69 51 -198q0 -190 -116 -278t-370 -88zM604 -209q113 0 184.5 11.5t112.5 35t56.5 57 t15.5 76.5q0 45 -18.5 73t-61.5 43t-113.5 21.5t-175.5 6.5q-117 0 -185.5 -12.5t-104 -35t-47 -53t-11.5 -65.5q0 -45 19.5 -76t61.5 -49.5t107.5 -25.5t159.5 -7zM604 580q158 0 223.5 48t65.5 154q0 111 -70.5 157t-218.5 46q-160 0 -225.5 -46t-65.5 -157 q0 -106 65.5 -154t225.5 -48z"/>
<glyph unicode="h" horiz-adv-x="1294" d="M147 1589h199v-549q16 25 46 47.5t78 40t114.5 27.5t156.5 10q136 0 216.5 -33.5t123.5 -96t56.5 -149.5t13.5 -192v-694h-199v655q0 70 -6 127.5t-33.5 98.5t-83 64.5t-151.5 23.5q-105 0 -170.5 -25.5t-100 -70t-47 -106.5t-12.5 -136v-631h-201v1589z"/>
<glyph unicode="i" horiz-adv-x="516" d="M160 1139h196v-1139h-196v1139zM158 1518h200v-242h-200v242z"/>
<glyph unicode="j" horiz-adv-x="516" d="M4 -180h16q46 0 73.5 8t42 27.5t19.5 51.5t5 81v1151h196v-1149q0 -96 -13 -161t-48 -102.5t-96.5 -54t-157.5 -16.5h-37v164zM158 1518h200v-242h-200v242z"/>
<glyph unicode="k" horiz-adv-x="1143" d="M147 1589h197v-1035l504 585h221l-404 -473l445 -666h-221l-356 521l-189 -215v-306h-197v1589z"/>
<glyph unicode="l" horiz-adv-x="625" d="M416 -2q-72 0 -121 15.5t-79 51t-43 92t-13 138.5v1294h196v-1272q0 -41 4.5 -67.5t17.5 -43t38.5 -23.5t66.5 -7h45v-174q-14 -2 -44.5 -3t-67.5 -1z"/>
<glyph unicode="m" horiz-adv-x="2052" d="M147 1128l158 11l17 -109q16 27 46.5 51.5t80 43t119 29.5t161.5 11q90 0 151.5 -10t101.5 -29.5t61.5 -46t33.5 -57.5q41 61 142.5 102t293.5 41q136 0 214.5 -33.5t120.5 -96t53.5 -149.5t11.5 -192v-694h-201v655q0 70 -5 127.5t-29.5 98.5t-78 64.5t-149.5 23.5 q-104 0 -167.5 -25.5t-97.5 -70t-45.5 -106.5t-11.5 -136v-631h-196v655q0 70 -5 127.5t-31 98.5t-79 64.5t-149 23.5q-105 0 -168.5 -25.5t-97 -70t-44 -106.5t-10.5 -136v-631h-201v1128z"/>
<glyph unicode="n" horiz-adv-x="1294" d="M147 1128l158 11l17 -109q20 27 52 51.5t81 43t119.5 29.5t166.5 11q136 0 216.5 -33.5t123.5 -96t56.5 -149.5t13.5 -192v-694h-199v655q0 70 -6 127.5t-33.5 98.5t-83 64.5t-151.5 23.5q-105 0 -170.5 -25.5t-100 -70t-47 -106.5t-12.5 -136v-631h-201v1128z"/>
<glyph unicode="o" horiz-adv-x="1309" d="M653 -23q-151 0 -257.5 38t-174 113t-98.5 186.5t-31 256.5q0 146 31 257.5t98.5 186.5t174 112.5t257.5 37.5q152 0 258.5 -37.5t174 -112.5t99.5 -186.5t32 -257.5q0 -145 -32 -256.5t-99.5 -186.5t-174 -113t-258.5 -38zM653 158q101 0 169.5 26.5t111.5 78.5 t61.5 129t18.5 175q0 197 -80 302.5t-281 105.5q-200 0 -280 -105.5t-80 -302.5q0 -98 18.5 -175t61.5 -129t111.5 -78.5t168.5 -26.5z"/>
<glyph unicode="p" horiz-adv-x="1343" d="M147 1128l158 11l17 -121q45 72 148 109.5t294 37.5q143 0 237.5 -44t149.5 -121.5t77.5 -187.5t22.5 -241q0 -129 -22.5 -237.5t-79.5 -187t-152.5 -121.5t-240.5 -43q-178 0 -271.5 33.5t-136.5 103.5v-457h-201v1466zM721 162q96 0 159.5 27.5t100.5 80t52.5 127 t15.5 168.5t-14.5 170t-51.5 129.5t-100.5 82t-161.5 28.5q-100 0 -171 -21.5t-116 -69.5t-65.5 -127t-20.5 -192q0 -112 19.5 -189t63.5 -125t115.5 -68.5t174.5 -20.5z"/>
<glyph unicode="q" horiz-adv-x="1343" d="M995 115q-28 -37 -64 -62.5t-85 -42t-113.5 -23.5t-150.5 -7q-144 0 -238 44t-150.5 122.5t-79 187t-22.5 239.5q0 132 23.5 240.5t80 186t151.5 121.5t241 44q92 0 161.5 -8t121 -25.5t87 -43t62.5 -60.5l37 125l139 -12v-1479h-201v453zM625 162q100 0 170.5 22.5 t114.5 71.5t64.5 127t20.5 190q0 113 -19.5 190t-63.5 125t-114.5 68.5t-172.5 20.5q-99 0 -162.5 -27.5t-101 -80t-52 -127t-14.5 -169.5q0 -94 14.5 -169.5t52 -130t101 -83t162.5 -28.5z"/>
<glyph unicode="r" horiz-adv-x="760" d="M147 1128l158 11l21 -140q34 62 133.5 106t251.5 48v-201q-103 0 -172.5 -26.5t-111.5 -72.5t-60.5 -110.5t-18.5 -142.5v-600h-201v1128z"/>
<glyph unicode="s" horiz-adv-x="1098" d="M543 -20q-123 0 -249 27.5t-243 105.5l103 155q98 -63 203.5 -88.5t197.5 -25.5q145 0 209.5 32.5t64.5 135.5q0 40 -14 66t-47 44.5t-85 30.5t-128 24q-100 19 -183 39.5t-141.5 57.5t-90 97t-31.5 159q0 155 101 240t345 85q133 0 242.5 -26.5t191.5 -73.5l-94 -164 q-66 35 -151 57.5t-185 22.5q-74 0 -123 -9t-77.5 -27.5t-40 -45.5t-11.5 -59q0 -41 13.5 -66.5t44 -44t80 -31t118.5 -24.5q105 -19 190 -39.5t145 -56t92 -94t32 -154.5q0 -99 -27.5 -165.5t-86 -107.5t-149.5 -59t-216 -18z"/>
<glyph unicode="t" horiz-adv-x="856" d="M59 1139h207l35 323l158 31v-354h301v-181h-301v-620q0 -37 4 -67.5t20.5 -51t49 -32t90.5 -11.5h137v-176q-10 0 -34 -1t-51 -1h-87q-103 0 -166.5 19.5t-99 58.5t-49 97t-13.5 138v647h-201v181z"/>
<glyph unicode="u" horiz-adv-x="1280" d="M643 -20q-164 0 -263 32.5t-152.5 97t-70 160t-16.5 217.5v652h199v-656q0 -67 5 -125.5t34 -102.5t90 -68.5t174 -24.5t174.5 24.5t90 68.5t32.5 104.5t4 129.5v650h195v-645q0 -127 -15.5 -222.5t-67.5 -161t-150.5 -98t-262.5 -32.5z"/>
<glyph unicode="v" horiz-adv-x="1151" d="M14 1139h213l351 -912l350 912h207l-453 -1149h-215z"/>
<glyph unicode="w" horiz-adv-x="1819" d="M27 1139h209l294 -860l283 860h197l282 -858l297 858h203l-401 -1149h-199l-283 848l-282 -848h-201z"/>
<glyph unicode="x" horiz-adv-x="1139" d="M70 1139h221l286 -400l279 400h215l-390 -546l425 -593h-223l-322 450l-311 -450h-217l425 595z"/>
<glyph unicode="y" horiz-adv-x="1114" d="M14 1139h213l335 -889l331 889h209l-484 -1235q-24 -66 -55 -113t-71.5 -76.5t-97 -44t-132.5 -14.5h-51q-35 0 -53 2v162h88q84 0 119.5 21.5t56.5 82.5l34 89z"/>
<glyph unicode="z" horiz-adv-x="1049" d="M61 145l650 813h-617v181h877v-150l-652 -819h674v-170h-932v145z"/>
<glyph unicode="{" horiz-adv-x="1051" d="M674 -338q-197 0 -280 67.5t-83 204.5q0 50 17 118l38 142l38 136q18 64 18 104q0 66 -59.5 85.5t-202.5 19.5v172q137 0 199.5 17t62.5 91q0 39 -18 103l-38 136l-37.5 141t-17.5 118q0 137 83 204.5t280 67.5h184v-182h-143q-119 0 -159 -33t-40 -110q0 -34 16 -96 l36 -132q20 -70 36.5 -138.5t16.5 -113.5q0 -57 -28 -98t-93 -59q65 -23 93 -63t28 -97q0 -47 -16.5 -115.5t-36.5 -139.5l-36 -134q-16 -62 -16 -94q0 -78 40 -112t159 -34h143v-176h-184z"/>
<glyph unicode="|" horiz-adv-x="692" d="M244 1589h202v-1927h-202v1927z"/>
<glyph unicode="}" horiz-adv-x="1051" d="M193 -162h145q119 0 159 34t40 112q-1 32 -17 94l-36 134q-20 71 -37 139.5t-17 115.5q0 57 28.5 98t92.5 62q-66 20 -93.5 60t-27.5 97q0 45 16.5 114t37 138.5t37 131t16.5 96.5q0 77 -40 110t-159 33h-145v182h186q199 0 279.5 -67.5t80.5 -204.5q0 -49 -17 -118 l-38 -141l-38 -136q-18 -64 -17 -103q0 -35 14 -55.5t45 -31.5t81 -15t122 -4v-172q-137 0 -199.5 -17.5t-62.5 -89.5q-1 -40 17 -104l38 -136l37.5 -141.5t17.5 -118.5q0 -137 -80.5 -204.5t-279.5 -67.5h-186v176z"/>
<glyph unicode="~" horiz-adv-x="1208" d="M184 935q60 74 131.5 122t143.5 48q53 0 90 -16q37 -18 67 -36l61 -34q30 -16 66 -17q39 0 80 32t84 81l117 -94q-59 -76 -131 -130.5t-145 -54.5q-48 0 -84.5 16.5t-69.5 34.5l-64 36q-30 16 -67 16q-35 0 -76 -25.5t-80 -74.5z"/>
<glyph unicode="¡" horiz-adv-x="758" d="M291 1083h176l20 -1083h-219zM254 1518h250v-267h-250v267z"/>
<glyph unicode="¢" horiz-adv-x="1159" d="M551 1286h188v-129q98 -10 169 -43q100 -47 165 -119l-141 -133q-41 41 -104 78q-40 24 -101 32v-814q50 7 87 24q63 29 128 88l131 -123q-43 -38 -87 -69t-95 -51.5t-111 -30.5q-20 -3 -41 -5v-184h-188v183q-101 9 -174 38q-105 42 -168.5 118.5t-88 185t-24.5 239.5 t24.5 240t88 186.5t171.5 120.5q73 28 171 38v130zM480 949q-70 -27 -112 -80.5t-60.5 -129t-18.5 -172.5q0 -96 17.5 -172t59.5 -130t112 -83q38 -15 85 -22v810q-46 -6 -83 -21z"/>
<glyph unicode="£" horiz-adv-x="1284" d="M66 864h195l-22 94q-22 101 -22 183q0 90 23.5 163.5t78 127t143.5 83t220 29.5q125 0 223.5 -19.5t192.5 -60.5l-78 -174q-76 35 -164 50.5t-178 15.5q-78 0 -129 -17.5t-81 -48t-42 -75t-12 -99.5q0 -67 20 -160l21 -92h446v-164h-407q15 -65 28 -129q21 -96 21 -174 q0 -90 -16 -160q38 -17 81 -32q56 -19 117 -31t125 -12q57 0 93 11t55.5 34.5t25.5 61.5t6 91v54h174v-60q0 -100 -17.5 -170.5t-58.5 -114.5t-108.5 -64.5t-165.5 -20.5q-80 0 -156.5 14t-144.5 38q-63 23 -117 51q-48 -39 -123 -61q-90 -26 -233 -26v172q98 0 155.5 12.5 t85 40t34.5 68.5t7 100q0 72 -23 167q-16 68 -35 140h-238v164z"/>
<glyph unicode="¥" horiz-adv-x="1311" d="M139 324h418v149h-418v170h418v14l-528 861h211l415 -689l416 689h211l-528 -856v-19h417v-170h-417v-149h417v-168h-417v-156h-197v156h-418v168z"/>
<glyph unicode="¦" horiz-adv-x="692" d="M244 465h202v-803h-202v803zM244 1589h202v-803h-202v803z"/>
<glyph unicode="§" horiz-adv-x="1147" d="M455 1159q0 78 11 146.5t50 119t110.5 79t192.5 28.5q35 0 76 -1t57 -3v-172h-110q-66 0 -103 -14.5t-56 -41t-24.5 -61.5t-5.5 -78v-93q169 -11 263 -72q116 -74 116 -238q0 -160 -116 -233q-86 -54 -236 -68v-101q0 -77 -11.5 -145t-49 -119t-110.5 -79.5t-194 -28.5 q-34 0 -74 1t-57 3v166h111q63 0 100 14t56.5 41t24.5 61.5t5 77.5v108q-163 12 -253 69q-113 73 -113 233q0 164 113 238q83 55 227 69v94zM571 590q152 0 224.5 38t72.5 126q0 90 -72.5 127t-224.5 37q-149 0 -219.5 -37t-70.5 -127q0 -88 70.5 -126t219.5 -38z"/>
<glyph unicode="¨" horiz-adv-x="1208" d="M293 1491h182v-229h-182v229zM735 1491h180v-229h-180v229z"/>
<glyph unicode="©" horiz-adv-x="1692" d="M858 250q-250 0 -376 131t-126 387q0 133 36 230.5t102.5 161t161 94t208.5 30.5q111 0 203 -31.5t160 -97.5l-94 -100q-54 47 -122.5 72.5t-148.5 25.5q-174 0 -269 -96t-95 -289q0 -190 92 -288.5t274 -98.5q105 0 169.5 29.5t109.5 70.5l90 -92q-55 -55 -142 -97 t-233 -42zM842 -25q-191 0 -333 58.5t-236.5 163t-141.5 249t-47 314.5t47 314.5t141.5 248.5t236.5 162.5t333 58.5q190 0 333.5 -58.5t238.5 -162.5t142.5 -248.5t47.5 -314.5t-47.5 -314.5t-142.5 -249t-238.5 -163t-333.5 -58.5zM842 63q174 0 302 52.5t210 144.5 t122 220t40 280q0 151 -40 279t-122 220.5t-210 144.5t-302 52q-176 0 -302 -52t-207 -144.5t-120 -220.5t-39 -279q0 -152 39 -280t120 -220t207 -144.5t302 -52.5z"/>
<glyph unicode="ª" horiz-adv-x="1221" d="M453 578q-91 0 -153 21.5t-100 58t-54.5 89t-16.5 113.5q0 98 36 164t111.5 103.5t191.5 54t273 16.5h42q-1 40 -6 71q-7 42 -29.5 67.5t-67.5 37.5t-119 12q-84 0 -154.5 -24.5t-111.5 -50.5l-88 127q22 16 60 33.5t86 33t105.5 25.5t119.5 10q118 0 190 -20.5 t112 -65.5t53 -115.5t13 -169.5v-321q0 -35 3 -55.5t12.5 -31.5t28 -14.5t50.5 -3.5v-149q-10 0 -24.5 -1t-38.5 -1q-43 0 -75 5t-52.5 20.5t-31.5 42t-17 71.5q-21 -39 -48.5 -67.5t-68.5 -48t-98.5 -28.5t-132.5 -9zM527 1056q-89 -9 -142 -30.5t-74.5 -58.5t-21.5 -95 q0 -71 46 -111t154 -40q148 0 221.5 67.5t73.5 217.5v59h-32q-136 0 -225 -9zM215 438h735v-151h-735v151z"/>
<glyph unicode="«" horiz-adv-x="1436" d="M199 567l309 572h176l-297 -572l297 -567h-176zM698 567l310 572h178l-295 -572l295 -567h-178z"/>
<glyph unicode="¬" horiz-adv-x="1440" d="M1229 813v-592h-201v410h-817v182h1018z"/>
<glyph unicode="­" horiz-adv-x="911" d="M98 735h711v-186h-711v186z"/>
<glyph unicode="®" horiz-adv-x="1692" d="M842 -25q-191 0 -333 58.5t-236.5 163t-141.5 249t-47 314.5t47 314.5t141.5 248.5t236.5 162.5t333 58.5q190 0 333.5 -58.5t238.5 -162.5t142.5 -248.5t47.5 -314.5t-47.5 -314.5t-142.5 -249t-238.5 -163t-333.5 -58.5zM842 63q174 0 302 52.5t210 144.5t122 220 t40 280q0 151 -40 279t-122 220.5t-210 144.5t-302 52q-176 0 -302 -52t-207 -144.5t-120 -220.5t-39 -279q0 -152 39 -280t120 -220t207 -144.5t302 -52.5zM477 1249h438q99 0 164.5 -19.5t104.5 -56t55 -92t16 -127.5q0 -71 -16 -127.5t-56 -94.5t-107 -59q-25 -8 -55 -13 l232 -398h-141l-223 391h-281v-391h-131v987zM913 770q109 0 160 38t51 142q0 103 -50 140.5t-163 37.5h-303v-358h305z"/>
<glyph unicode="¯" horiz-adv-x="1208" d="M219 1413h770v-170h-770v170z"/>
<glyph unicode="̄" horiz-adv-x="1208" d="M219 1413h770v-170h-770v170z"/>
<glyph unicode="°" horiz-adv-x="1165" d="M582 563q-121 0 -208 37t-142.5 102.5t-81 155.5t-25.5 195q0 104 25.5 194t81 155.5t142.5 102.5t208 37q120 0 207.5 -37t142.5 -102.5t81.5 -155.5t26.5 -194q0 -105 -26.5 -195t-81.5 -155.5t-142.5 -102.5t-207.5 -37zM582 721q80 0 136 24.5t92 67.5t51.5 103.5 t15.5 132.5q0 71 -15.5 131.5t-51.5 103.5t-92 67.5t-136 24.5t-136.5 -24.5t-91.5 -67.5t-50 -103.5t-15 -131.5q0 -72 15 -132.5t50 -103.5t91.5 -67.5t136.5 -24.5z"/>
<glyph unicode="±" horiz-adv-x="1440" d="M621 627h-410v190h410v408h196v-408h412v-190h-412v-408h-196v408zM211 215h1018v-186h-1018v186z"/>
<glyph unicode="²" horiz-adv-x="942" d="M129 688l301 285l95 93q38 38 58.5 69.5t29 61.5t8.5 69q0 65 -40 98t-145 33q-74 0 -138.5 -16.5t-107.5 -39.5l-69 121q63 33 140 51.5t194 18.5q159 0 240 -57.5t81 -192.5q0 -57 -12 -101t-40 -86t-71 -88t-104 -104l-209 -201h446v-131h-657v117z"/>
<glyph unicode="³" horiz-adv-x="979" d="M473 559q-115 0 -200 22.5t-171 71.5l80 117q70 -41 135.5 -58.5t143.5 -17.5q112 0 161.5 34t49.5 134q0 43 -9.5 73t-36 49.5t-71.5 28.5t-115 9h-141v127h137q58 0 97.5 5t64.5 19.5t35 39t10 63.5q0 70 -43 94.5t-143 24.5q-72 0 -139.5 -17.5t-118.5 -46.5l-76 117 q67 41 161.5 63.5t192.5 22.5q174 0 250 -55.5t76 -171.5q0 -86 -31 -137.5t-98 -73.5q82 -23 118.5 -83.5t36.5 -166.5q0 -158 -88 -222.5t-268 -64.5z"/>
<glyph unicode="´" horiz-adv-x="1208" d="M735 1591h244l-363 -336h-184z"/>
<glyph unicode="µ" horiz-adv-x="1298" d="M147 485l187 -295v-528h-187v823zM561 -23q-133 0 -214 35t-126 97.5t-59.5 150.5t-14.5 195v684h199v-652q0 -71 8 -130.5t36 -102.5t82 -67.5t148 -24.5q105 0 169.5 26.5t100.5 72.5t47 109.5t11 137.5v631h199v-1131l-152 -14l-22 125q-43 -60 -142.5 -101 t-269.5 -41z"/>
<glyph unicode="μ" horiz-adv-x="1298" d="M147 485l187 -295v-528h-187v823zM561 -23q-133 0 -214 35t-126 97.5t-59.5 150.5t-14.5 195v684h199v-652q0 -71 8 -130.5t36 -102.5t82 -67.5t148 -24.5q105 0 169.5 26.5t100.5 72.5t47 109.5t11 137.5v631h199v-1131l-152 -14l-22 125q-43 -60 -142.5 -101 t-269.5 -41z"/>
<glyph unicode="¶" horiz-adv-x="1300" d="M928 565h-230v-565h-188v572q-69 8 -124 25q-105 32 -167.5 93.5t-88.5 151.5t-26 207q0 116 27 204t89.5 146.5t165.5 88.5t257 30h473v-1518h-188v565zM928 733v600h-289q-92 0 -155.5 -14t-103.5 -48t-57.5 -91.5t-17.5 -141.5q0 -168 77 -236.5t253 -68.5h293z"/>
<glyph unicode="·" horiz-adv-x="518" d="M133 836h250v-275h-250v275z"/>
<glyph unicode="∙" horiz-adv-x="518" d="M133 836h250v-275h-250v275z"/>
<glyph unicode="¸" horiz-adv-x="1208" d="M616 -475q-77 0 -137.5 16.5t-109.5 44.5l55 105q41 -23 88 -35t96 -12q94 0 124 28.5t30 71.5q0 55 -42 73.5t-147 12.5l-49 35l29 149h121l-19 -104q47 2 91.5 -2t78 -22.5t54 -54.5t20.5 -99q0 -101 -65.5 -154t-217.5 -53z"/>
<glyph unicode="¹" horiz-adv-x="696" d="M307 1378h-182v140h340v-947h-158v807z"/>
<glyph unicode="º" horiz-adv-x="1223" d="M612 582q-235 0 -344.5 122.5t-109.5 358.5q0 235 109.5 357t344.5 122q232 0 342.5 -122t110.5 -357q0 -236 -110.5 -358.5t-342.5 -122.5zM612 735q148 0 216.5 83t68.5 241t-68.5 240.5t-216.5 82.5q-149 0 -217.5 -82.5t-68.5 -240.5t68.5 -241t217.5 -83zM215 438 h793v-155h-793v155z"/>
<glyph unicode="»" horiz-adv-x="1436" d="M547 569l-295 570h176l309 -570l-309 -569h-176zM1047 569l-295 570h178l309 -570l-309 -569h-178z"/>
<glyph unicode="¼" horiz-adv-x="1878" d="M1493 207h-467v123l422 620h174l-416 -610h287l31 240h123v-240h153v-133h-153v-207h-154v207zM287 1372h-183v146h347v-951h-164v805zM1229 1518h178l-846 -1518h-180z"/>
<glyph unicode="½" horiz-adv-x="2009" d="M1204 121l299 282l97 96q38 38 59.5 67.5t29 57t7.5 66.5q0 66 -40 97.5t-145 31.5q-73 0 -136.5 -16.5t-108.5 -38.5l-72 127q66 33 142.5 51.5t193.5 18.5q160 0 240.5 -58.5t80.5 -195.5q0 -56 -12 -100t-38.5 -85t-70.5 -87t-106 -105l-201 -195h428v-135h-647v121z M287 1372h-183v146h347v-951h-164v805zM1229 1518h178l-846 -1518h-180z"/>
<glyph unicode="¾" horiz-adv-x="2093" d="M449 563q-115 0 -200 23.5t-173 72.5l86 123q69 -41 131.5 -59t140.5 -18q113 0 162 31.5t49 131.5q0 41 -9 71t-35 48.5t-71 27.5t-114 9h-142v135h138q116 0 161 24.5t45 98.5q0 68 -44 92.5t-144 24.5q-72 0 -137.5 -17.5t-116.5 -48.5l-80 123q70 43 163 64.5 t194 21.5q174 0 248.5 -55t74.5 -172q0 -88 -33.5 -138.5t-99.5 -74.5q80 -21 121 -81t41 -169q0 -160 -88 -224.5t-268 -64.5zM1708 207h-467v123l420 620h176l-416 -610h289l29 240h123v-240h151v-133h-151v-207h-154v207zM1444 1518h178l-848 -1518h-176z"/>
<glyph unicode="¿" horiz-adv-x="1380" d="M670 -20q-146 0 -243 22.5t-157.5 69.5t-86 116.5t-25.5 165.5q0 78 18.5 135.5t55 102.5t89 81t119.5 70q70 37 112 68t61.5 70t22.5 91t-3 136h194q13 -102 9 -174t-31 -125t-77 -94t-132 -84q-68 -37 -113 -64.5t-71.5 -55.5t-38 -60.5t-11.5 -79.5t11.5 -85 t45.5 -63.5t97.5 -40t167.5 -14.5q123 0 236.5 28.5t205.5 75.5l84 -174q-102 -55 -248.5 -86.5t-291.5 -31.5zM606 1522h250v-242h-250v242z"/>
<glyph unicode="À" horiz-adv-x="1520" d="M653 1528h211l609 -1528h-213l-125 319h-758l-125 -319h-207zM1061 510l-307 770l-308 -770h615zM381 1941h244l303 -336h-184z"/>
<glyph unicode="Á" horiz-adv-x="1520" d="M653 1528h211l609 -1528h-213l-125 319h-758l-125 -319h-207zM1061 510l-307 770l-308 -770h615zM887 1941h244l-363 -336h-184z"/>
<glyph unicode="Â" horiz-adv-x="1520" d="M653 1528h211l609 -1528h-213l-125 319h-758l-125 -319h-207zM1061 510l-307 770l-308 -770h615zM648 1941h215l313 -336h-193l-231 207l-227 -207h-191z"/>
<glyph unicode="Ã" horiz-adv-x="1520" d="M653 1528h211l609 -1528h-213l-125 319h-758l-125 -319h-207zM1061 510l-307 770l-308 -770h615zM336 1706q60 74 131.5 122t143.5 48q53 0 90 -16q37 -18 67 -36l61 -34q30 -16 66 -17q39 0 80 32t84 81l117 -94q-59 -76 -131 -130.5t-145 -54.5q-48 0 -84.5 16.5 t-69.5 34.5l-64 36q-30 16 -67 16q-35 0 -76 -25.5t-80 -74.5z"/>
<glyph unicode="Ä" horiz-adv-x="1520" d="M653 1528h211l609 -1528h-213l-125 319h-758l-125 -319h-207zM1061 510l-307 770l-308 -770h615zM445 1841h182v-229h-182v229zM887 1841h180v-229h-180v229z"/>
<glyph unicode="Å" horiz-adv-x="1520" d="M616 1434q-59 34 -86.5 93.5t-27.5 137.5q0 111 60.5 187.5t195.5 76.5q131 0 194.5 -76.5t63.5 -187.5q0 -76 -27.5 -136.5t-87.5 -92.5l574 -1436h-211l-127 317h-762l-123 -317h-207zM1063 508l-307 772l-307 -772h614zM758 1511q80 0 113.5 44t33.5 110t-33.5 111 t-113.5 45q-78 0 -113 -45t-35 -111t35 -110t113 -44z"/>
<glyph unicode="Æ" horiz-adv-x="2234" d="M985 1518h1126v-199h-833v-440h813v-191h-813v-498h842v-190h-1041v319h-639l-204 -319h-205zM1079 498v835l-534 -835h534z"/>
<glyph unicode="Ç" horiz-adv-x="1497" d="M758 -475q-78 0 -138.5 16.5t-109.5 44.5l55 105q41 -23 88 -35t97 -12q94 0 123.5 28.5t29.5 71.5q0 55 -42 73.5t-146 12.5l-49 35l22 121q-313 37 -458.5 233.5t-145.5 540.5q0 201 51 348t149.5 243.5t242 143.5t325.5 47q174 0 309 -50t240 -149l-150 -149 q-77 72 -176.5 110.5t-224.5 38.5q-557 0 -557 -585q0 -289 133 -437.5t426 -148.5q82 0 144.5 12.5t110.5 34t85 49t72 60.5l147 -142q-41 -41 -92 -78.5t-118.5 -66.5t-156 -46.5t-202.5 -17.5h-33l-12 -67q47 2 91 -2t77.5 -22.5t54 -54.5t20.5 -99q0 -101 -65.5 -154 t-216.5 -53z"/>
<glyph unicode="È" horiz-adv-x="1335" d="M172 1518h1038v-199h-831v-436h811v-197h-811v-496h840v-190h-1047v1518zM288 1941h244l303 -336h-184z"/>
<glyph unicode="É" horiz-adv-x="1335" d="M172 1518h1038v-199h-831v-436h811v-197h-811v-496h840v-190h-1047v1518zM794 1941h244l-363 -336h-184z"/>
<glyph unicode="Ê" horiz-adv-x="1335" d="M172 1518h1038v-199h-831v-436h811v-197h-811v-496h840v-190h-1047v1518zM555 1941h215l313 -336h-193l-231 207l-227 -207h-191z"/>
<glyph unicode="Ë" horiz-adv-x="1335" d="M172 1518h1038v-199h-831v-436h811v-197h-811v-496h840v-190h-1047v1518zM352 1841h182v-229h-182v229zM794 1841h180v-229h-180v229z"/>
<glyph unicode="Ì" horiz-adv-x="582" d="M-127 1939h250l270 -333h-188zM188 1518h205v-1518h-205v1518z"/>
<glyph unicode="Í" horiz-adv-x="582" d="M457 1939h250l-330 -333h-189zM188 1518h205v-1518h-205v1518z"/>
<glyph unicode="Î" horiz-adv-x="582" d="M184 1939h211l271 -333h-195l-184 211l-183 -211h-190zM188 1518h205v-1518h-205v1518z"/>
<glyph unicode="Ï" horiz-adv-x="582" d="M188 1518h205v-1518h-205v1518zM-15 1841h182v-229h-182v229zM427 1841h180v-229h-180v229z"/>
<glyph unicode="Ð" horiz-adv-x="1559" d="M0 866h172v652h508q217 0 368.5 -36t247 -122t138.5 -232.5t43 -367.5q0 -217 -48.5 -363.5t-148.5 -234.5t-255 -125t-368 -37h-485v694h-172v172zM668 190q172 0 287.5 30t185 97.5t98.5 176t29 266.5q0 160 -25.5 267.5t-91.5 173t-179.5 93t-289.5 27.5h-303v-455 h328v-172h-328v-504h289z"/>
<glyph unicode="Ñ" horiz-adv-x="1620" d="M172 1518h225l850 -1170v1170h201v-1518h-191l-884 1214v-1214h-201v1518zM385 1706q60 74 131.5 122t143.5 48q53 0 90 -16q37 -18 67 -36l61 -34q30 -16 66 -17q39 0 80 32t84 81l117 -94q-59 -76 -131 -130.5t-145 -54.5q-48 0 -84.5 16.5t-69.5 34.5l-64 36 q-30 16 -67 16q-35 0 -76 -25.5t-80 -74.5z"/>
<glyph unicode="Ò" horiz-adv-x="1718" d="M858 -25q-182 0 -325.5 45.5t-244 140.5t-152.5 243.5t-52 355.5q0 205 52 353.5t152.5 243.5t244 140t325.5 45t325.5 -45t244 -140t152.5 -243.5t52 -353.5q0 -207 -52 -355.5t-152.5 -243.5t-244 -140.5t-325.5 -45.5zM858 168q297 0 432 152.5t135 435.5 q0 282 -135 434.5t-432 152.5t-431 -152.5t-134 -434.5q0 -283 134 -435.5t431 -152.5zM481 1941h244l303 -336h-184z"/>
<glyph unicode="Ó" horiz-adv-x="1718" d="M858 -25q-182 0 -325.5 45.5t-244 140.5t-152.5 243.5t-52 355.5q0 205 52 353.5t152.5 243.5t244 140t325.5 45t325.5 -45t244 -140t152.5 -243.5t52 -353.5q0 -207 -52 -355.5t-152.5 -243.5t-244 -140.5t-325.5 -45.5zM858 168q297 0 432 152.5t135 435.5 q0 282 -135 434.5t-432 152.5t-431 -152.5t-134 -434.5q0 -283 134 -435.5t431 -152.5zM987 1941h244l-363 -336h-184z"/>
<glyph unicode="Ô" horiz-adv-x="1718" d="M858 -25q-182 0 -325.5 45.5t-244 140.5t-152.5 243.5t-52 355.5q0 205 52 353.5t152.5 243.5t244 140t325.5 45t325.5 -45t244 -140t152.5 -243.5t52 -353.5q0 -207 -52 -355.5t-152.5 -243.5t-244 -140.5t-325.5 -45.5zM858 168q297 0 432 152.5t135 435.5 q0 282 -135 434.5t-432 152.5t-431 -152.5t-134 -434.5q0 -283 134 -435.5t431 -152.5zM748 1941h215l313 -336h-193l-231 207l-227 -207h-191z"/>
<glyph unicode="Õ" horiz-adv-x="1718" d="M858 -25q-182 0 -325.5 45.5t-244 140.5t-152.5 243.5t-52 355.5q0 205 52 353.5t152.5 243.5t244 140t325.5 45t325.5 -45t244 -140t152.5 -243.5t52 -353.5q0 -207 -52 -355.5t-152.5 -243.5t-244 -140.5t-325.5 -45.5zM858 168q297 0 432 152.5t135 435.5 q0 282 -135 434.5t-432 152.5t-431 -152.5t-134 -434.5q0 -283 134 -435.5t431 -152.5zM436 1706q60 74 131.5 122t143.5 48q53 0 90 -16q37 -18 67 -36l61 -34q30 -16 66 -17q39 0 80 32t84 81l117 -94q-59 -76 -131 -130.5t-145 -54.5q-48 0 -84.5 16.5t-69.5 34.5l-64 36 q-30 16 -67 16q-35 0 -76 -25.5t-80 -74.5z"/>
<glyph unicode="Ö" horiz-adv-x="1718" d="M858 -25q-182 0 -325.5 45.5t-244 140.5t-152.5 243.5t-52 355.5q0 205 52 353.5t152.5 243.5t244 140t325.5 45t325.5 -45t244 -140t152.5 -243.5t52 -353.5q0 -207 -52 -355.5t-152.5 -243.5t-244 -140.5t-325.5 -45.5zM858 168q297 0 432 152.5t135 435.5 q0 282 -135 434.5t-432 152.5t-431 -152.5t-134 -434.5q0 -283 134 -435.5t431 -152.5zM545 1841h182v-229h-182v229zM987 1841h180v-229h-180v229z"/>
<glyph unicode="×" horiz-adv-x="1440" d="M276 401l320 320l-320 319l123 129l322 -321l317 321l123 -129l-319 -319l319 -318l-123 -127l-317 320l-324 -320z"/>
<glyph unicode="Ø" horiz-adv-x="1718" d="M858 -25q-188 0 -332 45l-59 -104h-199l101 176q-47 31 -87 69q-98 95 -148 243.5t-50 355.5q0 205 50 353.5t148.5 243.5t243 140t332.5 45q176 0 313 -39l58 101h196l-96 -168q57 -34 104 -79q99 -95 149 -243.5t50 -353.5q0 -207 -50 -355.5t-148.5 -243.5 t-242.5 -140.5t-333 -45.5zM858 162q156 0 265.5 39t178 114.5t99.5 186t31 254.5q0 143 -31 253.5t-100 186.5q-34 37 -78 66l-607 -1069q102 -31 242 -31zM858 1350q-156 0 -264.5 -39t-177 -115t-99 -186.5t-30.5 -253.5q0 -144 30.5 -254.5t98.5 -186.5q27 -29 59 -53 l604 1063q-96 25 -221 25z"/>
<glyph unicode="Ù" horiz-adv-x="1614" d="M805 -27q-213 0 -340 49.5t-194.5 131.5t-88 187t-20.5 216v961h207v-936q0 -93 17 -169.5t65.5 -131t134.5 -84t221 -29.5q137 0 224 29.5t136.5 83t67.5 130t18 171.5v936h201v-961q0 -74 -9 -146.5t-34 -137t-70 -120t-116.5 -95.5t-175 -62.5t-244.5 -22.5zM428 1941 h244l303 -336h-184z"/>
<glyph unicode="Ú" horiz-adv-x="1614" d="M805 -27q-213 0 -340 49.5t-194.5 131.5t-88 187t-20.5 216v961h207v-936q0 -93 17 -169.5t65.5 -131t134.5 -84t221 -29.5q137 0 224 29.5t136.5 83t67.5 130t18 171.5v936h201v-961q0 -74 -9 -146.5t-34 -137t-70 -120t-116.5 -95.5t-175 -62.5t-244.5 -22.5zM934 1941 h244l-363 -336h-184z"/>
<glyph unicode="Û" horiz-adv-x="1614" d="M805 -27q-213 0 -340 49.5t-194.5 131.5t-88 187t-20.5 216v961h207v-936q0 -93 17 -169.5t65.5 -131t134.5 -84t221 -29.5q137 0 224 29.5t136.5 83t67.5 130t18 171.5v936h201v-961q0 -74 -9 -146.5t-34 -137t-70 -120t-116.5 -95.5t-175 -62.5t-244.5 -22.5zM695 1941 h215l313 -336h-193l-231 207l-227 -207h-191z"/>
<glyph unicode="Ü" horiz-adv-x="1614" d="M805 -27q-213 0 -340 49.5t-194.5 131.5t-88 187t-20.5 216v961h207v-936q0 -93 17 -169.5t65.5 -131t134.5 -84t221 -29.5q137 0 224 29.5t136.5 83t67.5 130t18 171.5v936h201v-961q0 -74 -9 -146.5t-34 -137t-70 -120t-116.5 -95.5t-175 -62.5t-244.5 -22.5zM492 1841 h182v-229h-182v229zM934 1841h180v-229h-180v229z"/>
<glyph unicode="Ý" horiz-adv-x="1466" d="M20 1518h226l489 -756l494 756h215l-608 -939v-579h-205v574zM860 1941h244l-363 -336h-184z"/>
<glyph unicode="Þ" horiz-adv-x="1475" d="M172 1518h203v-236h479q154 0 257 -29.5t165.5 -89t88.5 -148.5t26 -206t-26 -209t-88.5 -155.5t-166.5 -97.5t-262 -34h-473v-313h-203v1518zM854 504q176 0 253 67.5t77 231.5q0 84 -17.5 139t-57.5 89t-103.5 48.5t-155.5 14.5h-475v-590h479z"/>
<glyph unicode="ß" horiz-adv-x="1352" d="M147 1098q0 100 25 191t85 160t161.5 109.5t255.5 40.5q254 0 370.5 -100t116.5 -301q0 -156 -54 -240t-155 -120q162 -31 245 -121t83 -275q0 -106 -22.5 -189t-87 -139.5t-181.5 -85t-303 -28.5h-129v180h125q131 0 210 20.5t122 57.5t56 87t13 110q0 69 -20.5 120.5 t-69.5 84t-133 48t-213 15.5v166q166 0 242 62.5t76 197.5q0 125 -67 186.5t-226 61.5q-174 0 -251 -81t-77 -226v-1090h-197v1098z"/>
<glyph unicode="à" horiz-adv-x="1284" d="M487 -20q-122 0 -201 26.5t-125 72.5t-63.5 109.5t-17.5 135.5q0 120 37 201t125 129t232 67.5t357 19.5h61q-1 49 -7 88q-8 52 -38 84.5t-86 49t-153 16.5q-108 0 -195 -30.5t-141 -65.5l-104 155q29 19 75 41.5t106.5 42t131 31.5t146.5 12q145 0 235 -25.5 t139.5 -80.5t66.5 -142.5t17 -207.5v-406q0 -41 3.5 -66.5t14.5 -39t33.5 -17.5t61.5 -4v-174q-10 -4 -31 -4h-51q-47 0 -78.5 7t-54 22.5t-37 40t-24.5 59.5q-52 -72 -152 -109.5t-283 -37.5zM554 560q-112 -11 -174.5 -37.5t-86 -71.5t-23.5 -113q0 -90 52.5 -138 t197.5 -48q199 0 286 82.5t87 267.5v69h-51q-176 0 -288 -11zM268 1591h244l303 -336h-184z"/>
<glyph unicode="á" horiz-adv-x="1284" d="M487 -20q-122 0 -201 26.5t-125 72.5t-63.5 109.5t-17.5 135.5q0 120 37 201t125 129t232 67.5t357 19.5h61q-1 49 -7 88q-8 52 -38 84.5t-86 49t-153 16.5q-108 0 -195 -30.5t-141 -65.5l-104 155q29 19 75 41.5t106.5 42t131 31.5t146.5 12q145 0 235 -25.5 t139.5 -80.5t66.5 -142.5t17 -207.5v-406q0 -41 3.5 -66.5t14.5 -39t33.5 -17.5t61.5 -4v-174q-10 -4 -31 -4h-51q-47 0 -78.5 7t-54 22.5t-37 40t-24.5 59.5q-52 -72 -152 -109.5t-283 -37.5zM554 560q-112 -11 -174.5 -37.5t-86 -71.5t-23.5 -113q0 -90 52.5 -138 t197.5 -48q199 0 286 82.5t87 267.5v69h-51q-176 0 -288 -11zM774 1591h244l-363 -336h-184z"/>
<glyph unicode="â" horiz-adv-x="1284" d="M487 -20q-122 0 -201 26.5t-125 72.5t-63.5 109.5t-17.5 135.5q0 120 37 201t125 129t232 67.5t357 19.5h61q-1 49 -7 88q-8 52 -38 84.5t-86 49t-153 16.5q-108 0 -195 -30.5t-141 -65.5l-104 155q29 19 75 41.5t106.5 42t131 31.5t146.5 12q145 0 235 -25.5 t139.5 -80.5t66.5 -142.5t17 -207.5v-406q0 -41 3.5 -66.5t14.5 -39t33.5 -17.5t61.5 -4v-174q-10 -4 -31 -4h-51q-47 0 -78.5 7t-54 22.5t-37 40t-24.5 59.5q-52 -72 -152 -109.5t-283 -37.5zM554 560q-112 -11 -174.5 -37.5t-86 -71.5t-23.5 -113q0 -90 52.5 -138 t197.5 -48q199 0 286 82.5t87 267.5v69h-51q-176 0 -288 -11zM535 1591h215l313 -336h-193l-231 207l-227 -207h-191z"/>
<glyph unicode="ã" horiz-adv-x="1284" d="M487 -20q-122 0 -201 26.5t-125 72.5t-63.5 109.5t-17.5 135.5q0 120 37 201t125 129t232 67.5t357 19.5h61q-1 49 -7 88q-8 52 -38 84.5t-86 49t-153 16.5q-108 0 -195 -30.5t-141 -65.5l-104 155q29 19 75 41.5t106.5 42t131 31.5t146.5 12q145 0 235 -25.5 t139.5 -80.5t66.5 -142.5t17 -207.5v-406q0 -41 3.5 -66.5t14.5 -39t33.5 -17.5t61.5 -4v-174q-10 -4 -31 -4h-51q-47 0 -78.5 7t-54 22.5t-37 40t-24.5 59.5q-52 -72 -152 -109.5t-283 -37.5zM554 560q-112 -11 -174.5 -37.5t-86 -71.5t-23.5 -113q0 -90 52.5 -138 t197.5 -48q199 0 286 82.5t87 267.5v69h-51q-176 0 -288 -11zM223 1356q60 74 131.5 122t143.5 48q53 0 90 -16q37 -18 67 -36l61 -34q30 -16 66 -17q39 0 80 32t84 81l117 -94q-59 -76 -131 -130.5t-145 -54.5q-48 0 -84.5 16.5t-69.5 34.5l-64 36q-30 16 -67 16 q-35 0 -76 -25.5t-80 -74.5z"/>
<glyph unicode="ä" horiz-adv-x="1284" d="M487 -20q-122 0 -201 26.5t-125 72.5t-63.5 109.5t-17.5 135.5q0 120 37 201t125 129t232 67.5t357 19.5h61q-1 49 -7 88q-8 52 -38 84.5t-86 49t-153 16.5q-108 0 -195 -30.5t-141 -65.5l-104 155q29 19 75 41.5t106.5 42t131 31.5t146.5 12q145 0 235 -25.5 t139.5 -80.5t66.5 -142.5t17 -207.5v-406q0 -41 3.5 -66.5t14.5 -39t33.5 -17.5t61.5 -4v-174q-10 -4 -31 -4h-51q-47 0 -78.5 7t-54 22.5t-37 40t-24.5 59.5q-52 -72 -152 -109.5t-283 -37.5zM554 560q-112 -11 -174.5 -37.5t-86 -71.5t-23.5 -113q0 -90 52.5 -138 t197.5 -48q199 0 286 82.5t87 267.5v69h-51q-176 0 -288 -11zM332 1491h182v-229h-182v229zM774 1491h180v-229h-180v229z"/>
<glyph unicode="å" horiz-adv-x="1284" d="M487 -20q-122 0 -201 26.5t-125 72.5t-63.5 109.5t-17.5 135.5q0 120 37 201t125 129t232 67.5t357 19.5h61q-1 49 -7 88q-8 52 -38 84.5t-86 49t-153 16.5q-108 0 -195 -30.5t-141 -65.5l-104 155q29 19 75 41.5t106.5 42t131 31.5t146.5 12q145 0 235 -25.5 t139.5 -80.5t66.5 -142.5t17 -207.5v-406q0 -41 3.5 -66.5t14.5 -39t33.5 -17.5t61.5 -4v-174q-10 -4 -31 -4h-51q-47 0 -78.5 7t-54 22.5t-37 40t-24.5 59.5q-52 -72 -152 -109.5t-283 -37.5zM554 560q-112 -11 -174.5 -37.5t-86 -71.5t-23.5 -113q0 -90 52.5 -138 t197.5 -48q199 0 286 82.5t87 267.5v69h-51q-176 0 -288 -11zM643 1231q-67 0 -116.5 20.5t-81 55t-46 84t-14.5 104.5q0 57 14.5 106.5t46 85t81 56t116.5 20.5q66 0 114 -20.5t79.5 -56t47 -85t15.5 -106.5q0 -113 -62.5 -188.5t-193.5 -75.5zM643 1341q78 0 112 44.5 t34 109.5q0 66 -34 110t-112 44q-80 0 -113.5 -44t-33.5 -110q0 -65 33.5 -109.5t113.5 -44.5z"/>
<glyph unicode="æ" horiz-adv-x="2019" d="M1444 -23q-180 0 -286.5 47.5t-163.5 129.5l-20 31q-14 -25 -29 -46q-48 -63 -113.5 -99t-149.5 -48t-190 -12q-222 0 -317 85t-95 259q0 120 40 201t129 129t232.5 67.5t349.5 19.5h61q-1 49 -7 88q-8 52 -38 84.5t-86 49t-153 16.5q-108 0 -197 -30.5t-143 -63.5 l-100 153q29 19 75 41.5t106.5 42t131 31.5t146.5 12q145 0 231 -29.5t130 -87.5q14 -18 24 -39q55 66 146 108q106 48 280 48q121 0 203.5 -25.5t137 -71.5t83 -108.5t42 -137t14.5 -158.5t-1 -170h-840q3 -51 11 -96q14 -76 53 -131.5t111.5 -86t191.5 -30.5q67 0 120.5 8 t95.5 23.5t77 36t67 44.5l109 -139q-47 -35 -95.5 -62.5t-103.5 -46t-121.5 -28t-148.5 -9.5zM558 561q-112 -10 -175.5 -36.5t-88 -71.5t-24.5 -115q0 -92 52.5 -139t199.5 -47q197 0 284 83.5t87 266.5v69h-51q-172 0 -284 -10zM1729 668q-5 67 -13 126.5t-37.5 102.5 t-87 67.5t-157.5 24.5q-115 0 -185.5 -30.5t-108.5 -87t-52 -134.5q-5 -33 -9 -69h650z"/>
<glyph unicode="ç" horiz-adv-x="1165" d="M598 -475q-78 0 -138.5 16.5t-109.5 44.5l56 105q40 -23 87.5 -35t96.5 -12q94 0 123.5 28.5t29.5 71.5q0 55 -42 73.5t-146 12.5l-49 35l22 123q-127 14 -211 62t-134 124t-70.5 176.5t-20.5 220.5q0 131 25.5 241t89 188.5t172 121.5t276.5 43q154 0 256.5 -48 t167.5 -122l-145 -137q-41 41 -104.5 78t-174.5 37q-104 0 -174.5 -27.5t-111.5 -80t-58.5 -128t-17.5 -170.5q0 -96 16.5 -172t58.5 -128t111.5 -80.5t175.5 -28.5q93 0 158.5 28.5t130.5 87.5l133 -127q-43 -41 -88 -71.5t-95 -52t-110.5 -32.5t-134.5 -11l-12 -70 q47 2 91 -2t78 -22.5t54.5 -54.5t20.5 -99q0 -101 -65.5 -154t-217.5 -53z"/>
<glyph unicode="è" horiz-adv-x="1229" d="M651 -23q-176 0 -284.5 46.5t-170 127t-83 189.5t-21.5 231q0 123 22.5 231.5t84 188.5t170 127t278.5 47q176 0 273.5 -56t144.5 -149.5t55 -215.5q6 -97 6 -199v-51h-841q3 -51 11 -96q13 -76 53 -131.5t111.5 -86t190.5 -30.5q137 0 217 31.5t146 80.5l106 -139 q-90 -72 -198.5 -109t-270.5 -37zM938 670q-4 67 -13.5 125.5t-38 101.5t-87 67.5t-158.5 24.5q-115 0 -184.5 -30.5t-108.5 -87t-52 -134.5q-6 -32 -9 -67h651zM235 1591h244l303 -336h-184z"/>
<glyph unicode="é" horiz-adv-x="1229" d="M651 -23q-176 0 -284.5 46.5t-170 127t-83 189.5t-21.5 231q0 123 22.5 231.5t84 188.5t170 127t278.5 47q176 0 273.5 -56t144.5 -149.5t55 -215.5q6 -97 6 -199v-51h-841q3 -51 11 -96q13 -76 53 -131.5t111.5 -86t190.5 -30.5q137 0 217 31.5t146 80.5l106 -139 q-90 -72 -198.5 -109t-270.5 -37zM938 670q-4 67 -13.5 125.5t-38 101.5t-87 67.5t-158.5 24.5q-115 0 -184.5 -30.5t-108.5 -87t-52 -134.5q-6 -32 -9 -67h651zM741 1591h244l-363 -336h-184z"/>
<glyph unicode="ê" horiz-adv-x="1229" d="M651 -23q-176 0 -284.5 46.5t-170 127t-83 189.5t-21.5 231q0 123 22.5 231.5t84 188.5t170 127t278.5 47q176 0 273.5 -56t144.5 -149.5t55 -215.5q6 -97 6 -199v-51h-841q3 -51 11 -96q13 -76 53 -131.5t111.5 -86t190.5 -30.5q137 0 217 31.5t146 80.5l106 -139 q-90 -72 -198.5 -109t-270.5 -37zM938 670q-4 67 -13.5 125.5t-38 101.5t-87 67.5t-158.5 24.5q-115 0 -184.5 -30.5t-108.5 -87t-52 -134.5q-6 -32 -9 -67h651zM502 1591h215l313 -336h-193l-231 207l-227 -207h-191z"/>
<glyph unicode="ë" horiz-adv-x="1229" d="M651 -23q-176 0 -284.5 46.5t-170 127t-83 189.5t-21.5 231q0 123 22.5 231.5t84 188.5t170 127t278.5 47q176 0 273.5 -56t144.5 -149.5t55 -215.5q6 -97 6 -199v-51h-841q3 -51 11 -96q13 -76 53 -131.5t111.5 -86t190.5 -30.5q137 0 217 31.5t146 80.5l106 -139 q-90 -72 -198.5 -109t-270.5 -37zM938 670q-4 67 -13.5 125.5t-38 101.5t-87 67.5t-158.5 24.5q-115 0 -184.5 -30.5t-108.5 -87t-52 -134.5q-6 -32 -9 -67h651zM299 1491h182v-229h-182v229zM741 1491h180v-229h-180v229z"/>
<glyph unicode="ì" horiz-adv-x="516" d="M-109 1587h242l223 -332h-184zM160 1139h196v-1139h-196v1139z"/>
<glyph unicode="í" horiz-adv-x="516" d="M383 1587h244l-281 -332h-182zM160 1139h196v-1139h-196v1139z"/>
<glyph unicode="î" horiz-adv-x="516" d="M156 1587h202l250 -332h-190l-162 209l-166 -209h-182zM160 1139h196v-1139h-196v1139z"/>
<glyph unicode="ï" horiz-adv-x="516" d="M-18 1505h163v-227h-163v227zM373 1505h164v-227h-164v227zM160 1139h196v-1139h-196v1139z"/>
<glyph unicode="ð" horiz-adv-x="1309" d="M604 1352l154 39q-64 73 -148 147l185 78q90 -74 166 -167q2 -3 4 -5l280 72v-144l-196 -50q24 -42 46 -88q58 -122 90 -278.5t32 -357.5q0 -326 -137.5 -473.5t-428.5 -147.5q-151 0 -257.5 39t-173 113t-97.5 179.5t-31 238.5q0 129 26.5 234.5t86 179t157 114.5 t238.5 41q150 0 236 -28.5t137 -88.5q-33 138 -121 271l-2 2l-246 -62v142zM651 158q199 0 281 101t82 292q0 192 -82 291.5t-281 99.5q-194 0 -276 -99.5t-82 -291.5q0 -191 82 -292t276 -101z"/>
<glyph unicode="ñ" horiz-adv-x="1294" d="M147 1128l158 11l17 -109q20 27 52 51.5t81 43t119.5 29.5t166.5 11q136 0 216.5 -33.5t123.5 -96t56.5 -149.5t13.5 -192v-694h-199v655q0 70 -6 127.5t-33.5 98.5t-83 64.5t-151.5 23.5q-105 0 -170.5 -25.5t-100 -70t-47 -106.5t-12.5 -136v-631h-201v1128zM223 1356 q60 74 131.5 122t143.5 48q53 0 90 -16q37 -18 67 -36l61 -34q30 -16 66 -17q39 0 80 32t84 81l117 -94q-59 -76 -131 -130.5t-145 -54.5q-48 0 -84.5 16.5t-69.5 34.5l-64 36q-30 16 -67 16q-35 0 -76 -25.5t-80 -74.5z"/>
<glyph unicode="ò" horiz-adv-x="1309" d="M653 -23q-151 0 -257.5 38t-174 113t-98.5 186.5t-31 256.5q0 146 31 257.5t98.5 186.5t174 112.5t257.5 37.5q152 0 258.5 -37.5t174 -112.5t99.5 -186.5t32 -257.5q0 -145 -32 -256.5t-99.5 -186.5t-174 -113t-258.5 -38zM653 158q101 0 169.5 26.5t111.5 78.5 t61.5 129t18.5 175q0 197 -80 302.5t-281 105.5q-200 0 -280 -105.5t-80 -302.5q0 -98 18.5 -175t61.5 -129t111.5 -78.5t168.5 -26.5zM276 1591h244l303 -336h-184z"/>
<glyph unicode="ó" horiz-adv-x="1309" d="M653 -23q-151 0 -257.5 38t-174 113t-98.5 186.5t-31 256.5q0 146 31 257.5t98.5 186.5t174 112.5t257.5 37.5q152 0 258.5 -37.5t174 -112.5t99.5 -186.5t32 -257.5q0 -145 -32 -256.5t-99.5 -186.5t-174 -113t-258.5 -38zM653 158q101 0 169.5 26.5t111.5 78.5 t61.5 129t18.5 175q0 197 -80 302.5t-281 105.5q-200 0 -280 -105.5t-80 -302.5q0 -98 18.5 -175t61.5 -129t111.5 -78.5t168.5 -26.5zM782 1591h244l-363 -336h-184z"/>
<glyph unicode="ô" horiz-adv-x="1309" d="M653 -23q-151 0 -257.5 38t-174 113t-98.5 186.5t-31 256.5q0 146 31 257.5t98.5 186.5t174 112.5t257.5 37.5q152 0 258.5 -37.5t174 -112.5t99.5 -186.5t32 -257.5q0 -145 -32 -256.5t-99.5 -186.5t-174 -113t-258.5 -38zM653 158q101 0 169.5 26.5t111.5 78.5 t61.5 129t18.5 175q0 197 -80 302.5t-281 105.5q-200 0 -280 -105.5t-80 -302.5q0 -98 18.5 -175t61.5 -129t111.5 -78.5t168.5 -26.5zM543 1591h215l313 -336h-193l-231 207l-227 -207h-191z"/>
<glyph unicode="õ" horiz-adv-x="1309" d="M653 -23q-151 0 -257.5 38t-174 113t-98.5 186.5t-31 256.5q0 146 31 257.5t98.5 186.5t174 112.5t257.5 37.5q152 0 258.5 -37.5t174 -112.5t99.5 -186.5t32 -257.5q0 -145 -32 -256.5t-99.5 -186.5t-174 -113t-258.5 -38zM653 158q101 0 169.5 26.5t111.5 78.5 t61.5 129t18.5 175q0 197 -80 302.5t-281 105.5q-200 0 -280 -105.5t-80 -302.5q0 -98 18.5 -175t61.5 -129t111.5 -78.5t168.5 -26.5zM231 1356q60 74 131.5 122t143.5 48q53 0 90 -16q37 -18 67 -36l61 -34q30 -16 66 -17q39 0 80 32t84 81l117 -94q-59 -76 -131 -130.5 t-145 -54.5q-48 0 -84.5 16.5t-69.5 34.5l-64 36q-30 16 -67 16q-35 0 -76 -25.5t-80 -74.5z"/>
<glyph unicode="ö" horiz-adv-x="1309" d="M653 -23q-151 0 -257.5 38t-174 113t-98.5 186.5t-31 256.5q0 146 31 257.5t98.5 186.5t174 112.5t257.5 37.5q152 0 258.5 -37.5t174 -112.5t99.5 -186.5t32 -257.5q0 -145 -32 -256.5t-99.5 -186.5t-174 -113t-258.5 -38zM653 158q101 0 169.5 26.5t111.5 78.5 t61.5 129t18.5 175q0 197 -80 302.5t-281 105.5q-200 0 -280 -105.5t-80 -302.5q0 -98 18.5 -175t61.5 -129t111.5 -78.5t168.5 -26.5zM340 1491h182v-229h-182v229zM782 1491h180v-229h-180v229z"/>
<glyph unicode="÷" horiz-adv-x="1440" d="M608 420h223v-215h-223v215zM211 817h1018v-190h-1018v190zM608 1241h223v-215h-223v215z"/>
<glyph unicode="ø" horiz-adv-x="1309" d="M653 -23q-140 0 -242 32l-59 -95h-182l100 166q-28 22 -52 48q-66 75 -96 186.5t-30 256.5q0 146 30 257.5t96.5 186.5t174 112.5t260.5 37.5q141 0 244 -32l57 96h183l-98 -168q27 -21 50 -46q68 -75 98 -186.5t30 -257.5q0 -145 -30 -256.5t-97.5 -186.5t-175 -113 t-261.5 -38zM653 154q103 0 172.5 27.5t112.5 79.5t61.5 130t18.5 176q0 99 -18.5 175.5t-61.5 128.5l-14 16l-424 -713q64 -20 153 -20zM653 979q-102 0 -171.5 -27.5t-112.5 -80t-61.5 -129t-18.5 -175.5q0 -98 18.5 -176t61.5 -130l12 -14l420 713q-62 19 -148 19z"/>
<glyph unicode="ù" horiz-adv-x="1280" d="M643 -20q-164 0 -263 32.5t-152.5 97t-70 160t-16.5 217.5v652h199v-656q0 -67 5 -125.5t34 -102.5t90 -68.5t174 -24.5t174.5 24.5t90 68.5t32.5 104.5t4 129.5v650h195v-645q0 -127 -15.5 -222.5t-67.5 -161t-150.5 -98t-262.5 -32.5zM262 1591h244l303 -336h-184z"/>
<glyph unicode="ú" horiz-adv-x="1280" d="M643 -20q-164 0 -263 32.5t-152.5 97t-70 160t-16.5 217.5v652h199v-656q0 -67 5 -125.5t34 -102.5t90 -68.5t174 -24.5t174.5 24.5t90 68.5t32.5 104.5t4 129.5v650h195v-645q0 -127 -15.5 -222.5t-67.5 -161t-150.5 -98t-262.5 -32.5zM768 1591h244l-363 -336h-184z "/>
<glyph unicode="û" horiz-adv-x="1280" d="M643 -20q-164 0 -263 32.5t-152.5 97t-70 160t-16.5 217.5v652h199v-656q0 -67 5 -125.5t34 -102.5t90 -68.5t174 -24.5t174.5 24.5t90 68.5t32.5 104.5t4 129.5v650h195v-645q0 -127 -15.5 -222.5t-67.5 -161t-150.5 -98t-262.5 -32.5zM529 1591h215l313 -336h-193 l-231 207l-227 -207h-191z"/>
<glyph unicode="ü" horiz-adv-x="1280" d="M643 -20q-164 0 -263 32.5t-152.5 97t-70 160t-16.5 217.5v652h199v-656q0 -67 5 -125.5t34 -102.5t90 -68.5t174 -24.5t174.5 24.5t90 68.5t32.5 104.5t4 129.5v650h195v-645q0 -127 -15.5 -222.5t-67.5 -161t-150.5 -98t-262.5 -32.5zM326 1491h182v-229h-182v229z M768 1491h180v-229h-180v229z"/>
<glyph unicode="ý" horiz-adv-x="1114" d="M14 1139h213l335 -889l331 889h209l-484 -1235q-24 -66 -55 -113t-71.5 -76.5t-97 -44t-132.5 -14.5h-51q-35 0 -53 2v162h88q84 0 119.5 21.5t56.5 82.5l34 89zM693 1591h244l-363 -336h-184z"/>
<glyph unicode="þ" horiz-adv-x="1343" d="M147 1589h199v-563q47 72 146.5 105.5t271.5 33.5q143 0 237.5 -44t149.5 -121.5t77.5 -187.5t22.5 -241q0 -129 -22.5 -238.5t-79.5 -187t-152.5 -121.5t-240.5 -44q-178 0 -271.5 33.5t-136.5 105.5v-457h-201v1927zM721 162q96 0 159.5 27.5t100.5 80t52.5 127 t15.5 168.5t-14.5 170t-51.5 129.5t-100.5 82t-161.5 28.5q-100 0 -171 -21.5t-116 -69.5t-65.5 -127t-20.5 -192q0 -112 19.5 -189t63.5 -125t115.5 -68.5t174.5 -20.5z"/>
<glyph unicode="ÿ" horiz-adv-x="1114" d="M14 1139h213l335 -889l331 889h209l-484 -1235q-24 -66 -55 -113t-71.5 -76.5t-97 -44t-132.5 -14.5h-51q-35 0 -53 2v162h88q84 0 119.5 21.5t56.5 82.5l34 89zM251 1491h182v-229h-182v229zM693 1491h180v-229h-180v229z"/>
<glyph unicode="Ā" horiz-adv-x="1520" d="M653 1528h211l609 -1528h-213l-125 319h-758l-125 -319h-207zM1061 510l-307 770l-308 -770h615zM371 1763h770v-170h-770v170z"/>
<glyph unicode="ā" horiz-adv-x="1284" d="M487 -20q-122 0 -201 26.5t-125 72.5t-63.5 109.5t-17.5 135.5q0 120 37 201t125 129t232 67.5t357 19.5h61q-1 49 -7 88q-8 52 -38 84.5t-86 49t-153 16.5q-108 0 -195 -30.5t-141 -65.5l-104 155q29 19 75 41.5t106.5 42t131 31.5t146.5 12q145 0 235 -25.5 t139.5 -80.5t66.5 -142.5t17 -207.5v-406q0 -41 3.5 -66.5t14.5 -39t33.5 -17.5t61.5 -4v-174q-10 -4 -31 -4h-51q-47 0 -78.5 7t-54 22.5t-37 40t-24.5 59.5q-52 -72 -152 -109.5t-283 -37.5zM554 560q-112 -11 -174.5 -37.5t-86 -71.5t-23.5 -113q0 -90 52.5 -138 t197.5 -48q199 0 286 82.5t87 267.5v69h-51q-176 0 -288 -11zM258 1413h770v-170h-770v170z"/>
<glyph unicode="Ă" horiz-adv-x="1520" d="M653 1528h211l609 -1528h-213l-125 319h-758l-125 -319h-207zM1061 510l-307 770l-308 -770h615zM756 1583q-104 0 -174 25.5t-115 70.5t-69.5 105.5t-38.5 130.5l147 30q11 -45 26 -81.5t44 -62.5t72 -40t108 -14q64 0 108 14t71.5 40t44 62.5t26.5 81.5l150 -28 q-17 -72 -41.5 -132.5t-69.5 -105.5t-114.5 -70.5t-174.5 -25.5z"/>
<glyph unicode="ă" horiz-adv-x="1284" d="M487 -20q-122 0 -201 26.5t-125 72.5t-63.5 109.5t-17.5 135.5q0 120 37 201t125 129t232 67.5t357 19.5h61q-1 49 -7 88q-8 52 -38 84.5t-86 49t-153 16.5q-108 0 -195 -30.5t-141 -65.5l-104 155q29 19 75 41.5t106.5 42t131 31.5t146.5 12q145 0 235 -25.5 t139.5 -80.5t66.5 -142.5t17 -207.5v-406q0 -41 3.5 -66.5t14.5 -39t33.5 -17.5t61.5 -4v-174q-10 -4 -31 -4h-51q-47 0 -78.5 7t-54 22.5t-37 40t-24.5 59.5q-52 -72 -152 -109.5t-283 -37.5zM554 560q-112 -11 -174.5 -37.5t-86 -71.5t-23.5 -113q0 -90 52.5 -138 t197.5 -48q199 0 286 82.5t87 267.5v69h-51q-176 0 -288 -11zM643 1233q-104 0 -174 25.5t-115 70.5t-69.5 105.5t-38.5 130.5l147 30q11 -45 26 -81.5t44 -62.5t72 -40t108 -14q64 0 108 14t71.5 40t44 62.5t26.5 81.5l150 -28q-17 -72 -41.5 -132.5t-69.5 -105.5 t-114.5 -70.5t-174.5 -25.5z"/>
<glyph unicode="Ą" horiz-adv-x="1520" d="M653 1528h211l609 -1528h-64q-94 -57 -140 -113.5t-46 -105.5q0 -19 4 -36t17 -30.5t37 -21.5t62 -8q43 0 81 7t67 17l45 -121q-41 -20 -96.5 -31.5t-120.5 -11.5q-78 0 -128 15.5t-79 43t-41 65.5t-12 81q0 45 16.5 87t44 77t61 63.5t68.5 49.5l-114 292h-758l-125 -319 h-207zM1061 510l-307 770l-308 -770h615z"/>
<glyph unicode="ą" horiz-adv-x="1284" d="M487 -20q-122 0 -201 26.5t-125 72.5t-63.5 109.5t-17.5 135.5q0 120 37 201t125 129t232 67.5t357 19.5h62q-2 62 -12.5 107t-41 73.5t-86 43t-145.5 14.5q-108 0 -195 -30.5t-141 -65.5l-104 155q29 19 75 41.5t106.5 42t131 31.5t146.5 12q145 0 235 -25.5 t139.5 -80.5t66.5 -142.5t17 -207.5v-406q0 -41 3.5 -66.5t14.5 -39t33.5 -17.5t61.5 -4v-174q-104 -59 -158.5 -114.5t-54.5 -106.5q0 -19 4 -36t18.5 -30.5t39 -21.5t65.5 -8q45 0 84 8t68 18l49 -121q-41 -20 -100.5 -32.5t-125.5 -12.5q-79 0 -130.5 15.5t-81 43 t-41 65.5t-11.5 81q0 47 18.5 88t47.5 75t61.5 58.5t63.5 40.5q-35 13 -53 35q-27 33 -39 80q-52 -72 -152 -109.5t-283 -37.5zM520 152q199 0 286 82.5t87 267.5v69h-51q-176 0 -288 -11t-174.5 -37.5t-86 -71.5t-23.5 -113q0 -90 52.5 -138t197.5 -48z"/>
<glyph unicode="Ć" horiz-adv-x="1497" d="M842 -23q-396 0 -577 200t-181 583q0 201 51 348t149.5 243.5t242 143.5t325.5 47q174 0 309 -50t240 -149l-150 -149q-77 72 -176.5 110.5t-224.5 38.5q-557 0 -557 -585q0 -289 133 -437.5t426 -148.5q82 0 144.5 12.5t110.5 34t85 49t72 60.5l147 -142 q-41 -41 -92 -78.5t-118.5 -66.5t-156 -46.5t-202.5 -17.5zM876 1941h244l-363 -336h-184z"/>
<glyph unicode="ć" horiz-adv-x="1165" d="M647 -20q-164 0 -271.5 43t-170 120.5t-88 186t-25.5 241.5q0 131 25.5 241t89 188.5t172 121.5t276.5 43q154 0 256.5 -48t167.5 -122l-145 -137q-41 41 -104.5 78t-174.5 37q-104 0 -174.5 -27.5t-111.5 -80t-58.5 -128t-17.5 -170.5q0 -96 16.5 -172t58.5 -128 t111.5 -80.5t175.5 -28.5q93 0 158.5 28.5t130.5 87.5l133 -127q-43 -41 -88 -71.5t-95 -52t-110.5 -32.5t-136.5 -11zM718 1591h244l-363 -336h-184z"/>
<glyph unicode="Ĉ" horiz-adv-x="1497" d="M842 -23q-396 0 -577 200t-181 583q0 201 51 348t149.5 243.5t242 143.5t325.5 47q174 0 309 -50t240 -149l-150 -149q-77 72 -176.5 110.5t-224.5 38.5q-557 0 -557 -585q0 -289 133 -437.5t426 -148.5q82 0 144.5 12.5t110.5 34t85 49t72 60.5l147 -142 q-41 -41 -92 -78.5t-118.5 -66.5t-156 -46.5t-202.5 -17.5zM689 1941h215l313 -336h-193l-231 207l-227 -207h-191z"/>
<glyph unicode="ĉ" horiz-adv-x="1165" d="M647 -20q-164 0 -271.5 43t-170 120.5t-88 186t-25.5 241.5q0 131 25.5 241t89 188.5t172 121.5t276.5 43q154 0 256.5 -48t167.5 -122l-145 -137q-41 41 -104.5 78t-174.5 37q-104 0 -174.5 -27.5t-111.5 -80t-58.5 -128t-17.5 -170.5q0 -96 16.5 -172t58.5 -128 t111.5 -80.5t175.5 -28.5q93 0 158.5 28.5t130.5 87.5l133 -127q-43 -41 -88 -71.5t-95 -52t-110.5 -32.5t-136.5 -11zM495 1591h215l313 -336h-193l-231 207l-227 -207h-191z"/>
<glyph unicode="Ċ" horiz-adv-x="1497" d="M842 -23q-396 0 -577 200t-181 583q0 201 51 348t149.5 243.5t242 143.5t325.5 47q174 0 309 -50t240 -149l-150 -149q-77 72 -176.5 110.5t-224.5 38.5q-557 0 -557 -585q0 -289 133 -437.5t426 -148.5q82 0 144.5 12.5t110.5 34t85 49t72 60.5l147 -142 q-41 -41 -92 -78.5t-118.5 -66.5t-156 -46.5t-202.5 -17.5zM692 1841h201v-238h-201v238z"/>
<glyph unicode="ċ" horiz-adv-x="1165" d="M647 -20q-164 0 -271.5 43t-170 120.5t-88 186t-25.5 241.5q0 131 25.5 241t89 188.5t172 121.5t276.5 43q154 0 256.5 -48t167.5 -122l-145 -137q-41 41 -104.5 78t-174.5 37q-104 0 -174.5 -27.5t-111.5 -80t-58.5 -128t-17.5 -170.5q0 -96 16.5 -172t58.5 -128 t111.5 -80.5t175.5 -28.5q93 0 158.5 28.5t130.5 87.5l133 -127q-43 -41 -88 -71.5t-95 -52t-110.5 -32.5t-136.5 -11zM516 1491h201v-238h-201v238z"/>
<glyph unicode="Č" horiz-adv-x="1497" d="M842 -23q-396 0 -577 200t-181 583q0 201 51 348t149.5 243.5t242 143.5t325.5 47q174 0 309 -50t240 -149l-150 -149q-77 72 -176.5 110.5t-224.5 38.5q-557 0 -557 -585q0 -289 133 -437.5t426 -148.5q82 0 144.5 12.5t110.5 34t85 49t72 60.5l147 -142 q-41 -41 -92 -78.5t-118.5 -66.5t-156 -46.5t-202.5 -17.5zM323 1941h195l229 -207l230 207h188l-313 -336h-215z"/>
<glyph unicode="č" horiz-adv-x="1165" d="M647 -20q-164 0 -271.5 43t-170 120.5t-88 186t-25.5 241.5q0 131 25.5 241t89 188.5t172 121.5t276.5 43q154 0 256.5 -48t167.5 -122l-145 -137q-41 41 -104.5 78t-174.5 37q-104 0 -174.5 -27.5t-111.5 -80t-58.5 -128t-17.5 -170.5q0 -96 16.5 -172t58.5 -128 t111.5 -80.5t175.5 -28.5q93 0 158.5 28.5t130.5 87.5l133 -127q-43 -41 -88 -71.5t-95 -52t-110.5 -32.5t-136.5 -11zM165 1591h195l229 -207l230 207h188l-313 -336h-215z"/>
<glyph unicode="Ď" horiz-adv-x="1559" d="M172 1518h508q217 0 368.5 -36t247 -122t138.5 -232.5t43 -367.5q0 -217 -46.5 -363.5t-145.5 -234.5t-255 -125t-373 -37h-485v1518zM668 190q172 0 287.5 30t185 97.5t98.5 176t29 266.5q0 160 -25.5 267.5t-91.5 173t-179.5 93t-289.5 27.5h-303v-1131h289zM354 1941 h195l229 -207l230 207h188l-313 -336h-215z"/>
<glyph unicode="ď" horiz-adv-x="1581" d="M1346 1212q69 37 92.5 66t23.5 84h-100v227h213v-168q0 -63 -7 -108t-26.5 -78t-54.5 -59.5t-92 -53.5zM582 -20q-144 0 -238 44t-150.5 122.5t-79 188t-22.5 240.5q0 130 23.5 238.5t80 186t151.5 120.5t241 43q178 0 272 -33.5t135 -103.5v563h201v-1581l-154 -14 l-22 133q-53 -76 -154.5 -111.5t-283.5 -35.5zM625 162q100 0 170.5 22.5t114.5 71.5t64.5 128t20.5 191q0 113 -19.5 190t-63.5 124t-114.5 67.5t-172.5 20.5q-99 0 -162.5 -27.5t-101 -80t-52 -127t-14.5 -167.5q0 -94 14.5 -170.5t52 -130t101 -83t162.5 -29.5z"/>
<glyph unicode="Đ" horiz-adv-x="1559" d="M0 866h172v652h508q217 0 368.5 -36t247 -122t138.5 -232.5t43 -367.5q0 -217 -48.5 -363.5t-148.5 -234.5t-255 -125t-368 -37h-485v694h-172v172zM668 190q172 0 287.5 30t185 97.5t98.5 176t29 266.5q0 160 -25.5 267.5t-91.5 173t-179.5 93t-289.5 27.5h-303v-455 h328v-172h-328v-504h289z"/>
<glyph unicode="đ" horiz-adv-x="1343" d="M684 1434h659v-174h-659v174zM582 -20q-144 0 -238 44t-150.5 122.5t-79 188t-22.5 240.5q0 130 23.5 238.5t80 186t151.5 120.5t241 43q178 0 272 -33.5t135 -103.5v563h201v-1581l-154 -14l-22 133q-53 -76 -154.5 -111.5t-283.5 -35.5zM625 162q100 0 170.5 22.5 t114.5 71.5t64.5 128t20.5 191q0 113 -19.5 190t-63.5 124t-114.5 67.5t-172.5 20.5q-99 0 -162.5 -27.5t-101 -80t-52 -127t-14.5 -167.5q0 -94 14.5 -170.5t52 -130t101 -83t162.5 -29.5z"/>
<glyph unicode="Ē" horiz-adv-x="1335" d="M172 1518h1038v-199h-831v-436h811v-197h-811v-496h840v-190h-1047v1518zM278 1763h770v-170h-770v170z"/>
<glyph unicode="ē" horiz-adv-x="1229" d="M651 -23q-176 0 -284.5 46.5t-170 127t-83 189.5t-21.5 231q0 123 22.5 231.5t84 188.5t170 127t278.5 47q176 0 273.5 -56t144.5 -149.5t55 -215.5q6 -97 6 -199v-51h-841q3 -51 11 -96q13 -76 53 -131.5t111.5 -86t190.5 -30.5q137 0 217 31.5t146 80.5l106 -139 q-90 -72 -198.5 -109t-270.5 -37zM938 670q-4 67 -13.5 125.5t-38 101.5t-87 67.5t-158.5 24.5q-115 0 -184.5 -30.5t-108.5 -87t-52 -134.5q-6 -32 -9 -67h651zM225 1413h770v-170h-770v170z"/>
<glyph unicode="Ĕ" horiz-adv-x="1335" d="M172 1518h1038v-199h-831v-436h811v-197h-811v-496h840v-190h-1047v1518zM665 1583q-104 0 -174 25.5t-115 70.5t-69.5 105.5t-38.5 130.5l147 30q11 -45 26 -81.5t44 -62.5t72 -40t108 -14q64 0 108 14t71.5 40t44 62.5t26.5 81.5l150 -28q-17 -72 -41.5 -132.5 t-69.5 -105.5t-114.5 -70.5t-174.5 -25.5z"/>
<glyph unicode="ĕ" horiz-adv-x="1229" d="M651 -23q-176 0 -284.5 46.5t-170 127t-83 189.5t-21.5 231q0 123 22.5 231.5t84 188.5t170 127t278.5 47q176 0 273.5 -56t144.5 -149.5t55 -215.5q6 -97 6 -199v-51h-841q3 -51 11 -96q13 -76 53 -131.5t111.5 -86t190.5 -30.5q137 0 217 31.5t146 80.5l106 -139 q-90 -72 -198.5 -109t-270.5 -37zM938 670q-4 67 -13.5 125.5t-38 101.5t-87 67.5t-158.5 24.5q-115 0 -184.5 -30.5t-108.5 -87t-52 -134.5q-6 -32 -9 -67h651zM612 1233q-104 0 -174 25.5t-115 70.5t-69.5 105.5t-38.5 130.5l147 30q11 -45 26 -81.5t44 -62.5t72 -40 t108 -14q64 0 108 14t71.5 40t44 62.5t26.5 81.5l150 -28q-17 -72 -41.5 -132.5t-69.5 -105.5t-114.5 -70.5t-174.5 -25.5z"/>
<glyph unicode="Ė" horiz-adv-x="1335" d="M172 1518h1038v-199h-831v-436h811v-197h-811v-496h840v-190h-1047v1518zM563 1841h201v-238h-201v238z"/>
<glyph unicode="ė" horiz-adv-x="1229" d="M651 -23q-176 0 -284.5 46.5t-170 127t-83 189.5t-21.5 231q0 123 22.5 231.5t84 188.5t170 127t278.5 47q176 0 273.5 -56t144.5 -149.5t55 -215.5q6 -97 6 -199v-51h-841q3 -51 11 -96q13 -76 53 -131.5t111.5 -86t190.5 -30.5q137 0 217 31.5t146 80.5l106 -139 q-90 -72 -198.5 -109t-270.5 -37zM938 670q-4 67 -13.5 125.5t-38 101.5t-87 67.5t-158.5 24.5q-115 0 -184.5 -30.5t-108.5 -87t-52 -134.5q-6 -32 -9 -67h651zM510 1491h201v-238h-201v238z"/>
<glyph unicode="Ę" horiz-adv-x="1335" d="M172 1518h1038v-199h-831v-436h811v-197h-811v-496h840v-190h-166q-90 -55 -135.5 -113.5t-45.5 -105.5q0 -21 4.5 -38t18.5 -30.5t38.5 -20.5t65.5 -7q50 0 99 11t78 25l49 -120q-47 -25 -114 -40.5t-136 -15.5q-80 0 -131 15.5t-82 42t-42 64.5t-11 81t15 81t37.5 70.5 t51.5 57.5t57 43h-698v1518z"/>
<glyph unicode="ę" horiz-adv-x="1229" d="M651 -23q-176 0 -284.5 46.5t-170 127t-83 189.5t-21.5 231q0 123 22.5 231.5t84 188.5t170 127t278.5 47q176 0 273.5 -56t144.5 -149.5t55 -215t6 -250.5h-841q4 -78 22.5 -141.5t59.5 -108.5t109.5 -69.5t174.5 -24.5q137 0 217 31.5t146 80.5l106 -139 q-47 -35 -95 -62.5t-103 -46.5q-105 -57 -156 -119.5t-51 -113.5q0 -21 4 -38t18.5 -30.5t39 -20.5t65.5 -7q49 0 98 11t78 25l49 -120q-47 -25 -113.5 -40.5t-136.5 -15.5q-80 0 -131 15.5t-82 42t-42 64.5t-11 81q0 74 41 132.5t90 96.5h-31zM641 989q-98 0 -162.5 -22.5 t-105.5 -64.5t-60.5 -101.5t-25.5 -130.5h651q-4 67 -13.5 125.5t-38 101.5t-87 67.5t-158.5 24.5z"/>
<glyph unicode="Ě" horiz-adv-x="1335" d="M172 1518h1038v-199h-831v-436h811v-197h-811v-496h840v-190h-1047v1518zM241 1941h195l229 -207l230 207h188l-313 -336h-215z"/>
<glyph unicode="ě" horiz-adv-x="1229" d="M651 -23q-176 0 -284.5 46.5t-170 127t-83 189.5t-21.5 231q0 123 22.5 231.5t84 188.5t170 127t278.5 47q176 0 273.5 -56t144.5 -149.5t55 -215.5q6 -97 6 -199v-51h-841q3 -51 11 -96q13 -76 53 -131.5t111.5 -86t190.5 -30.5q137 0 217 31.5t146 80.5l106 -139 q-90 -72 -198.5 -109t-270.5 -37zM938 670q-4 67 -13.5 125.5t-38 101.5t-87 67.5t-158.5 24.5q-115 0 -184.5 -30.5t-108.5 -87t-52 -134.5q-6 -32 -9 -67h651zM188 1591h195l229 -207l230 207h188l-313 -336h-215z"/>
<glyph unicode="Ĝ" horiz-adv-x="1604" d="M840 -23q-209 0 -353.5 50.5t-233.5 148.5t-129 244.5t-40 339.5q0 205 50 353.5t148.5 243.5t241 140t326.5 45q111 0 199 -16.5t157.5 -43t121.5 -62.5t91 -74l-147 -152q-35 31 -75 58.5t-91 47t-113.5 31.5t-142.5 12q-287 0 -423 -143t-136 -442q0 -152 28.5 -263.5 t95 -185t173 -110.5t260.5 -37q141 0 231 28.5t142.5 85t73 141.5t20.5 197v43h-490v185h695v-191q0 -157 -28 -281t-103.5 -212t-207.5 -134.5t-341 -46.5zM695 1941h215l313 -336h-193l-231 207l-227 -207h-191z"/>
<glyph unicode="ĝ" horiz-adv-x="1251" d="M604 416q-105 0 -187 15l-13 -19q-15 -23 -15 -52q0 -24 10.5 -39.5t36 -23.5t69.5 -11t111 -3q160 0 266.5 -14.5t171 -50.5t92.5 -93t28 -143q0 -93 -31 -158.5t-100.5 -107.5t-179 -62.5t-265.5 -20.5q-143 0 -245.5 12.5t-169 43t-97.5 86t-31 141.5q0 49 10.5 93 t35 81t66.5 64.5t105 40.5q-63 43 -63 137q0 59 25 112q12 24 26 44q-12 8 -24 17q-115 89 -115 277q0 193 113.5 288t369.5 95q36 0 72 -2l450 64v-164h-183q60 -33 96 -83q51 -69 51 -198q0 -190 -116 -278t-370 -88zM604 -209q113 0 184.5 11.5t112.5 35t56.5 57 t15.5 76.5q0 45 -18.5 73t-61.5 43t-113.5 21.5t-175.5 6.5q-117 0 -185.5 -12.5t-104 -35t-47 -53t-11.5 -65.5q0 -45 19.5 -76t61.5 -49.5t107.5 -25.5t159.5 -7zM604 580q158 0 223.5 48t65.5 154q0 111 -70.5 157t-218.5 46q-160 0 -225.5 -46t-65.5 -157 q0 -106 65.5 -154t225.5 -48zM506 1618h215l313 -336h-193l-231 207l-227 -207h-191z"/>
<glyph unicode="Ğ" horiz-adv-x="1604" d="M840 -23q-209 0 -353.5 50.5t-233.5 148.5t-129 244.5t-40 339.5q0 205 50 353.5t148.5 243.5t241 140t326.5 45q111 0 199 -16.5t157.5 -43t121.5 -62.5t91 -74l-147 -152q-35 31 -75 58.5t-91 47t-113.5 31.5t-142.5 12q-287 0 -423 -143t-136 -442q0 -152 28.5 -263.5 t95 -185t173 -110.5t260.5 -37q141 0 231 28.5t142.5 85t73 141.5t20.5 197v43h-490v185h695v-191q0 -157 -28 -281t-103.5 -212t-207.5 -134.5t-341 -46.5zM799 1583q-104 0 -174 25.5t-115 70.5t-69.5 105.5t-38.5 130.5l147 30q11 -45 26 -81.5t44 -62.5t72 -40t108 -14 q64 0 108 14t71.5 40t44 62.5t26.5 81.5l150 -28q-17 -72 -41.5 -132.5t-69.5 -105.5t-114.5 -70.5t-174.5 -25.5z"/>
<glyph unicode="ğ" horiz-adv-x="1251" d="M604 416q-105 0 -187 15l-13 -19q-15 -23 -15 -52q0 -24 10.5 -39.5t36 -23.5t69.5 -11t111 -3q160 0 266.5 -14.5t171 -50.5t92.5 -93t28 -143q0 -93 -31 -158.5t-100.5 -107.5t-179 -62.5t-265.5 -20.5q-143 0 -245.5 12.5t-169 43t-97.5 86t-31 141.5q0 49 10.5 93 t35 81t66.5 64.5t105 40.5q-63 43 -63 137q0 59 25 112q12 24 26 44q-12 8 -24 17q-115 89 -115 277q0 193 113.5 288t369.5 95q36 0 72 -2l450 64v-164h-183q60 -33 96 -83q51 -69 51 -198q0 -190 -116 -278t-370 -88zM604 -209q113 0 184.5 11.5t112.5 35t56.5 57 t15.5 76.5q0 45 -18.5 73t-61.5 43t-113.5 21.5t-175.5 6.5q-117 0 -185.5 -12.5t-104 -35t-47 -53t-11.5 -65.5q0 -45 19.5 -76t61.5 -49.5t107.5 -25.5t159.5 -7zM604 580q158 0 223.5 48t65.5 154q0 111 -70.5 157t-218.5 46q-160 0 -225.5 -46t-65.5 -157 q0 -106 65.5 -154t225.5 -48zM622 1233q-104 0 -174 25.5t-115 70.5t-69.5 105.5t-38.5 130.5l147 30q11 -45 26 -81.5t44 -62.5t72 -40t108 -14q64 0 108 14t71.5 40t44 62.5t26.5 81.5l150 -28q-17 -72 -41.5 -132.5t-69.5 -105.5t-114.5 -70.5t-174.5 -25.5z"/>
<glyph unicode="Ġ" horiz-adv-x="1604" d="M840 -23q-209 0 -353.5 50.5t-233.5 148.5t-129 244.5t-40 339.5q0 205 50 353.5t148.5 243.5t241 140t326.5 45q111 0 199 -16.5t157.5 -43t121.5 -62.5t91 -74l-147 -152q-35 31 -75 58.5t-91 47t-113.5 31.5t-142.5 12q-287 0 -423 -143t-136 -442q0 -152 28.5 -263.5 t95 -185t173 -110.5t260.5 -37q141 0 231 28.5t142.5 85t73 141.5t20.5 197v43h-490v185h695v-191q0 -157 -28 -281t-103.5 -212t-207.5 -134.5t-341 -46.5zM705 1841h201v-238h-201v238z"/>
<glyph unicode="ġ" horiz-adv-x="1251" d="M604 416q-105 0 -187 15l-13 -19q-15 -23 -15 -52q0 -24 10.5 -39.5t36 -23.5t69.5 -11t111 -3q160 0 266.5 -14.5t171 -50.5t92.5 -93t28 -143q0 -93 -31 -158.5t-100.5 -107.5t-179 -62.5t-265.5 -20.5q-143 0 -245.5 12.5t-169 43t-97.5 86t-31 141.5q0 49 10.5 93 t35 81t66.5 64.5t105 40.5q-63 43 -63 137q0 59 25 112q12 24 26 44q-12 8 -24 17q-115 89 -115 277q0 193 113.5 288t369.5 95q36 0 72 -2l450 64v-164h-183q60 -33 96 -83q51 -69 51 -198q0 -190 -116 -278t-370 -88zM604 -209q113 0 184.5 11.5t112.5 35t56.5 57 t15.5 76.5q0 45 -18.5 73t-61.5 43t-113.5 21.5t-175.5 6.5q-117 0 -185.5 -12.5t-104 -35t-47 -53t-11.5 -65.5q0 -45 19.5 -76t61.5 -49.5t107.5 -25.5t159.5 -7zM604 580q158 0 223.5 48t65.5 154q0 111 -70.5 157t-218.5 46q-160 0 -225.5 -46t-65.5 -157 q0 -106 65.5 -154t225.5 -48zM524 1491h201v-238h-201v238z"/>
<glyph unicode="Ģ" horiz-adv-x="1604" d="M840 -23q-209 0 -353.5 50.5t-233.5 148.5t-129 244.5t-40 339.5q0 205 50 353.5t148.5 243.5t241 140t326.5 45q111 0 199 -16.5t157.5 -43t121.5 -62.5t91 -74l-147 -152q-35 31 -75 58.5t-91 47t-113.5 31.5t-142.5 12q-287 0 -423 -143t-136 -442q0 -152 28.5 -263.5 t95 -185t173 -110.5t260.5 -37q141 0 231 28.5t142.5 85t73 141.5t20.5 197v43h-490v185h695v-191q0 -157 -28 -281t-103.5 -212t-207.5 -134.5t-341 -46.5zM682 -457q70 35 92.5 65t22.5 85h-109v227h224v-170q0 -63 -7.5 -107t-27 -77t-55 -59.5t-91.5 -53.5z"/>
<glyph unicode="ģ" horiz-adv-x="1251" d="M604 416q-105 0 -187 15l-13 -19q-15 -23 -15 -52q0 -24 10.5 -39.5t36 -23.5t69.5 -11t111 -3q160 0 266.5 -14.5t171 -50.5t92.5 -93t28 -143q0 -93 -31 -158.5t-100.5 -107.5t-179 -62.5t-265.5 -20.5q-143 0 -245.5 12.5t-169 43t-97.5 86t-31 141.5q0 49 10.5 93 t35 81t66.5 64.5t105 40.5q-63 43 -63 137q0 59 25 112q12 24 26 44q-12 8 -24 17q-115 89 -115 277q0 193 113.5 288t369.5 95q36 0 72 -2l450 64v-164h-183q60 -33 96 -83q51 -69 51 -198q0 -190 -116 -278t-370 -88zM604 -209q113 0 184.5 11.5t112.5 35t56.5 57 t15.5 76.5q0 45 -18.5 73t-61.5 43t-113.5 21.5t-175.5 6.5q-117 0 -185.5 -12.5t-104 -35t-47 -53t-11.5 -65.5q0 -45 19.5 -76t61.5 -49.5t107.5 -25.5t159.5 -7zM604 580q158 0 223.5 48t65.5 154q0 111 -70.5 157t-218.5 46q-160 0 -225.5 -46t-65.5 -157 q0 -106 65.5 -154t225.5 -48zM512 1405q0 63 7.5 108.5t27 78t55 59t93.5 53.5l47 -90q-35 -19 -57.5 -33t-35 -31.5t-17.5 -38t-5 -49.5h109v-209h-224v152z"/>
<glyph unicode="Ĥ" horiz-adv-x="1612" d="M172 1518h207v-627h854v627h207v-1518h-207v686h-854v-686h-207v1518zM695 1941h215l313 -336h-193l-231 207l-227 -207h-191z"/>
<glyph unicode="ĥ" horiz-adv-x="1294" d="M147 1589h199v-549q16 25 46 47.5t78 40t114.5 27.5t156.5 10q136 0 216.5 -33.5t123.5 -96t56.5 -149.5t13.5 -192v-694h-199v655q0 70 -6 127.5t-33.5 98.5t-83 64.5t-151.5 23.5q-105 0 -170.5 -25.5t-100 -70t-47 -106.5t-12.5 -136v-631h-201v1589zM143 1958h215 l313 -336h-193l-231 207l-227 -207h-191z"/>
<glyph unicode="Ħ" horiz-adv-x="1612" d="M45 1274h1520v-160h-1520v160zM172 1518h207v-627h854v627h207v-1518h-207v686h-854v-686h-207v1518z"/>
<glyph unicode="ħ" horiz-adv-x="1294" d="M659 1282h-659v139h659v-139zM147 1589h199v-549q16 25 46 47.5t78 40t114.5 27.5t156.5 10q136 0 216.5 -33.5t123.5 -96t56.5 -149.5t13.5 -192v-694h-199v655q0 70 -6 127.5t-33.5 98.5t-83 64.5t-151.5 23.5q-105 0 -170.5 -25.5t-100 -70t-47 -106.5t-12.5 -136 v-631h-201v1589z"/>
<glyph unicode="Ĩ" horiz-adv-x="582" d="M188 1518h205v-1518h-205v1518zM-126 1706q60 74 131.5 122t143.5 48q53 0 90 -16q37 -18 67 -36l61 -34q30 -16 66 -17q39 0 80 32t84 81l117 -94q-59 -76 -131 -130.5t-145 -54.5q-48 0 -84.5 16.5t-69.5 34.5l-64 36q-30 16 -67 16q-35 0 -76 -25.5t-80 -74.5z"/>
<glyph unicode="ĩ" horiz-adv-x="516" d="M160 1139h196v-1139h-196v1139zM-159 1356q60 74 131.5 122t143.5 48q53 0 90 -16q37 -18 67 -36l61 -34q30 -16 66 -17q39 0 80 32t84 81l117 -94q-59 -76 -131 -130.5t-145 -54.5q-48 0 -84.5 16.5t-69.5 34.5l-64 36q-30 16 -67 16q-35 0 -76 -25.5t-80 -74.5z"/>
<glyph unicode="Ī" horiz-adv-x="582" d="M188 1518h205v-1518h-205v1518zM-89 1763h770v-170h-770v170z"/>
<glyph unicode="ī" horiz-adv-x="516" d="M160 1139h196v-1139h-196v1139zM-122 1413h770v-170h-770v170z"/>
<glyph unicode="Ĭ" horiz-adv-x="582" d="M188 1518h205v-1518h-205v1518zM296 1583q-104 0 -174 25.5t-115 70.5t-69.5 105.5t-38.5 130.5l147 30q11 -45 26 -81.5t44 -62.5t72 -40t108 -14q64 0 108 14t71.5 40t44 62.5t26.5 81.5l150 -28q-17 -72 -41.5 -132.5t-69.5 -105.5t-114.5 -70.5t-174.5 -25.5z"/>
<glyph unicode="ĭ" horiz-adv-x="516" d="M160 1139h196v-1139h-196v1139zM263 1233q-104 0 -174 25.5t-115 70.5t-69.5 105.5t-38.5 130.5l147 30q11 -45 26 -81.5t44 -62.5t72 -40t108 -14q64 0 108 14t71.5 40t44 62.5t26.5 81.5l150 -28q-17 -72 -41.5 -132.5t-69.5 -105.5t-114.5 -70.5t-174.5 -25.5z"/>
<glyph unicode="Į" horiz-adv-x="582" d="M291 -455q-76 0 -126 15.5t-80 43t-42 65.5t-12 81q0 90 47 156.5t110 105.5v1506h205v-1518q-102 -59 -149 -113.5t-47 -105.5q0 -19 4 -36t17 -30.5t37 -21.5t62 -8q48 0 87.5 9t68.5 19l49 -121q-41 -20 -101.5 -33.5t-129.5 -13.5z"/>
<glyph unicode="į" horiz-adv-x="516" d="M254 -455q-76 0 -126 15.5t-80 43t-42 65.5t-12 81q0 92 50 157.5t116 104.5v1127h196v-1139q-102 -59 -149 -113.5t-47 -105.5q0 -19 4 -36t17.5 -30.5t37 -21.5t62.5 -8q47 0 87 9t68 19l49 -121q-43 -20 -102 -33.5t-129 -13.5zM158 1518h200v-242h-200v242z"/>
<glyph unicode="İ" horiz-adv-x="582" d="M188 1518h205v-1518h-205v1518zM196 1841h201v-238h-201v238z"/>
<glyph unicode="ı" horiz-adv-x="516" d="M160 1139h196v-1139h-196v1139z"/>
<glyph unicode="Ĳ" horiz-adv-x="1430" d="M809 -2h-96q-18 0 -35.5 1t-40.5 1v190h150q151 0 212.5 61.5t61.5 199.5v1067h205v-1076q0 -125 -29.5 -210t-88 -137t-143.5 -74.5t-196 -22.5zM188 1518h205v-1518h-205v1518z"/>
<glyph unicode="ĳ" horiz-adv-x="1034" d="M518 -180h16q46 0 73.5 8t42 27.5t19.5 51.5t5 81v1151h196v-1149q0 -96 -13 -161t-48 -102.5t-96.5 -54t-157.5 -16.5h-37v164zM672 1518h200v-242h-200v242zM160 1139h196v-1139h-196v1139zM158 1518h200v-242h-200v242z"/>
<glyph unicode="Ĵ" horiz-adv-x="848" d="M229 -2h-96q-18 0 -35.5 1t-40.5 1v190h150q151 0 212.5 61.5t61.5 199.5v1067h205v-1076q0 -125 -29.5 -210t-88 -137t-143.5 -74.5t-196 -22.5zM479 1941h215l313 -336h-193l-231 207l-227 -207h-191z"/>
<glyph unicode="ĵ" horiz-adv-x="516" d="M4 -186h16q46 0 73.5 8t42 26.5t19.5 51t5 82.5v1155h196v-1153q0 -95 -13 -157.5t-48 -100t-96.5 -54t-157.5 -16.5h-37v158zM154 1591h215l313 -336h-193l-231 207l-227 -207h-191z"/>
<glyph unicode="Ķ" horiz-adv-x="1473" d="M172 1518h203v-797l715 797h237l-536 -598l610 -920h-236l-510 768l-280 -313v-455h-203v1518zM616 -457q70 35 92.5 65t22.5 85h-109v227h224v-170q0 -63 -7.5 -107t-27 -77t-55 -59.5t-91.5 -53.5z"/>
<glyph unicode="ķ" horiz-adv-x="1143" d="M147 1589h197v-1035l504 585h221l-404 -473l445 -666h-221l-356 521l-189 -215v-306h-197v1589zM450 -457q70 35 92.5 65t22.5 85h-109v227h224v-170q0 -63 -7.5 -107t-27 -77t-55 -59.5t-91.5 -53.5z"/>
<glyph unicode="ĸ" horiz-adv-x="1143" d="M147 1139h197v-585l504 585h221l-404 -473l445 -666h-221l-356 521l-189 -215v-306h-197v1139z"/>
<glyph unicode="Ĺ" horiz-adv-x="1219" d="M172 1518h207v-1328h790v-190h-997v1518zM492 1941h244l-363 -336h-184z"/>
<glyph unicode="ĺ" horiz-adv-x="625" d="M416 -2q-72 0 -121 15.5t-79 51t-43 92t-13 138.5v1294h196v-1272q0 -41 4.5 -67.5t17.5 -43t38.5 -23.5t66.5 -7h45v-174q-14 -2 -44.5 -3t-67.5 -1zM466 1997h244l-363 -336h-184z"/>
<glyph unicode="Ļ" horiz-adv-x="1219" d="M172 1518h207v-1328h790v-190h-997v1518zM487 -457q70 35 92.5 65t22.5 85h-109v227h224v-170q0 -63 -7.5 -107t-27 -77t-55 -59.5t-91.5 -53.5z"/>
<glyph unicode="ļ" horiz-adv-x="625" d="M416 -2q-72 0 -121 15.5t-79 51t-43 92t-13 138.5v1294h196v-1272q0 -41 4.5 -67.5t17.5 -43t38.5 -23.5t66.5 -7h45v-174q-14 -2 -44.5 -3t-67.5 -1zM192 -457q70 35 92.5 65t22.5 85h-109v227h224v-170q0 -63 -7.5 -107t-27 -77t-55 -59.5t-91.5 -53.5z"/>
<glyph unicode="Ľ" horiz-adv-x="1219" d="M569 1212q70 37 92.5 66t22.5 84h-100v227h213v-168q0 -63 -7.5 -108t-27 -78t-54 -59.5t-92.5 -53.5zM172 1518h207v-1328h790v-190h-997v1518z"/>
<glyph unicode="ľ" horiz-adv-x="754" d="M518 1212q70 37 92.5 66t22.5 84h-101v227h213v-168q0 -63 -7 -108t-26.5 -78t-54 -59.5t-92.5 -53.5zM416 -2q-72 0 -121 15.5t-79 51t-43 92t-13 138.5v1294h196v-1272q0 -41 4.5 -67.5t17.5 -43t38.5 -23.5t66.5 -7h45v-174q-14 -2 -44.5 -3t-67.5 -1z"/>
<glyph unicode="Ŀ" horiz-adv-x="1313" d="M172 1518h207v-1328h790v-190h-997v1518zM811 916h250v-275h-250v275z"/>
<glyph unicode="ŀ" horiz-adv-x="1067" d="M416 -2q-72 0 -121 15.5t-79 51t-43 92t-13 138.5v1294h196v-1272q0 -41 4.5 -67.5t17.5 -43t38.5 -23.5t66.5 -7h45v-174q-14 -2 -44.5 -3t-67.5 -1zM668 836h250v-275h-250v275z"/>
<glyph unicode="Ł" horiz-adv-x="1219" d="M0 776l172 96v646h207v-531l326 182v-178l-326 -182v-619h790v-190h-997v694l-172 -96v178z"/>
<glyph unicode="ł" horiz-adv-x="752" d="M47 932l197 114v543h200v-427l218 126v-172l-218 -126v-679q0 -41 4.5 -68.5t16.5 -44t36.5 -23.5t65.5 -7h47v-166q-14 -2 -43.5 -3t-68.5 -1q-144 0 -201 66.5t-57 226.5v584l-197 -113v170z"/>
<glyph unicode="Ń" horiz-adv-x="1620" d="M172 1518h225l850 -1170v1170h201v-1518h-191l-884 1214v-1214h-201v1518zM936 1941h244l-363 -336h-184z"/>
<glyph unicode="ń" horiz-adv-x="1294" d="M147 1128l158 11l17 -109q20 27 52 51.5t81 43t119.5 29.5t166.5 11q136 0 216.5 -33.5t123.5 -96t56.5 -149.5t13.5 -192v-694h-199v655q0 70 -6 127.5t-33.5 98.5t-83 64.5t-151.5 23.5q-105 0 -170.5 -25.5t-100 -70t-47 -106.5t-12.5 -136v-631h-201v1128zM774 1591 h244l-363 -336h-184z"/>
<glyph unicode="Ņ" horiz-adv-x="1620" d="M172 1518h225l850 -1170v1170h201v-1518h-191l-884 1214v-1214h-201v1518zM688 -457q70 35 92.5 65t22.5 85h-109v227h224v-170q0 -63 -7.5 -107t-27 -77t-55 -59.5t-91.5 -53.5z"/>
<glyph unicode="ņ" horiz-adv-x="1294" d="M147 1128l158 11l17 -109q20 27 52 51.5t81 43t119.5 29.5t166.5 11q136 0 216.5 -33.5t123.5 -96t56.5 -149.5t13.5 -192v-694h-199v655q0 70 -6 127.5t-33.5 98.5t-83 64.5t-151.5 23.5q-105 0 -170.5 -25.5t-100 -70t-47 -106.5t-12.5 -136v-631h-201v1128zM524 -457 q70 35 92.5 65t22.5 85h-109v227h224v-170q0 -63 -7.5 -107t-27 -77t-55 -59.5t-91.5 -53.5z"/>
<glyph unicode="Ň" horiz-adv-x="1620" d="M172 1518h225l850 -1170v1170h201v-1518h-191l-884 1214v-1214h-201v1518zM383 1941h195l229 -207l230 207h188l-313 -336h-215z"/>
<glyph unicode="ň" horiz-adv-x="1294" d="M147 1128l158 11l17 -109q20 27 52 51.5t81 43t119.5 29.5t166.5 11q136 0 216.5 -33.5t123.5 -96t56.5 -149.5t13.5 -192v-694h-199v655q0 70 -6 127.5t-33.5 98.5t-83 64.5t-151.5 23.5q-105 0 -170.5 -25.5t-100 -70t-47 -106.5t-12.5 -136v-631h-201v1128zM221 1591 h195l229 -207l230 207h188l-313 -336h-215z"/>
<glyph unicode="ŉ" horiz-adv-x="1763" d="M616 1128l158 11l17 -109q20 27 52 51.5t81 43t119.5 29.5t166.5 11q136 0 216.5 -33.5t123.5 -96t56.5 -149.5t13.5 -192v-694h-199v655q0 70 -6 127.5t-33.5 98.5t-83 64.5t-151.5 23.5q-105 0 -170.5 -25.5t-100 -70t-47 -106.5t-12.5 -136v-631h-201v1128zM129 1069 q39 21 63.5 38t39 35.5t19.5 42t5 56.5h-123v277h250v-203q0 -74 -8 -127t-29.5 -93t-60.5 -71t-103 -61z"/>
<glyph unicode="Ŋ" horiz-adv-x="1618" d="M172 1518h221l860 -1184v1184h191v-1444q0 -123 -30 -207t-88 -136.5t-142 -76t-195 -23.5q-49 0 -98 1t-72 3v177h150q135 0 197.5 51t74.5 160l-876 1206v-1229h-193v1518z"/>
<glyph unicode="ŋ" horiz-adv-x="1294" d="M799 -186h14q45 0 72.5 8t43 26.5t19.5 51t4 82.5v677q0 70 -6 128.5t-33.5 100.5t-83 65.5t-151.5 23.5q-105 0 -170.5 -25.5t-100 -71.5t-47 -109.5t-12.5 -137.5v-633h-201v1126l158 11l17 -156q20 37 52 69.5t81 57.5t119.5 40t166.5 15q136 0 216.5 -33.5t123.5 -95 t56.5 -148.5t13.5 -192v-723q0 -90 -14.5 -150.5t-49 -97t-97 -52t-156.5 -15.5h-35v158z"/>
<glyph unicode="Ō" horiz-adv-x="1718" d="M858 -25q-182 0 -325.5 45.5t-244 140.5t-152.5 243.5t-52 355.5q0 205 52 353.5t152.5 243.5t244 140t325.5 45t325.5 -45t244 -140t152.5 -243.5t52 -353.5q0 -207 -52 -355.5t-152.5 -243.5t-244 -140.5t-325.5 -45.5zM858 168q297 0 432 152.5t135 435.5 q0 282 -135 434.5t-432 152.5t-431 -152.5t-134 -434.5q0 -283 134 -435.5t431 -152.5zM471 1763h770v-170h-770v170z"/>
<glyph unicode="ō" horiz-adv-x="1309" d="M653 -23q-151 0 -257.5 38t-174 113t-98.5 186.5t-31 256.5q0 146 31 257.5t98.5 186.5t174 112.5t257.5 37.5q152 0 258.5 -37.5t174 -112.5t99.5 -186.5t32 -257.5q0 -145 -32 -256.5t-99.5 -186.5t-174 -113t-258.5 -38zM653 158q101 0 169.5 26.5t111.5 78.5 t61.5 129t18.5 175q0 197 -80 302.5t-281 105.5q-200 0 -280 -105.5t-80 -302.5q0 -98 18.5 -175t61.5 -129t111.5 -78.5t168.5 -26.5zM266 1413h770v-170h-770v170z"/>
<glyph unicode="Ŏ" horiz-adv-x="1718" d="M858 -25q-182 0 -325.5 45.5t-244 140.5t-152.5 243.5t-52 355.5q0 205 52 353.5t152.5 243.5t244 140t325.5 45t325.5 -45t244 -140t152.5 -243.5t52 -353.5q0 -207 -52 -355.5t-152.5 -243.5t-244 -140.5t-325.5 -45.5zM858 168q297 0 432 152.5t135 435.5 q0 282 -135 434.5t-432 152.5t-431 -152.5t-134 -434.5q0 -283 134 -435.5t431 -152.5zM856 1583q-104 0 -174 25.5t-115 70.5t-69.5 105.5t-38.5 130.5l147 30q11 -45 26 -81.5t44 -62.5t72 -40t108 -14q64 0 108 14t71.5 40t44 62.5t26.5 81.5l150 -28 q-17 -72 -41.5 -132.5t-69.5 -105.5t-114.5 -70.5t-174.5 -25.5z"/>
<glyph unicode="ŏ" horiz-adv-x="1309" d="M653 -23q-151 0 -257.5 38t-174 113t-98.5 186.5t-31 256.5q0 146 31 257.5t98.5 186.5t174 112.5t257.5 37.5q152 0 258.5 -37.5t174 -112.5t99.5 -186.5t32 -257.5q0 -145 -32 -256.5t-99.5 -186.5t-174 -113t-258.5 -38zM653 158q101 0 169.5 26.5t111.5 78.5 t61.5 129t18.5 175q0 197 -80 302.5t-281 105.5q-200 0 -280 -105.5t-80 -302.5q0 -98 18.5 -175t61.5 -129t111.5 -78.5t168.5 -26.5zM651 1233q-104 0 -174 25.5t-115 70.5t-69.5 105.5t-38.5 130.5l147 30q11 -45 26 -81.5t44 -62.5t72 -40t108 -14q64 0 108 14t71.5 40 t44 62.5t26.5 81.5l150 -28q-17 -72 -41.5 -132.5t-69.5 -105.5t-114.5 -70.5t-174.5 -25.5z"/>
<glyph unicode="Ő" horiz-adv-x="1718" d="M858 -25q-182 0 -325.5 45.5t-244 140.5t-152.5 243.5t-52 355.5q0 205 52 353.5t152.5 243.5t244 140t325.5 45t325.5 -45t244 -140t152.5 -243.5t52 -353.5q0 -207 -52 -355.5t-152.5 -243.5t-244 -140.5t-325.5 -45.5zM858 168q297 0 432 152.5t135 435.5 q0 282 -135 434.5t-432 152.5t-431 -152.5t-134 -434.5q0 -283 134 -435.5t431 -152.5zM707 1937h233l-319 -332h-172zM1194 1937h232l-316 -332h-174z"/>
<glyph unicode="ő" horiz-adv-x="1309" d="M653 -23q-151 0 -257.5 38t-174 113t-98.5 186.5t-31 256.5q0 146 31 257.5t98.5 186.5t174 112.5t257.5 37.5q152 0 258.5 -37.5t174 -112.5t99.5 -186.5t32 -257.5q0 -145 -32 -256.5t-99.5 -186.5t-174 -113t-258.5 -38zM653 158q101 0 169.5 26.5t111.5 78.5 t61.5 129t18.5 175q0 197 -80 302.5t-281 105.5q-200 0 -280 -105.5t-80 -302.5q0 -98 18.5 -175t61.5 -129t111.5 -78.5t168.5 -26.5zM502 1587h233l-319 -332h-172zM989 1587h232l-316 -332h-174z"/>
<glyph unicode="Œ" horiz-adv-x="2583" d="M1438 1518h1020v-199h-832v-440h811v-191h-811v-498h840v-190h-1028v202l-26 -31q-177 -196 -554 -196q-188 0 -332.5 45.5t-243 140.5t-148.5 243.5t-50 355.5q0 205 50 353.5t148.5 243.5t243 140t332.5 45q377 0 554 -195l26 -31v202zM858 168q154 0 261.5 39 t176 113.5t99 184t30.5 251.5q0 141 -30.5 250.5t-99 184.5t-176 113.5t-261.5 38.5q-153 0 -261 -38.5t-175.5 -113.5t-98 -184.5t-30.5 -250.5q0 -142 30.5 -251.5t98 -184t175.5 -113.5t261 -39z"/>
<glyph unicode="œ" horiz-adv-x="2150" d="M1573 -23q-178 0 -284.5 47.5t-163.5 129.5l-14 22q-15 -23 -32 -43q-63 -76 -167.5 -116t-258.5 -40q-153 0 -260.5 38t-174 113t-96.5 186.5t-30 256.5q0 146 30 257.5t96.5 186.5t174 112.5t260.5 37.5q154 0 258.5 -40t167.5 -116q18 -21 33 -45q7 12 15 24 q57 81 162.5 129t279.5 48q121 0 203.5 -25.5t136 -71.5t83 -108.5t43 -137t14.5 -158.5t-1 -170h-840q3 -51 11 -96q14 -76 53 -131.5t110.5 -86t190.5 -30.5q137 0 217 31.5t145 80.5l109 -139q-92 -72 -198.5 -109t-272.5 -37zM653 158q101 0 169.5 26.5t111.5 78.5 t61.5 129t18.5 175q0 197 -80 302.5t-281 105.5q-200 0 -280 -105.5t-80 -302.5q0 -98 18.5 -175t61.5 -129t111.5 -78.5t168.5 -26.5zM1860 668q-5 67 -14 125.5t-37.5 102.5t-87 68.5t-158.5 24.5q-115 0 -184.5 -30.5t-107.5 -87t-52 -134.5q-5 -33 -9 -69h650z"/>
<glyph unicode="Ŕ" horiz-adv-x="1499" d="M172 1518h676q143 0 244.5 -30t166 -88.5t93 -144.5t28.5 -196q0 -111 -29.5 -199t-94 -149.5t-167.5 -94.5q-35 -11 -75 -18l344 -598h-221l-339 584h-423v-584h-203v1518zM846 774q78 0 138 12.5t102 44t63.5 85t21.5 135.5t-21.5 135t-63.5 83.5t-103 43t-143 12.5 h-465v-551h471zM876 1941h244l-363 -336h-184z"/>
<glyph unicode="ŕ" horiz-adv-x="760" d="M147 1128l158 11l21 -140q34 62 133.5 106t251.5 48v-201q-103 0 -172.5 -26.5t-111.5 -72.5t-60.5 -110.5t-18.5 -142.5v-600h-201v1128zM529 1591h244l-363 -336h-184z"/>
<glyph unicode="Ŗ" horiz-adv-x="1499" d="M172 1518h676q143 0 244.5 -30t166 -88.5t93 -144.5t28.5 -196q0 -111 -29.5 -199t-94 -149.5t-167.5 -94.5q-35 -11 -75 -18l344 -598h-221l-339 584h-423v-584h-203v1518zM846 774q78 0 138 12.5t102 44t63.5 85t21.5 135.5t-21.5 135t-63.5 83.5t-103 43t-143 12.5 h-465v-551h471zM630 -457q70 35 92.5 65t22.5 85h-109v227h224v-170q0 -63 -7.5 -107t-27 -77t-55 -59.5t-91.5 -53.5z"/>
<glyph unicode="ŗ" horiz-adv-x="760" d="M147 1128l158 11l21 -140q34 62 133.5 106t251.5 48v-201q-103 0 -172.5 -26.5t-111.5 -72.5t-60.5 -110.5t-18.5 -142.5v-600h-201v1128zM134 -457q70 35 92.5 65t22.5 85h-109v227h224v-170q0 -63 -7.5 -107t-27 -77t-55 -59.5t-91.5 -53.5z"/>
<glyph unicode="Ř" horiz-adv-x="1499" d="M172 1518h676q143 0 244.5 -30t166 -88.5t93 -144.5t28.5 -196q0 -111 -29.5 -199t-94 -149.5t-167.5 -94.5q-35 -11 -75 -18l344 -598h-221l-339 584h-423v-584h-203v1518zM846 774q78 0 138 12.5t102 44t63.5 85t21.5 135.5t-21.5 135t-63.5 83.5t-103 43t-143 12.5 h-465v-551h471zM323 1941h195l229 -207l230 207h188l-313 -336h-215z"/>
<glyph unicode="ř" horiz-adv-x="743" d="M147 1128l158 11l21 -140q34 62 133.5 106t251.5 48v-201q-103 0 -172.5 -26.5t-111.5 -72.5t-60.5 -110.5t-18.5 -142.5v-600h-201v1128zM-46 1591h195l229 -207l230 207h188l-313 -336h-215z"/>
<glyph unicode="Ś" horiz-adv-x="1460" d="M727 -20q-186 0 -349 41.5t-304 138.5l104 159q133 -86 268.5 -121.5t274.5 -35.5q117 0 197.5 15.5t131 47t74 81.5t23.5 120t-30 114t-86 71.5t-135 44t-177 32.5q-131 21 -235.5 47.5t-178.5 72.5t-112.5 119.5t-38.5 192.5q0 230 141 326t428 96q192 0 326.5 -40 t226.5 -99l-113 -170q-78 53 -194.5 86t-245.5 33q-197 0 -281 -54.5t-84 -173.5q0 -65 28 -105t80 -66.5t129 -44t175 -34.5q127 -22 234.5 -46.5t184.5 -70.5t120 -122t43 -199q0 -229 -147.5 -342.5t-477.5 -113.5zM858 1941h244l-363 -336h-184z"/>
<glyph unicode="ś" horiz-adv-x="1098" d="M543 -20q-123 0 -249 27.5t-243 105.5l103 155q98 -63 203.5 -88.5t197.5 -25.5q145 0 209.5 32.5t64.5 135.5q0 40 -14 66t-47 44.5t-85 30.5t-128 24q-100 19 -183 39.5t-141.5 57.5t-90 97t-31.5 159q0 155 101 240t345 85q133 0 242.5 -26.5t191.5 -73.5l-94 -164 q-66 35 -151 57.5t-185 22.5q-74 0 -123 -9t-77.5 -27.5t-40 -45.5t-11.5 -59q0 -41 13.5 -66.5t44 -44t80 -31t118.5 -24.5q105 -19 190 -39.5t145 -56t92 -94t32 -154.5q0 -99 -27.5 -165.5t-86 -107.5t-149.5 -59t-216 -18zM681 1591h244l-363 -336h-184z"/>
<glyph unicode="Ŝ" horiz-adv-x="1460" d="M727 -20q-186 0 -349 41.5t-304 138.5l104 159q133 -86 268.5 -121.5t274.5 -35.5q117 0 197.5 15.5t131 47t74 81.5t23.5 120t-30 114t-86 71.5t-135 44t-177 32.5q-131 21 -235.5 47.5t-178.5 72.5t-112.5 119.5t-38.5 192.5q0 230 141 326t428 96q192 0 326.5 -40 t226.5 -99l-113 -170q-78 53 -194.5 86t-245.5 33q-197 0 -281 -54.5t-84 -173.5q0 -65 28 -105t80 -66.5t129 -44t175 -34.5q127 -22 234.5 -46.5t184.5 -70.5t120 -122t43 -199q0 -229 -147.5 -342.5t-477.5 -113.5zM594 1941h215l313 -336h-193l-231 207l-227 -207h-191z "/>
<glyph unicode="ŝ" horiz-adv-x="1098" d="M543 -20q-123 0 -249 27.5t-243 105.5l103 155q98 -63 203.5 -88.5t197.5 -25.5q145 0 209.5 32.5t64.5 135.5q0 40 -14 66t-47 44.5t-85 30.5t-128 24q-100 19 -183 39.5t-141.5 57.5t-90 97t-31.5 159q0 155 101 240t345 85q133 0 242.5 -26.5t191.5 -73.5l-94 -164 q-66 35 -151 57.5t-185 22.5q-74 0 -123 -9t-77.5 -27.5t-40 -45.5t-11.5 -59q0 -41 13.5 -66.5t44 -44t80 -31t118.5 -24.5q105 -19 190 -39.5t145 -56t92 -94t32 -154.5q0 -99 -27.5 -165.5t-86 -107.5t-149.5 -59t-216 -18zM436 1591h215l313 -336h-193l-231 207 l-227 -207h-191z"/>
<glyph unicode="Ş" horiz-adv-x="1460" d="M727 -20q-186 0 -349 41.5t-304 138.5l104 159q133 -86 268.5 -121.5t274.5 -35.5q117 0 197.5 15.5t131 47t74 81.5t23.5 120t-30 114t-86 71.5t-135 44t-177 32.5q-131 21 -235.5 47.5t-178.5 72.5t-112.5 119.5t-38.5 192.5q0 230 141 326t428 96q192 0 326.5 -40 t226.5 -99l-113 -170q-78 53 -194.5 86t-245.5 33q-197 0 -281 -54.5t-84 -173.5q0 -65 28 -105t80 -66.5t129 -44t175 -34.5q127 -22 234.5 -46.5t184.5 -70.5t120 -122t43 -199q0 -229 -147.5 -342.5t-477.5 -113.5zM739 -475q-77 0 -137.5 16.5t-109.5 44.5l55 105 q41 -23 88 -35t96 -12q94 0 124 28.5t30 71.5q0 55 -42 73.5t-147 12.5l-49 35l29 149h121l-19 -104q47 2 91.5 -2t78 -22.5t54 -54.5t20.5 -99q0 -101 -65.5 -154t-217.5 -53z"/>
<glyph unicode="ş" horiz-adv-x="1098" d="M543 -20q-123 0 -249 27.5t-243 105.5l103 155q98 -63 203.5 -88.5t197.5 -25.5q145 0 209.5 32.5t64.5 135.5q0 40 -14 66t-47 44.5t-85 30.5t-128 24q-100 19 -183 39.5t-141.5 57.5t-90 97t-31.5 159q0 155 101 240t345 85q133 0 242.5 -26.5t191.5 -73.5l-94 -164 q-66 35 -151 57.5t-185 22.5q-74 0 -123 -9t-77.5 -27.5t-40 -45.5t-11.5 -59q0 -41 13.5 -66.5t44 -44t80 -31t118.5 -24.5q105 -19 190 -39.5t145 -56t92 -94t32 -154.5q0 -99 -27.5 -165.5t-86 -107.5t-149.5 -59t-216 -18zM562 -475q-77 0 -137.5 16.5t-109.5 44.5 l55 105q41 -23 88 -35t96 -12q94 0 124 28.5t30 71.5q0 55 -42 73.5t-147 12.5l-49 35l29 149h121l-19 -104q47 2 91.5 -2t78 -22.5t54 -54.5t20.5 -99q0 -101 -65.5 -154t-217.5 -53z"/>
<glyph unicode="Š" horiz-adv-x="1460" d="M727 -20q-186 0 -349 41.5t-304 138.5l104 159q133 -86 268.5 -121.5t274.5 -35.5q117 0 197.5 15.5t131 47t74 81.5t23.5 120t-30 114t-86 71.5t-135 44t-177 32.5q-131 21 -235.5 47.5t-178.5 72.5t-112.5 119.5t-38.5 192.5q0 230 141 326t428 96q192 0 326.5 -40 t226.5 -99l-113 -170q-78 53 -194.5 86t-245.5 33q-197 0 -281 -54.5t-84 -173.5q0 -65 28 -105t80 -66.5t129 -44t175 -34.5q127 -22 234.5 -46.5t184.5 -70.5t120 -122t43 -199q0 -229 -147.5 -342.5t-477.5 -113.5zM305 1941h195l229 -207l230 207h188l-313 -336h-215z "/>
<glyph unicode="š" horiz-adv-x="1098" d="M543 -20q-123 0 -249 27.5t-243 105.5l103 155q98 -63 203.5 -88.5t197.5 -25.5q145 0 209.5 32.5t64.5 135.5q0 40 -14 66t-47 44.5t-85 30.5t-128 24q-100 19 -183 39.5t-141.5 57.5t-90 97t-31.5 159q0 155 101 240t345 85q133 0 242.5 -26.5t191.5 -73.5l-94 -164 q-66 35 -151 57.5t-185 22.5q-74 0 -123 -9t-77.5 -27.5t-40 -45.5t-11.5 -59q0 -41 13.5 -66.5t44 -44t80 -31t118.5 -24.5q105 -19 190 -39.5t145 -56t92 -94t32 -154.5q0 -99 -27.5 -165.5t-86 -107.5t-149.5 -59t-216 -18zM128 1591h195l229 -207l230 207h188l-313 -336 h-215z"/>
<glyph unicode="Ţ" horiz-adv-x="1419" d="M606 1319h-557v199h1323v-199h-557v-1319h-209v1319zM590 -457q70 35 92.5 65t22.5 85h-109v227h224v-170q0 -63 -7.5 -107t-27 -77t-55 -59.5t-91.5 -53.5z"/>
<glyph unicode="Ț" horiz-adv-x="1419" d="M606 1319h-557v199h1323v-199h-557v-1319h-209v1319zM590 -457q70 35 92.5 65t22.5 85h-109v227h224v-170q0 -63 -7.5 -107t-27 -77t-55 -59.5t-91.5 -53.5z"/>
<glyph unicode="ţ" horiz-adv-x="856" d="M59 1139h207l35 323l158 31v-354h301v-181h-301v-620q0 -37 4 -67.5t20.5 -51t49 -32t90.5 -11.5h137v-176q-10 0 -34 -1t-51 -1h-87q-103 0 -166.5 19.5t-99 58.5t-49 97t-13.5 138v647h-201v181zM252 -457q70 35 92.5 65t22.5 85h-109v227h224v-170q0 -63 -7.5 -107 t-27 -77t-55 -59.5t-91.5 -53.5z"/>
<glyph unicode="ț" horiz-adv-x="856" d="M59 1139h207l35 323l158 31v-354h301v-181h-301v-620q0 -37 4 -67.5t20.5 -51t49 -32t90.5 -11.5h137v-176q-10 0 -34 -1t-51 -1h-87q-103 0 -166.5 19.5t-99 58.5t-49 97t-13.5 138v647h-201v181zM252 -457q70 35 92.5 65t22.5 85h-109v227h224v-170q0 -63 -7.5 -107 t-27 -77t-55 -59.5t-91.5 -53.5z"/>
<glyph unicode="Ť" horiz-adv-x="1419" d="M606 1319h-557v199h1323v-199h-557v-1319h-209v1319zM284 1941h195l229 -207l230 207h188l-313 -336h-215z"/>
<glyph unicode="ť" horiz-adv-x="856" d="M612 1413l56 33q22 14 34.5 30.5t17.5 37t5 49.5h-96v217h205v-164q0 -62 -7.5 -106t-26 -75.5t-52 -57t-89.5 -52.5zM59 1139h207l35 323l158 31v-354h301v-181h-301v-620q0 -37 4 -67.5t20.5 -51t49 -32t90.5 -11.5h137v-176q-10 0 -34 -1t-51 -1h-87 q-103 0 -166.5 19.5t-99 58.5t-49 97t-13.5 138v647h-201v181z"/>
<glyph unicode="Ŧ" horiz-adv-x="1419" d="M317 807h785v-168h-785v168zM606 1319h-557v199h1323v-199h-557v-1319h-209v1319z"/>
<glyph unicode="ŧ" horiz-adv-x="856" d="M59 684h701v-162h-701v162zM59 1139h207l35 323l158 31v-354h301v-181h-301v-620q0 -37 4 -67.5t20.5 -51t49 -32t90.5 -11.5h137v-176q-10 0 -34 -1t-51 -1h-87q-103 0 -166.5 19.5t-99 58.5t-49 97t-13.5 138v647h-201v181z"/>
<glyph unicode="Ũ" horiz-adv-x="1614" d="M805 -27q-213 0 -340 49.5t-194.5 131.5t-88 187t-20.5 216v961h207v-936q0 -93 17 -169.5t65.5 -131t134.5 -84t221 -29.5q137 0 224 29.5t136.5 83t67.5 130t18 171.5v936h201v-961q0 -74 -9 -146.5t-34 -137t-70 -120t-116.5 -95.5t-175 -62.5t-244.5 -22.5zM393 1706 q60 74 131.5 122t143.5 48q53 0 90 -16q37 -18 67 -36l61 -34q30 -16 66 -17q39 0 80 32t84 81l117 -94q-59 -76 -131 -130.5t-145 -54.5q-48 0 -84.5 16.5t-69.5 34.5l-64 36q-30 16 -67 16q-35 0 -76 -25.5t-80 -74.5z"/>
<glyph unicode="ũ" horiz-adv-x="1280" d="M643 -20q-164 0 -263 32.5t-152.5 97t-70 160t-16.5 217.5v652h199v-656q0 -67 5 -125.5t34 -102.5t90 -68.5t174 -24.5t174.5 24.5t90 68.5t32.5 104.5t4 129.5v650h195v-645q0 -127 -15.5 -222.5t-67.5 -161t-150.5 -98t-262.5 -32.5zM223 1356q60 74 131.5 122 t143.5 48q53 0 90 -16q37 -18 67 -36l61 -34q30 -16 66 -17q39 0 80 32t84 81l117 -94q-59 -76 -131 -130.5t-145 -54.5q-48 0 -84.5 16.5t-69.5 34.5l-64 36q-30 16 -67 16q-35 0 -76 -25.5t-80 -74.5z"/>
<glyph unicode="Ū" horiz-adv-x="1614" d="M805 -27q-213 0 -340 49.5t-194.5 131.5t-88 187t-20.5 216v961h207v-936q0 -93 17 -169.5t65.5 -131t134.5 -84t221 -29.5q137 0 224 29.5t136.5 83t67.5 130t18 171.5v936h201v-961q0 -74 -9 -146.5t-34 -137t-70 -120t-116.5 -95.5t-175 -62.5t-244.5 -22.5zM418 1763 h770v-170h-770v170z"/>
<glyph unicode="ū" horiz-adv-x="1280" d="M643 -20q-164 0 -263 32.5t-152.5 97t-70 160t-16.5 217.5v652h199v-656q0 -67 5 -125.5t34 -102.5t90 -68.5t174 -24.5t174.5 24.5t90 68.5t32.5 104.5t4 129.5v650h195v-645q0 -127 -15.5 -222.5t-67.5 -161t-150.5 -98t-262.5 -32.5zM252 1413h770v-170h-770v170z"/>
<glyph unicode="Ŭ" horiz-adv-x="1614" d="M805 -27q-213 0 -340 49.5t-194.5 131.5t-88 187t-20.5 216v961h207v-936q0 -93 17 -169.5t65.5 -131t134.5 -84t221 -29.5q137 0 224 29.5t136.5 83t67.5 130t18 171.5v936h201v-961q0 -74 -9 -146.5t-34 -137t-70 -120t-116.5 -95.5t-175 -62.5t-244.5 -22.5zM805 1583 q-104 0 -174 25.5t-115 70.5t-69.5 105.5t-38.5 130.5l147 30q11 -45 26 -81.5t44 -62.5t72 -40t108 -14q64 0 108 14t71.5 40t44 62.5t26.5 81.5l150 -28q-17 -72 -41.5 -132.5t-69.5 -105.5t-114.5 -70.5t-174.5 -25.5z"/>
<glyph unicode="ŭ" horiz-adv-x="1280" d="M643 -20q-164 0 -263 32.5t-152.5 97t-70 160t-16.5 217.5v652h199v-656q0 -67 5 -125.5t34 -102.5t90 -68.5t174 -24.5t174.5 24.5t90 68.5t32.5 104.5t4 129.5v650h195v-645q0 -127 -15.5 -222.5t-67.5 -161t-150.5 -98t-262.5 -32.5zM637 1233q-104 0 -174 25.5 t-115 70.5t-69.5 105.5t-38.5 130.5l147 30q11 -45 26 -81.5t44 -62.5t72 -40t108 -14q64 0 108 14t71.5 40t44 62.5t26.5 81.5l150 -28q-17 -72 -41.5 -132.5t-69.5 -105.5t-114.5 -70.5t-174.5 -25.5z"/>
<glyph unicode="Ů" horiz-adv-x="1614" d="M805 -27q-213 0 -340 49.5t-194.5 131.5t-88 187t-20.5 216v961h207v-936q0 -93 17 -169.5t65.5 -131t134.5 -84t221 -29.5q137 0 224 29.5t136.5 83t67.5 130t18 171.5v936h201v-961q0 -74 -9 -146.5t-34 -137t-70 -120t-116.5 -95.5t-175 -62.5t-244.5 -22.5zM803 1581 q-67 0 -116.5 20.5t-81 55t-46 84t-14.5 104.5q0 57 14.5 106.5t46 85t81 56t116.5 20.5q66 0 114 -20.5t79.5 -56t47 -85t15.5 -106.5q0 -113 -62.5 -188.5t-193.5 -75.5zM803 1691q78 0 112 44.5t34 109.5q0 66 -34 110t-112 44q-80 0 -113.5 -44t-33.5 -110 q0 -65 33.5 -109.5t113.5 -44.5z"/>
<glyph unicode="ů" horiz-adv-x="1280" d="M643 -20q-164 0 -263 32.5t-152.5 97t-70 160t-16.5 217.5v652h199v-656q0 -67 5 -125.5t34 -102.5t90 -68.5t174 -24.5t174.5 24.5t90 68.5t32.5 104.5t4 129.5v650h195v-645q0 -127 -15.5 -222.5t-67.5 -161t-150.5 -98t-262.5 -32.5zM637 1231q-67 0 -116.5 20.5 t-81 55t-46 84t-14.5 104.5q0 57 14.5 106.5t46 85t81 56t116.5 20.5q66 0 114 -20.5t79.5 -56t47 -85t15.5 -106.5q0 -113 -62.5 -188.5t-193.5 -75.5zM637 1341q78 0 112 44.5t34 109.5q0 66 -34 110t-112 44q-80 0 -113.5 -44t-33.5 -110q0 -65 33.5 -109.5t113.5 -44.5z "/>
<glyph unicode="Ű" horiz-adv-x="1614" d="M805 -27q-213 0 -340 49.5t-194.5 131.5t-88 187t-20.5 216v961h207v-936q0 -93 17 -169.5t65.5 -131t134.5 -84t221 -29.5q137 0 224 29.5t136.5 83t67.5 130t18 171.5v936h201v-961q0 -74 -9 -146.5t-34 -137t-70 -120t-116.5 -95.5t-175 -62.5t-244.5 -22.5zM654 1937 h233l-319 -332h-172zM1141 1937h232l-316 -332h-174z"/>
<glyph unicode="ű" horiz-adv-x="1280" d="M643 -20q-164 0 -263 32.5t-152.5 97t-70 160t-16.5 217.5v652h199v-656q0 -67 5 -125.5t34 -102.5t90 -68.5t174 -24.5t174.5 24.5t90 68.5t32.5 104.5t4 129.5v650h195v-645q0 -127 -15.5 -222.5t-67.5 -161t-150.5 -98t-262.5 -32.5zM488 1587h233l-319 -332h-172z M975 1587h232l-316 -332h-174z"/>
<glyph unicode="Ų" horiz-adv-x="1614" d="M1030 -451q-80 0 -129 14.5t-76.5 40t-38 60.5t-10.5 76q0 78 50.5 140.5t107.5 101.5q-29 -5 -61.5 -7t-67.5 -2q-213 0 -340 49.5t-194.5 130t-88 185t-20.5 217.5v963h207v-940q0 -95 17 -171.5t65.5 -132t133.5 -86t222 -30.5t224 29.5t136.5 85t67.5 132t18 173.5 v940h201v-963q0 -86 -11 -165t-43 -146.5t-88.5 -122.5t-146.5 -94q-121 -58 -182 -130.5t-61 -136.5q0 -20 5 -37.5t19.5 -29.5t42 -19.5t70.5 -7.5q53 0 100 13.5t84 31.5l41 -100q-55 -27 -119.5 -44.5t-134.5 -17.5z"/>
<glyph unicode="ų" horiz-adv-x="1280" d="M819 -451q-80 0 -129 14.5t-76.5 40t-37 60.5t-9.5 76q0 39 14.5 74.5t37 66.5t50 56.5t56.5 44.5q-16 -5 -40 -5h-46q-164 0 -262 33t-150.5 97.5t-69 158.5t-16.5 215v656h199v-658q0 -67 5 -126.5t33 -103.5t89 -69.5t176 -25.5q113 0 174.5 25.5t90 69.5t32.5 104.5 t4 131.5v652h195v-648q0 -92 -7.5 -165.5t-31 -132t-64.5 -102.5t-108 -77q-99 -47 -157 -117.5t-58 -134.5q0 -41 25.5 -67.5t109.5 -26.5q53 0 101 13.5t85 31.5l41 -100q-55 -27 -119.5 -44.5t-136.5 -17.5z"/>
<glyph unicode="Ŵ" horiz-adv-x="2218" d="M63 1518h216l368 -1182l377 1182h182l377 -1182l369 1182h202l-481 -1528h-182l-381 1190l-379 -1190h-184zM1002 1941h215l313 -336h-193l-231 207l-227 -207h-191z"/>
<glyph unicode="ŵ" horiz-adv-x="1819" d="M27 1139h209l294 -860l283 860h197l282 -858l297 858h203l-401 -1149h-199l-283 848l-282 -848h-201zM797 1591h215l313 -336h-193l-231 207l-227 -207h-191z"/>
<glyph unicode="Ŷ" horiz-adv-x="1466" d="M20 1518h226l489 -756l494 756h215l-608 -939v-579h-205v574zM621 1941h215l313 -336h-193l-231 207l-227 -207h-191z"/>
<glyph unicode="ŷ" horiz-adv-x="1114" d="M14 1139h213l335 -889l331 889h209l-484 -1235q-24 -66 -55 -113t-71.5 -76.5t-97 -44t-132.5 -14.5h-51q-35 0 -53 2v162h88q84 0 119.5 21.5t56.5 82.5l34 89zM456 1591h215l313 -336h-193l-231 207l-227 -207h-191z"/>
<glyph unicode="Ÿ" horiz-adv-x="1466" d="M20 1518h226l489 -756l494 756h215l-608 -939v-579h-205v574zM418 1841h182v-229h-182v229zM860 1841h180v-229h-180v229z"/>
<glyph unicode="Ź" horiz-adv-x="1376" d="M86 164l918 1155h-883v199h1143v-181l-914 -1147h936v-190h-1200v164zM817 1941h244l-363 -336h-184z"/>
<glyph unicode="ź" horiz-adv-x="1049" d="M61 145l650 813h-617v181h877v-150l-652 -819h674v-170h-932v145zM660 1591h244l-363 -336h-184z"/>
<glyph unicode="Ż" horiz-adv-x="1376" d="M86 164l918 1155h-883v199h1143v-181l-914 -1147h936v-190h-1200v164zM586 1841h201v-238h-201v238z"/>
<glyph unicode="ż" horiz-adv-x="1049" d="M61 145l650 813h-617v181h877v-150l-652 -819h674v-170h-932v145zM429 1491h201v-238h-201v238z"/>
<glyph unicode="Ž" horiz-adv-x="1376" d="M86 164l918 1155h-883v199h1143v-181l-914 -1147h936v-190h-1200v164zM264 1941h195l229 -207l230 207h188l-313 -336h-215z"/>
<glyph unicode="ž" horiz-adv-x="1049" d="M61 145l650 813h-617v181h877v-150l-652 -819h674v-170h-932v145zM107 1591h195l229 -207l230 207h188l-313 -336h-215z"/>
<glyph unicode="ſ" horiz-adv-x="819" d="M274 1241q0 84 16.5 151.5t58.5 115.5t111.5 75t176.5 27h75q42 0 56 -2v-166h-106q-58 0 -94 -15.5t-57.5 -41t-29.5 -62.5t-8 -80v-1243h-199v1241z"/>
<glyph unicode="ƒ" horiz-adv-x="1133" d="M178 930h254l55 256q15 69 35.5 130.5t62.5 105.5t113.5 70t186.5 26h80v-189h-70q-64 0 -102.5 -15.5t-62 -43t-36 -64.5t-20.5 -80l-42 -196h333v-180h-371l-232 -1090h-200l232 1090h-216v180z"/>
<glyph unicode="Ơ" horiz-adv-x="1718" d="M858 -25q-182 0 -325.5 45.5t-244 140.5t-152.5 243.5t-52 355.5q0 205 52 353.5t152.5 243.5t244 140t325.5 45t325 -45q76 -24 139 -61q38 2 64 12q31 12 49.5 30.5t26.5 40t8 40.5h-98v231h213v-211q0 -47 -15.5 -92t-48 -80t-85.5 -57h-1q95 -94 145 -237 q52 -148 52 -353q0 -207 -52 -355.5t-152.5 -243.5t-244 -140.5t-325.5 -45.5zM858 168q297 0 432 152.5t135 435.5q0 282 -135 434.5t-432 152.5t-431 -152.5t-134 -434.5q0 -283 134 -435.5t431 -152.5z"/>
<glyph unicode="ơ" horiz-adv-x="1327" d="M653 -23q-151 0 -257.5 38t-174 113t-98.5 186.5t-31 256.5q0 146 31 257.5t98.5 186.5t174 112.5t257.5 37.5q152 0 258 -38q47 -16 86 -39q30 2 51 10q31 12 49.5 30.5t25.5 40t10 39.5h-101v230h213v-207q0 -49 -14 -94t-47 -80t-85 -57h-1q58 -71 87 -172 q32 -111 32 -257q0 -145 -32 -256.5t-99.5 -186.5t-174 -113t-258.5 -38zM653 158q101 0 169.5 26.5t111.5 78.5t61.5 129t18.5 175q0 197 -80 302.5t-281 105.5q-200 0 -280 -105.5t-80 -302.5q0 -98 18.5 -175t61.5 -129t111.5 -78.5t168.5 -26.5z"/>
<glyph unicode="Ư" horiz-adv-x="1649" d="M805 -27q-213 0 -340 49.5t-194.5 131.5t-88 187t-20.5 216v961h207v-936q0 -93 17 -169.5t65.5 -131t134.5 -84t221 -29.5q137 0 224 29.5t136.5 83t67.5 130t18 171.5v936h169q40 1 67 12q31 12 49 30.5t26.5 40t8.5 39.5h-98v230h211v-209q0 -47 -14.5 -92t-47.5 -80 t-85 -57q-37 -15 -85 -20v-855q0 -74 -9 -146.5t-34 -137t-70 -120t-116.5 -95.5t-175 -62.5t-244.5 -22.5z"/>
<glyph unicode="ư" horiz-adv-x="1368" d="M643 -20q-164 0 -263 32.5t-152.5 97t-70 160t-16.5 217.5v652h199v-656q0 -67 5 -125.5t34 -102.5t90 -68.5t174 -24.5t174.5 24.5t90 68.5t32.5 104.5t4 129.5v650h195q23 3 40 10q31 12 49.5 29.5t26 39t7.5 39.5h-99v232h213v-209q0 -47 -14 -93t-47 -81t-85 -57 q-39 -16 -91 -20v-535q0 -127 -15.5 -222.5t-67.5 -161t-150.5 -98t-262.5 -32.5z"/>
<glyph unicode="Ǻ" horiz-adv-x="1520" d="M616 1434q-59 34 -86.5 93.5t-27.5 137.5q0 111 60.5 187.5t195.5 76.5q131 0 194.5 -76.5t63.5 -187.5q0 -76 -27.5 -136.5t-87.5 -92.5l574 -1436h-211l-127 317h-762l-123 -317h-207zM1063 508l-307 772l-307 -772h614zM758 1511q80 0 113.5 44t33.5 110t-33.5 111 t-113.5 45q-78 0 -113 -45t-35 -111t35 -110t113 -44zM887 2322h244l-363 -336h-184z"/>
<glyph unicode="ǻ" horiz-adv-x="1284" d="M487 -20q-122 0 -201 26.5t-125 72.5t-63.5 109.5t-17.5 135.5q0 120 37 201t125 129t232 67.5t357 19.5h61q-1 49 -7 88q-8 52 -38 84.5t-86 49t-153 16.5q-108 0 -195 -30.5t-141 -65.5l-104 155q29 19 75 41.5t106.5 42t131 31.5t146.5 12q145 0 235 -25.5 t139.5 -80.5t66.5 -142.5t17 -207.5v-406q0 -41 3.5 -66.5t14.5 -39t33.5 -17.5t61.5 -4v-174q-10 -4 -31 -4h-51q-47 0 -78.5 7t-54 22.5t-37 40t-24.5 59.5q-52 -72 -152 -109.5t-283 -37.5zM554 560q-112 -11 -174.5 -37.5t-86 -71.5t-23.5 -113q0 -90 52.5 -138 t197.5 -48q199 0 286 82.5t87 267.5v69h-51q-176 0 -288 -11zM643 1231q-67 0 -116.5 20.5t-81 55t-46 84t-14.5 104.5q0 57 14.5 106.5t46 85t81 56t116.5 20.5q66 0 114 -20.5t79.5 -56t47 -85t15.5 -106.5q0 -113 -62.5 -188.5t-193.5 -75.5zM643 1341q78 0 112 44.5 t34 109.5q0 66 -34 110t-112 44q-80 0 -113.5 -44t-33.5 -110q0 -65 33.5 -109.5t113.5 -44.5zM774 2173h244l-363 -336h-184z"/>
<glyph unicode="Ǽ" horiz-adv-x="2234" d="M985 1518h1126v-199h-833v-440h813v-191h-813v-498h842v-190h-1041v319h-639l-204 -319h-205zM1079 498v835l-534 -835h534zM1198 1941h244l-363 -336h-184z"/>
<glyph unicode="ǽ" horiz-adv-x="2019" d="M1444 -23q-180 0 -286.5 47.5t-163.5 129.5l-20 31q-14 -25 -29 -46q-48 -63 -113.5 -99t-149.5 -48t-190 -12q-222 0 -317 85t-95 259q0 120 40 201t129 129t232.5 67.5t349.5 19.5h61q-1 49 -7 88q-8 52 -38 84.5t-86 49t-153 16.5q-108 0 -197 -30.5t-143 -63.5 l-100 153q29 19 75 41.5t106.5 42t131 31.5t146.5 12q145 0 231 -29.5t130 -87.5q14 -18 24 -39q55 66 146 108q106 48 280 48q121 0 203.5 -25.5t137 -71.5t83 -108.5t42 -137t14.5 -158.5t-1 -170h-840q3 -51 11 -96q14 -76 53 -131.5t111.5 -86t191.5 -30.5q67 0 120.5 8 t95.5 23.5t77 36t67 44.5l109 -139q-47 -35 -95.5 -62.5t-103.5 -46t-121.5 -28t-148.5 -9.5zM558 561q-112 -10 -175.5 -36.5t-88 -71.5t-24.5 -115q0 -92 52.5 -139t199.5 -47q197 0 284 83.5t87 266.5v69h-51q-172 0 -284 -10zM1729 668q-5 67 -13 126.5t-37.5 102.5 t-87 67.5t-157.5 24.5q-115 0 -185.5 -30.5t-108.5 -87t-52 -134.5q-5 -33 -9 -69h650zM1077 1591h244l-363 -336h-184z"/>
<glyph unicode="Ǿ" horiz-adv-x="1718" d="M858 -25q-188 0 -332 45l-59 -104h-199l101 176q-47 31 -87 69q-98 95 -148 243.5t-50 355.5q0 205 50 353.5t148.5 243.5t243 140t332.5 45q176 0 313 -39l58 101h196l-96 -168q57 -34 104 -79q99 -95 149 -243.5t50 -353.5q0 -207 -50 -355.5t-148.5 -243.5 t-242.5 -140.5t-333 -45.5zM858 162q156 0 265.5 39t178 114.5t99.5 186t31 254.5q0 143 -31 253.5t-100 186.5q-34 37 -78 66l-607 -1069q102 -31 242 -31zM858 1350q-156 0 -264.5 -39t-177 -115t-99 -186.5t-30.5 -253.5q0 -144 30.5 -254.5t98.5 -186.5q27 -29 59 -53 l604 1063q-96 25 -221 25zM987 1941h244l-363 -336h-184z"/>
<glyph unicode="ǿ" horiz-adv-x="1309" d="M653 -23q-140 0 -242 32l-59 -95h-182l100 166q-28 22 -52 48q-66 75 -96 186.5t-30 256.5q0 146 30 257.5t96.5 186.5t174 112.5t260.5 37.5q141 0 244 -32l57 96h183l-98 -168q27 -21 50 -46q68 -75 98 -186.5t30 -257.5q0 -145 -30 -256.5t-97.5 -186.5t-175 -113 t-261.5 -38zM653 154q103 0 172.5 27.5t112.5 79.5t61.5 130t18.5 176q0 99 -18.5 175.5t-61.5 128.5l-14 16l-424 -713q64 -20 153 -20zM653 979q-102 0 -171.5 -27.5t-112.5 -80t-61.5 -129t-18.5 -175.5q0 -98 18.5 -176t61.5 -130l12 -14l420 713q-62 19 -148 19z M782 1591h244l-363 -336h-184z"/>
<glyph unicode="Ș" horiz-adv-x="1460" d="M727 -20q-186 0 -349 41.5t-304 138.5l104 159q133 -86 268.5 -121.5t274.5 -35.5q117 0 197.5 15.5t131 47t74 81.5t23.5 120t-30 114t-86 71.5t-135 44t-177 32.5q-131 21 -235.5 47.5t-178.5 72.5t-112.5 119.5t-38.5 192.5q0 230 141 326t428 96q192 0 326.5 -40 t226.5 -99l-113 -170q-78 53 -194.5 86t-245.5 33q-197 0 -281 -54.5t-84 -173.5q0 -65 28 -105t80 -66.5t129 -44t175 -34.5q127 -22 234.5 -46.5t184.5 -70.5t120 -122t43 -199q0 -229 -147.5 -342.5t-477.5 -113.5zM608 -457q70 35 92.5 65t22.5 85h-109v227h224v-170 q0 -63 -7.5 -107t-27 -77t-55 -59.5t-91.5 -53.5z"/>
<glyph unicode="ș" horiz-adv-x="1098" d="M543 -20q-123 0 -249 27.5t-243 105.5l103 155q98 -63 203.5 -88.5t197.5 -25.5q145 0 209.5 32.5t64.5 135.5q0 40 -14 66t-47 44.5t-85 30.5t-128 24q-100 19 -183 39.5t-141.5 57.5t-90 97t-31.5 159q0 155 101 240t345 85q133 0 242.5 -26.5t191.5 -73.5l-94 -164 q-66 35 -151 57.5t-185 22.5q-74 0 -123 -9t-77.5 -27.5t-40 -45.5t-11.5 -59q0 -41 13.5 -66.5t44 -44t80 -31t118.5 -24.5q105 -19 190 -39.5t145 -56t92 -94t32 -154.5q0 -99 -27.5 -165.5t-86 -107.5t-149.5 -59t-216 -18zM426 -457q70 35 92.5 65t22.5 85h-109v227h224 v-170q0 -63 -7.5 -107t-27 -77t-55 -59.5t-91.5 -53.5z"/>
<glyph unicode="ˆ" horiz-adv-x="1208" d="M496 1591h215l313 -336h-193l-231 207l-227 -207h-191z"/>
<glyph unicode="ˇ" horiz-adv-x="1208" d="M182 1591h195l229 -207l230 207h188l-313 -336h-215z"/>
<glyph unicode="˘" horiz-adv-x="1208" d="M604 1233q-104 0 -174 25.5t-115 70.5t-69.5 105.5t-38.5 130.5l147 30q11 -45 26 -81.5t44 -62.5t72 -40t108 -14q64 0 108 14t71.5 40t44 62.5t26.5 81.5l150 -28q-17 -72 -41.5 -132.5t-69.5 -105.5t-114.5 -70.5t-174.5 -25.5z"/>
<glyph unicode="˙" horiz-adv-x="1208" d="M504 1491h201v-238h-201v238z"/>
<glyph unicode="˚" horiz-adv-x="1208" d="M604 1231q-67 0 -116.5 20.5t-81 55t-46 84t-14.5 104.5q0 57 14.5 106.5t46 85t81 56t116.5 20.5q66 0 114 -20.5t79.5 -56t47 -85t15.5 -106.5q0 -113 -62.5 -188.5t-193.5 -75.5zM604 1341q78 0 112 44.5t34 109.5q0 66 -34 110t-112 44q-80 0 -113.5 -44t-33.5 -110 q0 -65 33.5 -109.5t113.5 -44.5z"/>
<glyph unicode="˛" horiz-adv-x="1208" d="M625 -455q-80 0 -131.5 15.5t-82 42t-42 64.5t-11.5 81q0 49 18.5 91t47.5 76t62.5 59.5t62.5 41.5h182q-104 -59 -156.5 -121.5t-52.5 -113.5q0 -21 4 -38t18.5 -30.5t39 -20.5t65.5 -7q49 0 98.5 11t77.5 25l49 -120q-47 -25 -113.5 -40.5t-135.5 -15.5z"/>
<glyph unicode="˜" horiz-adv-x="1208" d="M184 1356q60 74 131.5 122t143.5 48q53 0 90 -16q37 -18 67 -36l61 -34q30 -16 66 -17q39 0 80 32t84 81l117 -94q-59 -76 -131 -130.5t-145 -54.5q-48 0 -84.5 16.5t-69.5 34.5l-64 36q-30 16 -67 16q-35 0 -76 -25.5t-80 -74.5z"/>
<glyph unicode="˝" horiz-adv-x="1208" d="M455 1587h233l-319 -332h-172zM942 1587h232l-316 -332h-174z"/>
<glyph unicode="̉" horiz-adv-x="1208" d="M530 1141q-10 76 8.5 123t88.5 90q53 32 73.5 50.5t20.5 49.5t-25.5 51.5t-99.5 20.5q-96 0 -178 -41l-58 121q48 24 111.5 36.5t132.5 12.5q148 0 210.5 -51.5t62.5 -126.5q0 -72 -32 -112t-91 -75q-29 -16 -45.5 -30.5t-25.5 -30t-12 -37t-1 -51.5h-140z"/>
<glyph unicode="̣" horiz-adv-x="1208" d="M504 -130h201v-238h-201v238z"/>
<glyph unicode="̦" horiz-adv-x="518" d="M141 -457q70 35 92.5 65t22.5 85h-109v227h224v-170q0 -63 -7.5 -107t-27 -77t-55 -59.5t-91.5 -53.5z"/>
<glyph unicode="̀" horiz-adv-x="1208" d="M229 1591h244l303 -336h-184z"/>
<glyph unicode="́" horiz-adv-x="1208" d="M735 1591h244l-363 -336h-184z"/>
<glyph unicode="΄" horiz-adv-x="1208" d="M637 1587h188l-174 -332h-157z"/>
<glyph unicode="΅" horiz-adv-x="1208" d="M244 1477h145v-224h-145v224zM821 1477h146v-224h-146v224zM608 1585h174l-166 -332h-141z"/>
<glyph unicode="Ά" horiz-adv-x="1538" d="M667 1528h211l609 -1528h-213l-125 319h-758l-125 -319h-207zM1075 510l-307 770l-308 -770h615zM253 1525h188l-174 -332h-157z"/>
<glyph unicode="Έ" horiz-adv-x="1726" d="M561 1518h1038v-199h-831v-436h811v-197h-811v-496h840v-190h-1047v1518zM253 1520h188l-174 -332h-157z"/>
<glyph unicode="Ή" horiz-adv-x="2003" d="M561 1518h207v-627h854v627h207v-1518h-207v686h-854v-686h-207v1518zM253 1520h188l-174 -332h-157z"/>
<glyph unicode="Ί" horiz-adv-x="967" d="M567 1518h205v-1518h-205v1518zM253 1520h188l-174 -332h-157z"/>
<glyph unicode="Ό" horiz-adv-x="2034" d="M1171 -25q-182 0 -325.5 45.5t-244 140.5t-152.5 243.5t-52 355.5q0 205 52 353.5t152.5 243.5t244 140t325.5 45t325.5 -45t244 -140t152.5 -243.5t52 -353.5q0 -207 -52 -355.5t-152.5 -243.5t-244 -140.5t-325.5 -45.5zM1171 168q297 0 432 152.5t135 435.5 q0 282 -135 434.5t-432 152.5t-431 -152.5t-134 -434.5q0 -283 134 -435.5t431 -152.5zM253 1520h188l-174 -332h-157z"/>
<glyph unicode="Ύ" horiz-adv-x="1972" d="M524 1518h226l489 -756l494 756h215l-608 -939v-579h-205v574zM253 1520h188l-174 -332h-157z"/>
<glyph unicode="Ώ" horiz-adv-x="2064" d="M1184 1542q196 0 342.5 -51t243 -142.5t143.5 -218t47 -276.5q0 -248 -118 -408.5t-331 -207.5v-56h457v-182h-610v338q209 45 301 171t92 316q0 246 -142.5 386.5t-424.5 140.5q-283 0 -426.5 -140.5t-143.5 -386.5q0 -190 92.5 -316t300.5 -171v-338h-610v182h457v56 q-211 47 -329 207.5t-118 408.5q0 150 47.5 276.5t143.5 218t242.5 142.5t343.5 51zM253 1520h188l-174 -332h-157z"/>
<glyph unicode="ΐ" horiz-adv-x="514" d="M160 1139h196v-1139h-196v1139zM-99 1477h145v-224h-145v224zM478 1477h146v-224h-146v224zM265 1585h174l-166 -332h-141z"/>
<glyph unicode="Α" horiz-adv-x="1520" d="M653 1528h211l609 -1528h-213l-125 319h-758l-125 -319h-207zM1061 510l-307 770l-308 -770h615z"/>
<glyph unicode="Β" horiz-adv-x="1468" d="M172 1518h670q266 0 387 -91.5t121 -283.5q0 -133 -43 -223.5t-148 -122.5q129 -33 179.5 -125t50.5 -252q0 -119 -36 -199t-105.5 -129t-175 -70.5t-243.5 -21.5h-657v1518zM852 186q170 0 249 58.5t79 193.5q0 131 -79 188.5t-253 57.5h-473v-498h477zM848 877 q86 0 143.5 17t90 48t46 75t13.5 97q0 107 -66.5 161t-226.5 54h-473v-452h473z"/>
<glyph unicode="Γ" horiz-adv-x="1257" d="M379 0h-207v1518h1010v-189h-803v-1329z"/>
<glyph unicode="Δ" horiz-adv-x="1520" d="M657 1528h205l611 -1528h-1424zM1192 172l-438 1108l-439 -1108h877z"/>
<glyph unicode="∆" horiz-adv-x="1520" d="M657 1528h205l611 -1528h-1424zM1192 172l-438 1108l-439 -1108h877z"/>
<glyph unicode="Ε" horiz-adv-x="1335" d="M172 1518h1038v-199h-831v-436h811v-197h-811v-496h840v-190h-1047v1518z"/>
<glyph unicode="Ζ" horiz-adv-x="1376" d="M86 164l918 1155h-883v199h1143v-181l-914 -1147h936v-190h-1200v164z"/>
<glyph unicode="Η" horiz-adv-x="1612" d="M172 1518h207v-627h854v627h207v-1518h-207v686h-854v-686h-207v1518z"/>
<glyph unicode="Θ" horiz-adv-x="1718" d="M561 850h584v-182h-584v182zM858 -25q-182 0 -325.5 45.5t-244 140.5t-152.5 243.5t-52 355.5q0 205 52 353.5t152.5 243.5t244 140t325.5 45t325.5 -45t244 -140t152.5 -243.5t52 -353.5q0 -207 -52 -355.5t-152.5 -243.5t-244 -140.5t-325.5 -45.5zM858 168 q297 0 432 152.5t135 435.5q0 282 -135 434.5t-432 152.5t-431 -152.5t-134 -434.5q0 -283 134 -435.5t431 -152.5z"/>
<glyph unicode="Ι" horiz-adv-x="582" d="M188 1518h205v-1518h-205v1518z"/>
<glyph unicode="Κ" horiz-adv-x="1473" d="M172 1518h203v-797l715 797h237l-536 -598l610 -920h-236l-510 768l-280 -313v-455h-203v1518z"/>
<glyph unicode="Λ" horiz-adv-x="1511" d="M47 1518h217l496 -1268l491 1268h217l-606 -1528h-211z"/>
<glyph unicode="Μ" horiz-adv-x="1907" d="M172 1518h270l512 -1227l514 1227h267v-1518h-203v1171l-496 -1171h-172l-493 1169v-1169h-199v1518z"/>
<glyph unicode="Ν" horiz-adv-x="1620" d="M172 1518h225l850 -1170v1170h201v-1518h-191l-884 1214v-1214h-201v1518z"/>
<glyph unicode="Ξ" horiz-adv-x="1366" d="M127 1518h1112v-199h-1112v199zM258 885h852v-197h-852v197zM106 193h1151v-193h-1151v193z"/>
<glyph unicode="Ο" horiz-adv-x="1718" d="M858 -25q-182 0 -325.5 45.5t-244 140.5t-152.5 243.5t-52 355.5q0 205 52 353.5t152.5 243.5t244 140t325.5 45t325.5 -45t244 -140t152.5 -243.5t52 -353.5q0 -207 -52 -355.5t-152.5 -243.5t-244 -140.5t-325.5 -45.5zM858 168q297 0 432 152.5t135 435.5 q0 282 -135 434.5t-432 152.5t-431 -152.5t-134 -434.5q0 -283 134 -435.5t431 -152.5z"/>
<glyph unicode="Π" horiz-adv-x="1491" d="M172 1518h1147v-1518h-205v1333h-739v-1333h-203v1518z"/>
<glyph unicode="Ρ" horiz-adv-x="1475" d="M172 1518h682q287 0 412 -118t125 -351q0 -117 -30 -210.5t-94.5 -158t-168 -98t-250.5 -33.5h-473v-549h-203v1518zM854 741q162 0 246 66.5t84 230.5q0 84 -20.5 139.5t-62.5 88t-104.5 46t-146.5 13.5h-475v-584h479z"/>
<glyph unicode="Σ" horiz-adv-x="1343" d="M86 156l539 608l-516 582v172h1108v-199h-826l488 -555l-508 -574h880v-190h-1165v156z"/>
<glyph unicode="Τ" horiz-adv-x="1419" d="M606 1319h-557v199h1323v-199h-557v-1319h-209v1319z"/>
<glyph unicode="Υ" horiz-adv-x="1466" d="M20 1518h226l489 -756l494 756h215l-608 -939v-579h-205v574z"/>
<glyph unicode="Φ" horiz-adv-x="1784" d="M791 1518h207v-106q137 -8 253 -38q157 -41 264.5 -123t164.5 -204.5t57 -286.5t-57 -288t-164.5 -206t-265.5 -122q-116 -29 -252 -37v-107h-207v107q-138 7 -252 37q-155 40 -262.5 122t-165 206t-57.5 288t57.5 286.5t165 204.5t263.5 123q114 30 251 38v106z M1529 756q0 104 -35 190t-112 148.5t-197 96.5q-82 23 -187 30v-929q105 8 186 31q121 35 198 96.5t112 147.5t35 189zM606 1191q-120 -34 -195.5 -96.5t-111.5 -148.5t-36 -190q0 -103 36 -189t111.5 -147.5t195.5 -96.5q81 -23 185 -31v929q-104 -7 -185 -30z"/>
<glyph unicode="Χ" horiz-adv-x="1491" d="M125 1518h229l398 -568l387 568h229l-507 -723l558 -795h-233l-447 640l-436 -640h-229l556 795z"/>
<glyph unicode="Ψ" horiz-adv-x="1499" d="M511 753q-85 25 -125 68t-48 102.5t-8 127.5v467h-199v-463q0 -121 21.5 -215.5t87 -159t187.5 -97.5q88 -23 218 -30v179q-81 6 -134 21zM1067 584q121 34 187.5 99t89 160t22.5 218v457h-197v-461q0 -70 -7 -130.5t-47 -104.5t-124 -69q-54 -15 -137 -21v-179 q126 7 213 31zM645 1520h209v-978q-47 -3 -102 -3q-59 0 -107 3v978zM750 551q55 0 104 2v-553h-209v553q49 -2 105 -2z"/>
<glyph unicode="Ω" horiz-adv-x="1757" d="M879 1542q196 0 342.5 -51t243 -142.5t143.5 -218t47 -276.5q0 -248 -118 -408.5t-331 -207.5v-56h457v-182h-610v338q209 45 301 171t92 316q0 246 -142.5 386.5t-424.5 140.5q-283 0 -426.5 -140.5t-143.5 -386.5q0 -190 92.5 -316t300.5 -171v-338h-610v182h457v56 q-211 47 -329 207.5t-118 408.5q0 150 47.5 276.5t143.5 218t242.5 142.5t343.5 51z"/>
<glyph unicode="Ω" horiz-adv-x="1757" d="M879 1542q196 0 342.5 -51t243 -142.5t143.5 -218t47 -276.5q0 -248 -118 -408.5t-331 -207.5v-56h457v-182h-610v338q209 45 301 171t92 316q0 246 -142.5 386.5t-424.5 140.5q-283 0 -426.5 -140.5t-143.5 -386.5q0 -190 92.5 -316t300.5 -171v-338h-610v182h457v56 q-211 47 -329 207.5t-118 408.5q0 150 47.5 276.5t143.5 218t242.5 142.5t343.5 51z"/>
<glyph unicode="Ϊ" horiz-adv-x="582" d="M188 1518h205v-1518h-205v1518zM-15 1858h182v-229h-182v229zM427 1858h180v-229h-180v229z"/>
<glyph unicode="Ϋ" horiz-adv-x="1466" d="M20 1518h226l489 -756l494 756h215l-608 -939v-579h-205v574zM418 1858h182v-229h-182v229zM860 1858h180v-229h-180v229z"/>
<glyph unicode="ά" horiz-adv-x="1384" d="M1186 303q0 -41 3 -66.5t14 -39t34 -17.5t61 -4v-174q-10 -4 -31 -4h-50q-93 0 -140 27.5t-67 101.5q-54 -76 -150 -110.5t-278 -34.5q-142 0 -236 44t-150.5 121.5t-80 187t-23.5 240.5q0 130 23.5 238.5t80 186t151.5 120.5t241 43q178 0 275.5 -33.5t144.5 -103.5 l39 127l139 -12v-838zM625 162q98 0 166.5 22.5t111.5 71.5t62.5 128t19.5 191q0 113 -18.5 190t-61.5 124t-111.5 67.5t-168.5 20.5q-99 0 -162.5 -27.5t-101 -80t-52 -127t-14.5 -167.5q0 -94 14.5 -170.5t52 -130t101 -83t162.5 -29.5zM692 1587h188l-174 -332h-157z"/>
<glyph unicode="έ" horiz-adv-x="1006" d="M516 -25q-231 0 -327.5 84t-96.5 265q0 125 44 193.5t155 94.5q-88 27 -127 87.5t-39 170.5q0 160 98.5 227.5t284.5 67.5q129 0 239.5 -30.5t196.5 -92.5l-102 -141q-127 80 -307 80q-117 0 -167.5 -30.5t-50.5 -104.5q0 -37 10.5 -65.5t37 -48t73.5 -29t121 -9.5h158 v-178h-156q-90 0 -144.5 -12t-84 -35t-38.5 -54.5t-9 -72.5q0 -104 56 -144t191 -40q101 0 175.5 21.5t156.5 70.5l107 -139q-105 -78 -214.5 -107t-240.5 -29zM585 1587h188l-174 -332h-157z"/>
<glyph unicode="ή" horiz-adv-x="1294" d="M147 1128l158 11l17 -109q20 27 52 51.5t81 43t119.5 29.5t166.5 11q136 0 216.5 -33.5t123.5 -96t56.5 -149.5t13.5 -192v-1032h-199v993q0 70 -6 127.5t-33.5 98.5t-83 64.5t-151.5 23.5q-105 0 -170.5 -25.5t-100 -70t-47 -106.5t-12.5 -136v-631h-201v1128zM715 1587 h188l-174 -332h-157z"/>
<glyph unicode="ί" horiz-adv-x="516" d="M160 1139h196v-1139h-196v1139zM325 1587h188l-174 -332h-157z"/>
<glyph unicode="ΰ" horiz-adv-x="1278" d="M643 -20q-164 0 -263 32.5t-152.5 97t-70 160t-16.5 217.5v652h199v-656q0 -67 5 -125.5t34 -102.5t90 -68.5t174 -24.5t174.5 24.5t90 68.5t32.5 104.5t4 129.5v650h195v-645q0 -127 -15.5 -222.5t-67.5 -161t-150.5 -98t-262.5 -32.5zM277 1477h145v-224h-145v224z M854 1477h146v-224h-146v224zM641 1585h174l-166 -332h-141z"/>
<glyph unicode="α" horiz-adv-x="1384" d="M1186 303q0 -41 3 -66.5t14 -39t34 -17.5t61 -4v-174q-10 -4 -31 -4h-50q-93 0 -140 27.5t-67 101.5q-54 -76 -150 -110.5t-278 -34.5q-142 0 -236 44t-150.5 121.5t-80 187t-23.5 240.5q0 130 23.5 238.5t80 186t151.5 120.5t241 43q178 0 275.5 -33.5t144.5 -103.5 l39 127l139 -12v-838zM625 162q98 0 166.5 22.5t111.5 71.5t62.5 128t19.5 191q0 113 -18.5 190t-61.5 124t-111.5 67.5t-168.5 20.5q-99 0 -162.5 -27.5t-101 -80t-52 -127t-14.5 -167.5q0 -94 14.5 -170.5t52 -130t101 -83t162.5 -29.5z"/>
<glyph unicode="β" horiz-adv-x="1352" d="M147 1098q0 100 25 191t85 160t161.5 109.5t255.5 40.5q254 0 370.5 -100t116.5 -301q0 -156 -54 -240t-155 -120q162 -31 245 -121t83 -275q0 -106 -22.5 -189t-87 -139.5t-181.5 -85t-303 -28.5h-129v180h125q131 0 210 20.5t122 57.5t56 87t13 110q0 69 -20.5 120.5 t-69.5 84t-133 48t-213 15.5v166q166 0 242 62.5t76 197.5q0 125 -67 186.5t-226 61.5q-174 0 -251 -81t-77 -226v-1428h-197v1436z"/>
<glyph unicode="γ" horiz-adv-x="1151" d="M471 137h207v-477h-207v477zM14 1139h213l351 -912l350 912h207l-453 -1149h-215z"/>
<glyph unicode="δ" horiz-adv-x="1309" d="M653 -23q-151 0 -257.5 38t-174 111t-98.5 176.5t-31 234.5t31 234t98.5 175t174 111t257.5 39h19l-426 352v141h817v-170h-531l503 -425q27 -20 50 -44q68 -71 100 -174.5t32 -238.5q0 -131 -32 -234.5t-99.5 -176.5t-174 -111t-258.5 -38zM653 158q101 0 169.5 26.5 t111.5 75.5t61.5 117.5t18.5 152.5q0 88 -18.5 160t-61.5 122t-111.5 76.5t-169.5 26.5q-100 0 -168.5 -26.5t-111.5 -76.5t-61.5 -122t-18.5 -160q0 -84 18.5 -152.5t61.5 -117.5t111.5 -75.5t168.5 -26.5z"/>
<glyph unicode="ε" horiz-adv-x="1020" d="M516 -25q-231 0 -327.5 84t-96.5 265q0 125 44 193.5t155 94.5q-88 27 -127 87.5t-39 170.5q0 160 98.5 227.5t284.5 67.5q129 0 239.5 -30.5t196.5 -92.5l-102 -141q-127 80 -307 80q-117 0 -167.5 -30.5t-50.5 -104.5q0 -37 10.5 -65.5t37 -48t73.5 -29t121 -9.5h158 v-178h-156q-90 0 -144.5 -12t-84 -35t-38.5 -54.5t-9 -72.5q0 -104 56 -144t191 -40q101 0 175.5 21.5t156.5 70.5l107 -139q-105 -78 -214.5 -107t-240.5 -29z"/>
<glyph unicode="ζ" horiz-adv-x="1049" d="M633 -309q-78 0 -137.5 16.5t-108.5 44.5l53 103q45 -23 92.5 -36.5t94.5 -13.5q94 0 122.5 30t28.5 71q0 45 -35.5 66.5t-146.5 31.5q-145 8 -241.5 48t-155 103.5t-83 147.5t-24.5 182q0 117 33 222.5t105.5 215t190.5 230.5t290 266h-617v170h877v-145 q-213 -176 -346 -310.5t-207 -244t-99.5 -201.5t-25.5 -182q0 -68 16.5 -125t54 -101t100 -73t157.5 -39q172 -18 236.5 -74.5t64.5 -161.5q0 -114 -62.5 -177.5t-226.5 -63.5z"/>
<glyph unicode="η" horiz-adv-x="1294" d="M147 1128l158 11l17 -109q20 27 52 51.5t81 43t119.5 29.5t166.5 11q136 0 216.5 -33.5t123.5 -96t56.5 -149.5t13.5 -192v-1032h-199v993q0 70 -6 127.5t-33.5 98.5t-83 64.5t-151.5 23.5q-105 0 -170.5 -25.5t-100 -70t-47 -106.5t-12.5 -136v-631h-201v1128z"/>
<glyph unicode="θ" horiz-adv-x="1518" d="M760 -23q-180 0 -297 60.5t-185.5 169t-96 258t-27.5 326.5q0 176 27.5 324.5t96 256t185.5 167.5t297 60q178 0 293.5 -60t184.5 -167.5t96.5 -256t27.5 -324.5q0 -177 -27.5 -326.5t-96.5 -258t-184.5 -169t-293.5 -60.5zM360 692q4 -79 13 -151q16 -115 59 -201 t122 -136t206 -50q125 0 203.5 50t121.5 136t58 201q10 72 14 151v187q-4 83 -14 158q-15 114 -58 198t-121.5 132t-203.5 48q-127 0 -206 -48t-122 -132t-59 -198q-10 -75 -14 -158zM1159 791q0 45 -2 88h-798q-1 -43 -1 -88q0 -51 2 -99h797q2 48 2 99z"/>
<glyph unicode="ι" horiz-adv-x="516" d="M160 1139h196v-1139h-196v1139z"/>
<glyph unicode="κ" horiz-adv-x="1143" d="M147 1139h197v-585l504 585h221l-404 -473l445 -666h-221l-356 521l-189 -215v-306h-197v1139z"/>
<glyph unicode="λ" horiz-adv-x="1145" d="M264 1591q76 0 133.5 -14t100.5 -44t75.5 -77t57.5 -113l495 -1343h-213l-334 941l-360 -941h-201l465 1174l-55 149q-22 59 -59 85t-121 26h-86v153q18 2 53 3t49 1z"/>
<glyph unicode="ν" horiz-adv-x="1151" d="M14 1139h213l351 -912l350 912h207l-453 -1149h-215z"/>
<glyph unicode="ξ" horiz-adv-x="1049" d="M633 -309q-78 0 -137.5 16.5t-108.5 44.5l53 103q45 -23 92.5 -36.5t94.5 -13.5q94 0 122.5 30t28.5 71q0 45 -36.5 66.5t-145.5 31.5q-141 6 -237.5 40t-156 91.5t-85 137t-25.5 178.5q0 180 91 279t263 128q-118 25 -179.5 94.5t-61.5 196.5q0 94 44 168t120 102h-275 v170h877v-170h-273q-147 0 -224 -58t-77 -187q0 -56 14.5 -101t53.5 -77.5t106.5 -51t173.5 -22.5v-144q-16 0 -44.5 -1t-43.5 -3q-110 -4 -180.5 -26.5t-112.5 -59.5t-58.5 -88t-16.5 -115q0 -151 78.5 -226t253.5 -91q86 -8 144 -26.5t93 -47t49.5 -69.5t14.5 -93 q0 -114 -62.5 -177.5t-226.5 -63.5z"/>
<glyph unicode="ο" horiz-adv-x="1309" d="M653 -23q-151 0 -257.5 38t-174 113t-98.5 186.5t-31 256.5q0 146 31 257.5t98.5 186.5t174 112.5t257.5 37.5q152 0 258.5 -37.5t174 -112.5t99.5 -186.5t32 -257.5q0 -145 -32 -256.5t-99.5 -186.5t-174 -113t-258.5 -38zM653 158q101 0 169.5 26.5t111.5 78.5 t61.5 129t18.5 175q0 197 -80 302.5t-281 105.5q-200 0 -280 -105.5t-80 -302.5q0 -98 18.5 -175t61.5 -129t111.5 -78.5t168.5 -26.5z"/>
<glyph unicode="π" horiz-adv-x="1303" d="M147 1139h1006v-1139h-199v963h-610v-963h-197v1139z"/>
<glyph unicode="ρ" horiz-adv-x="1343" d="M721 162q96 0 159.5 27.5t100.5 80t52.5 127t15.5 168.5t-14.5 170t-51.5 129.5t-100.5 82t-161.5 28.5q-100 0 -171 -21.5t-116 -69.5t-65.5 -127t-20.5 -192q0 -112 19.5 -189t63.5 -125t115.5 -68.5t174.5 -20.5zM709 1165q168 0 273 -44t165.5 -121.5t82 -187.5 t21.5 -241q0 -129 -22.5 -237.5t-79.5 -187t-152.5 -121.5t-240.5 -43q-178 0 -271.5 33.5t-136.5 103.5v-457h-201v909q0 146 31 257.5t98.5 186.5t174 112.5t258.5 37.5z"/>
<glyph unicode="ς" horiz-adv-x="1165" d="M682 -309q-78 0 -137.5 16.5t-110.5 44.5l55 103q43 -23 91.5 -36.5t95.5 -13.5q94 0 122.5 30t28.5 71q0 53 -38.5 69.5t-141.5 16.5q-164 0 -271.5 39t-170 113.5t-88 182t-25.5 242.5q0 138 25.5 247.5t89 187t172 119.5t276.5 42q154 0 256.5 -49t167.5 -121 l-145 -135q-39 39 -104.5 76t-174.5 37q-102 0 -171.5 -25.5t-111.5 -77t-60.5 -127t-18.5 -176.5q0 -102 16.5 -177t58.5 -126t112.5 -77.5t178.5 -28.5q70 -6 127.5 -16.5t98.5 -34t63.5 -65.5t22.5 -110q0 -112 -62.5 -176.5t-226.5 -64.5z"/>
<glyph unicode="σ" horiz-adv-x="1343" d="M717 1120h604v-176h-385zM653 -23q-151 0 -257.5 38t-174 113t-98.5 186.5t-31 256.5q0 146 31 257.5t98.5 186.5t174 112.5t257.5 37.5q152 0 258.5 -37.5t174 -112.5t99.5 -186.5t32 -257.5q0 -145 -32 -256.5t-99.5 -186.5t-174 -113t-258.5 -38zM653 158 q101 0 169.5 26.5t111.5 78.5t61.5 129t18.5 175q0 197 -80 302.5t-281 105.5q-200 0 -280 -105.5t-80 -302.5q0 -98 18.5 -175t61.5 -129t111.5 -78.5t168.5 -26.5z"/>
<glyph unicode="τ" horiz-adv-x="1092" d="M20 1139h1051v-178h-426v-961h-199v961h-426v178z"/>
<glyph unicode="υ" horiz-adv-x="1280" d="M643 -20q-164 0 -263 32.5t-152.5 97t-70 160t-16.5 217.5v652h199v-656q0 -67 5 -125.5t34 -102.5t90 -68.5t174 -24.5t174.5 24.5t90 68.5t32.5 104.5t4 129.5v650h195v-645q0 -127 -15.5 -222.5t-67.5 -161t-150.5 -98t-262.5 -32.5z"/>
<glyph unicode="φ" horiz-adv-x="1516" d="M92 569q0 197 53.5 317t163.5 181l80 -172q-47 -45 -71.5 -125t-24.5 -203q0 -102 19.5 -179t65.5 -128t121 -77q62 -21 150 -24v1004h209v-1q142 -3 245 -36q114 -36 184.5 -111t102 -186.5t31.5 -259.5q0 -147 -31.5 -257.5t-102 -184.5t-184.5 -112q-103 -34 -245 -37 v-316h-209v316q-139 4 -239 37q-113 38 -183.5 112t-102.5 184.5t-32 257.5zM1223 567q0 101 -19.5 177.5t-65.5 127t-123 75.5q-66 22 -157 25v-814q91 4 157 25q77 26 123 77t65.5 128t19.5 179z"/>
<glyph unicode="χ" horiz-adv-x="1139" d="M70 1139h221l286 -400l279 400h215l-390 -546l425 -593h-223l-322 450l-311 -450h-217l425 595z"/>
<glyph unicode="ψ" horiz-adv-x="1522" d="M659 1137h207v-975q109 3 171 24q71 25 104 69t38 103.5t5 126.5v652h196v-648q0 -122 -17 -218.5t-73.5 -161t-165.5 -98.5q-99 -31 -258 -34v-315h-207v315q-161 3 -260 33q-108 33 -165.5 97.5t-75 158.5t-17.5 215v656h199v-658q0 -65 5 -123.5t38 -101.5t104 -68 q63 -21 172 -24v975z"/>
<glyph unicode="ω" horiz-adv-x="1815" d="M1006 500q0 -105 18 -171.5t51 -104.5t79 -52t99 -14q133 0 191.5 76.5t58.5 254.5q0 58 -7 116.5t-27.5 126t-56.5 147t-93 176.5l162 98q65 -106 107 -197.5t66.5 -174.5t35 -159.5t10.5 -156.5q0 -129 -30 -222t-85 -151.5t-134 -86.5t-175 -28q-160 0 -247 70 t-122 219q-35 -149 -121 -219t-245 -70q-99 0 -177.5 28t-134 86.5t-85 151.5t-29.5 222q0 80 10 156.5t34.5 159.5t66.5 174.5t108 197.5l162 -98q-58 -97 -93.5 -176.5t-56 -147t-28 -126t-7.5 -116.5q0 -178 59.5 -254.5t190.5 -76.5q55 0 100.5 14t79 53t52 104.5 t18.5 170.5v542h195v-542z"/>
<glyph unicode="ϊ" horiz-adv-x="516" d="M160 1139h196v-1139h-196v1139zM-52 1491h182v-229h-182v229zM390 1491h180v-229h-180v229z"/>
<glyph unicode="ϋ" horiz-adv-x="1280" d="M643 -20q-164 0 -263 32.5t-152.5 97t-70 160t-16.5 217.5v652h199v-656q0 -67 5 -125.5t34 -102.5t90 -68.5t174 -24.5t174.5 24.5t90 68.5t32.5 104.5t4 129.5v650h195v-645q0 -127 -15.5 -222.5t-67.5 -161t-150.5 -98t-262.5 -32.5zM326 1491h182v-229h-182v229z M768 1491h180v-229h-180v229z"/>
<glyph unicode="ό" horiz-adv-x="1309" d="M653 -23q-151 0 -257.5 38t-174 113t-98.5 186.5t-31 256.5q0 146 31 257.5t98.5 186.5t174 112.5t257.5 37.5q152 0 258.5 -37.5t174 -112.5t99.5 -186.5t32 -257.5q0 -145 -32 -256.5t-99.5 -186.5t-174 -113t-258.5 -38zM653 158q101 0 169.5 26.5t111.5 78.5 t61.5 129t18.5 175q0 197 -80 302.5t-281 105.5q-200 0 -280 -105.5t-80 -302.5q0 -98 18.5 -175t61.5 -129t111.5 -78.5t168.5 -26.5zM700 1587h188l-174 -332h-157z"/>
<glyph unicode="ύ" horiz-adv-x="1280" d="M643 -20q-164 0 -263 32.5t-152.5 97t-70 160t-16.5 217.5v652h199v-656q0 -67 5 -125.5t34 -102.5t90 -68.5t174 -24.5t174.5 24.5t90 68.5t32.5 104.5t4 129.5v650h195v-645q0 -127 -15.5 -222.5t-67.5 -161t-150.5 -98t-262.5 -32.5zM694 1587h188l-174 -332h-157z "/>
<glyph unicode="ώ" horiz-adv-x="1806" d="M1018 500q0 -105 18 -171.5t51 -104.5t79 -52t99 -14q133 0 191.5 76.5t58.5 254.5q0 58 -7 116.5t-27.5 126t-56.5 147t-93 176.5l162 98q65 -106 107 -197.5t66.5 -174.5t35 -159.5t10.5 -156.5q0 -129 -30 -222t-85 -151.5t-134 -86.5t-175 -28q-160 0 -247 70 t-122 219q-35 -149 -121 -219t-245 -70q-99 0 -177.5 28t-134 86.5t-85 151.5t-29.5 222q0 80 10 156.5t34.5 159.5t66.5 174.5t108 197.5l162 -98q-58 -97 -93.5 -176.5t-56 -147t-28 -126t-7.5 -116.5q0 -178 59.5 -254.5t190.5 -76.5q55 0 100.5 14t79 53t52 104.5 t18.5 170.5v542h195v-542zM989 1587h188l-174 -332h-157z"/>
<glyph unicode="Ё" horiz-adv-x="1335" d="M172 1518h1038v-199h-831v-436h811v-197h-811v-496h840v-190h-1047v1518zM352 1839h182v-229h-182v229zM794 1839h180v-229h-180v229z"/>
<glyph unicode="Ђ" horiz-adv-x="1784" d="M1255 -180h17q45 0 72.5 8t42 27.5t18.5 51.5t4 81v608q0 70 -6 127t-31.5 98t-80 63.5t-150.5 22.5q-105 0 -168.5 -24.5t-98 -67.5t-47 -102.5t-12.5 -130.5v-582h-209v1319h-557v199h1323v-199h-557v-342q16 27 45 50.5t75 40.5t112.5 27.5t156.5 10.5q135 0 216 -34 t125 -96.5t58.5 -149.5t14.5 -193v-643q0 -96 -15.5 -161t-52.5 -102.5t-99 -54t-159 -16.5h-37v164z"/>
<glyph unicode="Ѓ" horiz-adv-x="1221" d="M172 1518h999v-199h-792v-1319h-207v1518zM737 1939h244l-363 -336h-184z"/>
<glyph unicode="Є" horiz-adv-x="1497" d="M840 -23q-385 0 -570.5 200t-185.5 583q0 201 52 348t150.5 243.5t239 143.5t314.5 47t315 -50t244 -149l-142 -149q-77 72 -181.5 110.5t-225.5 38.5q-275 0 -419 -146q-115 -116 -138 -325h889v-192h-893q17 -232 136 -360q138 -148 415 -148q84 0 149.5 12.5t116.5 34 t92 50t76 61.5l135 -144q-41 -41 -93 -78.5t-121 -66.5t-156 -46.5t-199 -17.5z"/>
<glyph unicode="Ѕ" horiz-adv-x="1460" d="M727 -20q-186 0 -349 41.5t-304 138.5l104 159q133 -86 268.5 -121.5t274.5 -35.5q117 0 197.5 15.5t131 47t74 81.5t23.5 120t-30 114t-86 71.5t-135 44t-177 32.5q-131 21 -235.5 47.5t-178.5 72.5t-112.5 119.5t-38.5 192.5q0 230 141 326t428 96q192 0 326.5 -40 t226.5 -99l-113 -170q-78 53 -194.5 86t-245.5 33q-197 0 -281 -54.5t-84 -173.5q0 -65 28 -105t80 -66.5t129 -44t175 -34.5q127 -22 234.5 -46.5t184.5 -70.5t120 -122t43 -199q0 -229 -147.5 -342.5t-477.5 -113.5z"/>
<glyph unicode="І" horiz-adv-x="582" d="M188 1518h205v-1518h-205v1518z"/>
<glyph unicode="Ї" horiz-adv-x="582" d="M188 1518h205v-1518h-205v1518zM-15 1839h182v-229h-182v229zM427 1839h180v-229h-180v229z"/>
<glyph unicode="Ј" horiz-adv-x="848" d="M229 -2h-96q-18 0 -35.5 1t-40.5 1v190h150q151 0 212.5 61.5t61.5 199.5v1067h205v-1076q0 -125 -29.5 -210t-88 -137t-143.5 -74.5t-196 -22.5z"/>
<glyph unicode="Љ" horiz-adv-x="2619" d="M90 190h45q41 0 65.5 7.5t38 24t17.5 43t4 65.5v1188h1258v-570h477q289 0 414.5 -113.5t125.5 -347.5q0 -235 -125.5 -361t-418.5 -126h-676v1323h-846v-1028q0 -164 -60.5 -230.5t-205.5 -66.5h-30q-17 0 -33.5 1t-31 2t-18.5 1v188zM1999 184q162 0 246 64.5t84 228.5 q0 82 -20.5 137.5t-62.5 88t-105.5 46t-147.5 13.5h-475v-578h481z"/>
<glyph unicode="Њ" horiz-adv-x="2535" d="M172 1518h207v-627h854v627h203v-570h477q287 0 412.5 -113.5t125.5 -347.5q0 -116 -29.5 -207.5t-95 -154t-169 -94t-250.5 -31.5h-674v686h-854v-686h-207v1518zM1915 184q162 0 246 64.5t84 228.5q0 82 -20.5 137.5t-62.5 88t-104.5 46t-148.5 13.5h-473v-578h479z "/>
<glyph unicode="Ћ" horiz-adv-x="1784" d="M606 1319h-557v199h1323v-199h-557v-342q16 27 45 50.5t75 40.5t112.5 27.5t156.5 10.5q135 0 216 -34t125 -96.5t58.5 -149.5t14.5 -193v-633h-209v596q0 70 -6 127t-31.5 98t-80 63.5t-150.5 22.5q-105 0 -168.5 -24.5t-98 -67.5t-47 -102.5t-12.5 -130.5v-582h-209 v1319z"/>
<glyph unicode="Ќ" horiz-adv-x="1481" d="M174 1518h203v-603h231l490 603h237l-561 -685l635 -833h-242l-549 721h-241v-721h-203v1518zM864 1941h244l-363 -336h-184z"/>
<glyph unicode="Ў" horiz-adv-x="1434" d="M45 1518h221l485 -941l449 941h209l-627 -1270q-32 -68 -63 -115t-69 -76.5t-88 -44t-124 -14.5h-74q-20 0 -37.5 1t-25.5 1v184h105q40 0 68 4.5t48.5 16.5t34.5 33.5t31 56.5l44 93zM713 1581q-104 0 -174 25.5t-115 70.5t-69.5 105.5t-38.5 130.5l147 30 q11 -45 26 -81.5t44 -62.5t72 -40t108 -14q64 0 108 14t71.5 40t44 62.5t26.5 81.5l150 -28q-17 -72 -41.5 -132.5t-69.5 -105.5t-114.5 -70.5t-174.5 -25.5z"/>
<glyph unicode="Џ" horiz-adv-x="1604" d="M698 0h-526v1518h207v-1332h848v1332h205v-1518h-527v-340h-207v340z"/>
<glyph unicode="А" horiz-adv-x="1520" d="M653 1528h211l609 -1528h-213l-125 319h-758l-125 -319h-207zM1061 510l-307 770l-308 -770h615z"/>
<glyph unicode="Б" horiz-adv-x="1483" d="M172 1518h1032v-199h-835v-401h485q287 0 412 -105.5t125 -339.5q0 -117 -30 -206t-94.5 -148.5t-168 -89t-250.5 -29.5h-676v1518zM854 182q82 0 143.5 13.5t102.5 45t62.5 86t21.5 136.5t-20.5 135t-62.5 83t-104.5 41t-146.5 11h-481v-551h485z"/>
<glyph unicode="В" horiz-adv-x="1468" d="M172 1518h670q266 0 387 -91.5t121 -283.5q0 -133 -43 -223.5t-148 -122.5q129 -33 179.5 -125t50.5 -252q0 -119 -36 -199t-105.5 -129t-175 -70.5t-243.5 -21.5h-657v1518zM852 186q170 0 249 58.5t79 193.5q0 131 -79 188.5t-253 57.5h-473v-498h477zM848 877 q86 0 143.5 17t90 48t46 75t13.5 97q0 107 -66.5 161t-226.5 54h-473v-452h473z"/>
<glyph unicode="Г" horiz-adv-x="1221" d="M172 1518h999v-199h-792v-1319h-207v1518z"/>
<glyph unicode="Д" horiz-adv-x="1794" d="M94 190h51q82 0 104.5 31t22.5 109v1188h1258v-1328h170v-530h-209v340h-1190v-340h-207v530zM1321 184v1139h-846v-1001q0 -43 -5 -79t-34 -59h885z"/>
<glyph unicode="Е" horiz-adv-x="1335" d="M172 1518h1038v-199h-831v-436h811v-197h-811v-496h840v-190h-1047v1518z"/>
<glyph unicode="Ж" horiz-adv-x="2410" d="M313 0h-241l633 835l-560 683h238l489 -603h230v603h205v-603h229l492 603h237l-562 -684l636 -834h-242l-551 721h-239v-721h-205v721h-241z"/>
<glyph unicode="З" horiz-adv-x="1384" d="M686 -25q-192 0 -349 35t-290 113l98 174q123 -66 258.5 -97.5t276.5 -31.5q111 0 189.5 11t129 42t74 85t23.5 140q0 68 -17.5 119t-66.5 84t-137.5 49.5t-229.5 16.5h-334v190h330q113 0 191.5 11.5t128 39t71 72.5t21.5 113q0 61 -22.5 102t-69 63.5t-117 32 t-168.5 9.5q-60 0 -125.5 -7.5t-130 -20.5t-123.5 -33.5t-104 -45.5l-107 168q55 33 127 57.5t152.5 42t163.5 25.5t161 8q135 0 240.5 -18.5t179.5 -59.5t113 -110.5t39 -169.5q0 -78 -10.5 -134.5t-35 -97.5t-63.5 -68.5t-94 -47.5q71 -23 118.5 -54.5t75 -79t39 -113 t11.5 -155.5q0 -135 -44.5 -223t-125 -140.5t-194.5 -74t-253 -21.5z"/>
<glyph unicode="И" horiz-adv-x="1620" d="M172 1518h197v-1158l854 1158h225v-1518h-197v1204l-891 -1204h-188v1518z"/>
<glyph unicode="Й" horiz-adv-x="1620" d="M172 1518h197v-1158l854 1158h225v-1518h-197v1204l-891 -1204h-188v1518zM805 1581q-104 0 -174 25.5t-115 70.5t-69.5 105.5t-38.5 130.5l147 30q11 -45 26 -81.5t44 -62.5t72 -40t108 -14q64 0 108 14t71.5 40t44 62.5t26.5 81.5l150 -28q-17 -72 -41.5 -132.5 t-69.5 -105.5t-114.5 -70.5t-174.5 -25.5z"/>
<glyph unicode="К" horiz-adv-x="1481" d="M174 1518h203v-603h231l490 603h237l-561 -685l635 -833h-242l-549 721h-241v-721h-203v1518z"/>
<glyph unicode="Л" horiz-adv-x="1702" d="M94 190h47q41 0 65.5 7.5t38 24t17.5 43t4 65.5v1188h1264v-1518h-209v1323h-848v-1028q0 -164 -60.5 -230.5t-203.5 -66.5h-30q-17 0 -33.5 1t-31 2t-20.5 1v188z"/>
<glyph unicode="М" horiz-adv-x="1907" d="M172 1518h270l512 -1227l514 1227h267v-1518h-203v1171l-496 -1171h-172l-493 1169v-1169h-199v1518z"/>
<glyph unicode="Н" horiz-adv-x="1612" d="M172 1518h207v-627h854v627h207v-1518h-207v686h-854v-686h-207v1518z"/>
<glyph unicode="О" horiz-adv-x="1718" d="M858 -25q-182 0 -325.5 45.5t-244 140.5t-152.5 243.5t-52 355.5q0 205 52 353.5t152.5 243.5t244 140t325.5 45t325.5 -45t244 -140t152.5 -243.5t52 -353.5q0 -207 -52 -355.5t-152.5 -243.5t-244 -140.5t-325.5 -45.5zM858 168q297 0 432 152.5t135 435.5 q0 282 -135 434.5t-432 152.5t-431 -152.5t-134 -434.5q0 -283 134 -435.5t431 -152.5z"/>
<glyph unicode="П" horiz-adv-x="1604" d="M172 1518h1260v-1518h-207v1323h-850v-1323h-203v1518z"/>
<glyph unicode="Р" horiz-adv-x="1475" d="M172 1518h682q287 0 412 -118t125 -351q0 -117 -30 -210.5t-94.5 -158t-168 -98t-250.5 -33.5h-473v-549h-203v1518zM854 741q162 0 246 66.5t84 230.5q0 84 -20.5 139.5t-62.5 88t-104.5 46t-146.5 13.5h-475v-584h479z"/>
<glyph unicode="С" horiz-adv-x="1497" d="M842 -23q-396 0 -577 200t-181 583q0 201 51 348t149.5 243.5t242 143.5t325.5 47q174 0 309 -50t240 -149l-150 -149q-77 72 -176.5 110.5t-224.5 38.5q-557 0 -557 -585q0 -289 133 -437.5t426 -148.5q82 0 144.5 12.5t110.5 34t85 49t72 60.5l147 -142 q-41 -41 -92 -78.5t-118.5 -66.5t-156 -46.5t-202.5 -17.5z"/>
<glyph unicode="Т" horiz-adv-x="1419" d="M606 1319h-557v199h1323v-199h-557v-1319h-209v1319z"/>
<glyph unicode="У" horiz-adv-x="1434" d="M45 1518h221l485 -941l449 941h209l-627 -1270q-32 -68 -63 -115t-69 -76.5t-88 -44t-124 -14.5h-74q-20 0 -37.5 1t-25.5 1v184h105q40 0 68 4.5t48.5 16.5t34.5 33.5t31 56.5l44 93z"/>
<glyph unicode="Ф" horiz-adv-x="1851" d="M821 1518h207v-106q137 -8 253 -38q157 -41 264.5 -123t164.5 -204.5t57 -286.5t-57 -288t-164.5 -206t-265.5 -122q-116 -29 -252 -37v-107h-207v107q-138 7 -252 37q-155 40 -262.5 122t-165 206t-57.5 288t57.5 286.5t165 204.5t263.5 123q114 30 251 38v106z M1559 756q0 104 -35 190t-112 148.5t-197 96.5q-82 23 -187 30v-929q105 8 186 31q121 35 198 96.5t112 147.5t35 189zM636 1191q-120 -34 -195.5 -96.5t-111.5 -148.5t-36 -190q0 -103 36 -189t111.5 -147.5t195.5 -96.5q81 -23 185 -31v929q-104 -7 -185 -30z"/>
<glyph unicode="Х" horiz-adv-x="1491" d="M125 1518h229l398 -568l387 568h229l-507 -723l558 -795h-233l-447 640l-436 -640h-229l556 795z"/>
<glyph unicode="Ц" horiz-adv-x="1700" d="M1397 0h-1225v1518h207v-1332h848v1332h205v-1328h174v-530h-209v340z"/>
<glyph unicode="Ч" horiz-adv-x="1526" d="M1147 623q-17 -31 -54.5 -61t-99 -53.5t-147.5 -38.5t-199 -15q-164 0 -265 35.5t-158.5 99t-77 151.5t-19.5 195v582h205v-541q0 -74 13 -134.5t54 -101.5t115 -63.5t197 -22.5q135 0 220 27t133 73t65.5 109.5t17.5 136.5v517h207v-1518h-207v623z"/>
<glyph unicode="Ш" horiz-adv-x="2421" d="M172 1530h207v-1344h729v1344h207v-1344h729v1344h205v-1530h-2077v1530z"/>
<glyph unicode="Щ" horiz-adv-x="2515" d="M2214 0h-2042v1530h207v-1344h729v1344h207v-1344h729v1344h205v-1340h172v-530h-207v340z"/>
<glyph unicode="Ъ" horiz-adv-x="1554" d="M252 1319h-172v199h375v-570h479q287 0 411.5 -113.5t124.5 -347.5q0 -116 -29.5 -207.5t-94 -154t-168 -94t-250.5 -31.5h-676v1319zM934 184q162 0 246 64.5t84 228.5q0 82 -20.5 137.5t-62.5 88t-104.5 46t-146.5 13.5h-475v-578h479z"/>
<glyph unicode="Ы" horiz-adv-x="1911" d="M172 1518h203v-570h479q287 0 412 -113.5t125 -347.5q0 -116 -30 -207.5t-94.5 -154t-168 -94t-250.5 -31.5h-676v1518zM854 184q162 0 246 64.5t84 228.5q0 82 -20.5 137.5t-62.5 88t-104.5 46t-146.5 13.5h-475v-578h479zM1534 1518h207v-1518h-207v1518z"/>
<glyph unicode="Ь" horiz-adv-x="1475" d="M172 1518h203v-570h479q287 0 412 -113.5t125 -347.5q0 -116 -30 -207.5t-94.5 -154t-168 -94t-250.5 -31.5h-676v1518zM854 184q162 0 246 64.5t84 228.5q0 82 -20.5 137.5t-62.5 88t-104.5 46t-146.5 13.5h-475v-578h479z"/>
<glyph unicode="Э" horiz-adv-x="1497" d="M311 680v192h888q-23 209 -136 325q-143 146 -416 146q-123 0 -227.5 -38.5t-181.5 -110.5l-142 149q209 199 559 199q174 0 314.5 -47t239 -143.5t150.5 -243.5t52 -348q0 -383 -186.5 -583t-569.5 -200q-112 0 -199 17.5t-156 46.5t-121 66.5t-93 78.5l137 144 q35 -33 75 -61.5t92 -50t116.5 -34t148.5 -12.5q279 0 415 148q117 128 133 360h-892z"/>
<glyph unicode="Ю" horiz-adv-x="2271" d="M172 1518h207v-641h272q11 132 47 236q52 149 149 244t239.5 140t324.5 45t326.5 -45t244 -140t152.5 -243.5t53 -353.5q0 -207 -53 -355.5t-152.5 -243.5t-244 -140.5t-326.5 -45.5t-324.5 45.5t-239.5 140.5t-149 243q-41 120 -49 278h-270v-682h-207v1518zM1411 168 q297 0 431 152.5t134 435.5q0 282 -134 434.5t-431 152.5t-431 -152.5t-134 -434.5q0 -283 134 -435.5t431 -152.5z"/>
<glyph unicode="Я" horiz-adv-x="1499" d="M1124 584h-425l-337 -584h-221l346 597q-41 8 -78 19q-102 33 -167.5 94.5t-95 149.5t-29.5 199q0 223 122.5 341t411.5 118h676v-1518h-203v584zM1124 772v557h-465q-79 0 -141.5 -13t-105.5 -45t-64.5 -85t-21.5 -135t22.5 -135.5t64.5 -85t102 -45t138 -13.5h471z"/>
<glyph unicode="а" horiz-adv-x="1284" d="M487 -20q-122 0 -201 26.5t-125 72.5t-63.5 109.5t-17.5 135.5q0 120 37 201t125 129t232 67.5t357 19.5h61q-1 49 -7 88q-8 52 -38 84.5t-86 49t-153 16.5q-108 0 -195 -30.5t-141 -65.5l-104 155q29 19 75 41.5t106.5 42t131 31.5t146.5 12q145 0 235 -25.5 t139.5 -80.5t66.5 -142.5t17 -207.5v-406q0 -41 3.5 -66.5t14.5 -39t33.5 -17.5t61.5 -4v-174q-10 -4 -31 -4h-51q-47 0 -78.5 7t-54 22.5t-37 40t-24.5 59.5q-52 -72 -152 -109.5t-283 -37.5zM554 560q-112 -11 -174.5 -37.5t-86 -71.5t-23.5 -113q0 -90 52.5 -138 t197.5 -48q199 0 286 82.5t87 267.5v69h-51q-176 0 -288 -11z"/>
<glyph unicode="б" horiz-adv-x="1309" d="M655 -23q-288 0 -425.5 147.5t-137.5 473.5v233q0 240 48 388.5t134 230.5t205 110.5t260 28.5h170v-186h-161q-107 0 -192 -21.5t-143.5 -73t-89 -133t-30.5 -204.5q47 78 146.5 117.5t271.5 39.5q149 0 247.5 -43t155.5 -119.5t80 -183t23 -235.5q0 -133 -31 -238.5 t-97.5 -179.5t-173 -113t-260.5 -39zM655 158q199 0 279 101t80 292q0 194 -80 292.5t-279 98.5q-198 0 -280 -98.5t-82 -292.5q0 -193 82 -293t280 -100z"/>
<glyph unicode="в" horiz-adv-x="1270" d="M147 1139h572q215 0 315.5 -59.5t100.5 -215.5q0 -102 -29 -170.5t-119 -95.5q103 -25 140.5 -91.5t37.5 -191.5q0 -96 -27.5 -157.5t-85 -96t-142.5 -48t-199 -13.5h-564v1139zM727 174q125 0 184.5 33t59.5 133q0 90 -58.5 125t-189.5 35h-387v-326h391zM723 672 q65 0 107 10t67 30.5t35 48t10 64.5q0 78 -50 107t-169 29h-387v-289h387z"/>
<glyph unicode="г" horiz-adv-x="1053" d="M147 1139h859v-181h-658v-958h-201v1139z"/>
<glyph unicode="д" horiz-adv-x="1528" d="M90 176h45q41 0 65.5 7t38 23.5t17.5 43t4 67.5v822h1006v-963h172v-516h-189v340h-973v-340h-186v516zM1069 166v797h-608v-658q0 -51 -8.5 -84t-30.5 -55h647z"/>
<glyph unicode="е" horiz-adv-x="1229" d="M651 -23q-176 0 -284.5 46.5t-170 127t-83 189.5t-21.5 231q0 123 22.5 231.5t84 188.5t170 127t278.5 47q176 0 273.5 -56t144.5 -149.5t55 -215.5q6 -97 6 -199v-51h-841q3 -51 11 -96q13 -76 53 -131.5t111.5 -86t190.5 -30.5q137 0 217 31.5t146 80.5l106 -139 q-90 -72 -198.5 -109t-270.5 -37zM938 670q-4 67 -13.5 125.5t-38 101.5t-87 67.5t-158.5 24.5q-115 0 -184.5 -30.5t-108.5 -87t-52 -134.5q-6 -32 -9 -67h651z"/>
<glyph unicode="ж" horiz-adv-x="1819" d="M1008 0h-197v516h-164l-381 -516h-233l460 616l-419 523h229l346 -437h162v437h197v-437h159l346 437h232l-420 -523l461 -616h-234l-382 516h-162v-516z"/>
<glyph unicode="з" horiz-adv-x="1174" d="M561 -25q-149 0 -282.5 28t-235.5 87l88 158q92 -49 193.5 -71.5t216.5 -22.5q92 0 153.5 6t100.5 26.5t55 56.5t16 97q0 51 -11 86t-48 56.5t-106.5 30.5t-186.5 9h-252v178h248q96 0 158.5 5.5t99.5 21.5t51.5 46t14.5 79q0 45 -16.5 70.5t-51.5 40t-91.5 18.5 t-137.5 4q-48 0 -99 -5t-100 -15.5t-93 -24.5t-77 -33l-98 156q43 24 103 43.5t126 33t135.5 19.5t130.5 6q119 0 208 -13t147.5 -44t87 -83t28.5 -132q0 -117 -32.5 -176.5t-118.5 -87.5q57 -15 93 -39.5t55.5 -61t26.5 -87t7 -117.5q0 -105 -33 -172.5t-96.5 -106.5 t-157.5 -54.5t-219 -15.5z"/>
<glyph unicode="и" horiz-adv-x="1309" d="M147 1139h195v-809l600 809h217v-1139h-194v856l-635 -856h-183v1139z"/>
<glyph unicode="й" horiz-adv-x="1309" d="M147 1139h195v-809l600 809h217v-1139h-194v856l-635 -856h-183v1139zM651 1233q-104 0 -174 25.5t-115 70.5t-69.5 105.5t-38.5 130.5l147 30q11 -45 26 -81.5t44 -62.5t72 -40t108 -14q64 0 108 14t71.5 40t44 62.5t26.5 81.5l150 -28q-17 -72 -41.5 -132.5 t-69.5 -105.5t-114.5 -70.5t-174.5 -25.5z"/>
<glyph unicode="к" horiz-adv-x="1155" d="M344 0h-197v1139h197v-439h162l346 439h229l-419 -522l460 -617h-233l-380 516h-165v-516z"/>
<glyph unicode="л" horiz-adv-x="1417" d="M90 176h45q82 0 105.5 31t23.5 110v822h1004v-1139h-199v963h-608v-668q0 -82 -13.5 -138.5t-44 -92t-80 -51t-120.5 -15.5h-30q-17 0 -33.5 1t-31 2t-18.5 1v174z"/>
<glyph unicode="м" horiz-adv-x="1548" d="M147 1139h252l389 -877l388 877h247v-1139h-198v827l-363 -827h-164l-364 827v-827h-187v1139z"/>
<glyph unicode="н" horiz-adv-x="1305" d="M147 1139h201v-453h608v453h199v-1139h-199v498h-608v-498h-201v1139z"/>
<glyph unicode="о" horiz-adv-x="1309" d="M653 -23q-151 0 -257.5 38t-174 113t-98.5 186.5t-31 256.5q0 146 31 257.5t98.5 186.5t174 112.5t257.5 37.5q152 0 258.5 -37.5t174 -112.5t99.5 -186.5t32 -257.5q0 -145 -32 -256.5t-99.5 -186.5t-174 -113t-258.5 -38zM653 158q101 0 169.5 26.5t111.5 78.5 t61.5 129t18.5 175q0 197 -80 302.5t-281 105.5q-200 0 -280 -105.5t-80 -302.5q0 -98 18.5 -175t61.5 -129t111.5 -78.5t168.5 -26.5z"/>
<glyph unicode="п" horiz-adv-x="1303" d="M147 1139h1006v-1139h-199v963h-610v-963h-197v1139z"/>
<glyph unicode="р" horiz-adv-x="1343" d="M147 1128l158 11l17 -121q45 72 148 109.5t294 37.5q143 0 237.5 -44t149.5 -121.5t77.5 -187.5t22.5 -241q0 -129 -22.5 -237.5t-79.5 -187t-152.5 -121.5t-240.5 -43q-178 0 -271.5 33.5t-136.5 103.5v-457h-201v1466zM721 162q96 0 159.5 27.5t100.5 80t52.5 127 t15.5 168.5t-14.5 170t-51.5 129.5t-100.5 82t-161.5 28.5q-100 0 -171 -21.5t-116 -69.5t-65.5 -127t-20.5 -192q0 -112 19.5 -189t63.5 -125t115.5 -68.5t174.5 -20.5z"/>
<glyph unicode="с" horiz-adv-x="1165" d="M647 -20q-164 0 -271.5 43t-170 120.5t-88 186t-25.5 241.5q0 131 25.5 241t89 188.5t172 121.5t276.5 43q154 0 256.5 -48t167.5 -122l-145 -137q-41 41 -104.5 78t-174.5 37q-104 0 -174.5 -27.5t-111.5 -80t-58.5 -128t-17.5 -170.5q0 -96 16.5 -172t58.5 -128 t111.5 -80.5t175.5 -28.5q93 0 158.5 28.5t130.5 87.5l133 -127q-43 -41 -88 -71.5t-95 -52t-110.5 -32.5t-136.5 -11z"/>
<glyph unicode="т" horiz-adv-x="1139" d="M469 958h-420v181h1041v-181h-420v-958h-201v958z"/>
<glyph unicode="у" horiz-adv-x="1114" d="M14 1139h213l335 -889l331 889h209l-484 -1235q-24 -66 -55 -113t-71.5 -76.5t-97 -44t-132.5 -14.5h-51q-35 0 -53 2v162h88q84 0 119.5 21.5t56.5 82.5l34 89z"/>
<glyph unicode="ф" horiz-adv-x="2183" d="M995 121q-53 -74 -149 -107.5t-264 -33.5q-144 0 -238 44t-150.5 122.5t-79 188t-22.5 240.5q0 130 23.5 238.5t80 187t151.5 121.5t241 43q178 0 272 -33.5t135 -103.5v561h191v-563q47 72 145.5 105.5t272.5 33.5q143 0 236 -44t148.5 -121.5t78 -187.5t22.5 -241 q0 -129 -22.5 -237.5t-79 -187t-152.5 -121.5t-242 -43q-176 0 -269 33.5t-138 103.5v-457h-191v459zM625 162q100 0 170.5 22.5t114.5 71.5t64.5 128t20.5 191q0 113 -19.5 190t-63.5 124t-114.5 67.5t-172.5 20.5q-99 0 -162.5 -27.5t-101 -80t-52 -127t-14.5 -167.5 q0 -94 14.5 -170.5t52 -130t101 -83t162.5 -29.5zM1559 162q98 0 161.5 27.5t100.5 80t52 127t15 168.5t-14 170t-52 129.5t-101.5 82t-161.5 28.5q-101 0 -171.5 -21.5t-115.5 -69.5t-65.5 -127t-20.5 -192q0 -112 19.5 -189t63.5 -125t115.5 -68.5t174.5 -20.5z"/>
<glyph unicode="х" horiz-adv-x="1139" d="M70 1139h221l286 -400l279 400h215l-390 -546l425 -593h-223l-322 450l-311 -450h-217l425 595z"/>
<glyph unicode="ц" horiz-adv-x="1415" d="M1137 0h-990v1139h201v-967h608v967h197v-963h172v-516h-188v340z"/>
<glyph unicode="ч" horiz-adv-x="1288" d="M942 418q-35 -56 -130 -96.5t-277 -40.5q-136 0 -219 33.5t-128 96t-60 149.5t-15 192v387h198v-348q0 -70 8.5 -127.5t38 -99.5t87 -64.5t153.5 -22.5q104 0 171 25.5t104.5 69.5t52 106.5t14.5 136.5v324h199v-1139h-197v418z"/>
<glyph unicode="ш" horiz-adv-x="2056" d="M147 1139h201v-967h584v967h196v-967h584v967h195v-1139h-1760v1139z"/>
<glyph unicode="щ" horiz-adv-x="2169" d="M1892 0h-1745v1139h201v-967h584v967h196v-967h584v967h195v-963h172v-516h-187v340z"/>
<glyph unicode="ъ" horiz-adv-x="1378" d="M260 958h-170v181h369v-330h407q217 0 315.5 -103.5t98.5 -291.5q0 -95 -23.5 -170.5t-73.5 -130t-130 -84t-191 -29.5h-602v958zM834 166q122 0 182.5 56.5t60.5 183.5q0 129 -60.5 181t-187.5 52h-370v-473h375z"/>
<glyph unicode="ы" horiz-adv-x="1634" d="M147 1139h197v-330h410q217 0 315 -103.5t98 -291.5q0 -95 -23.5 -170.5t-73.5 -130t-130 -84t-190 -29.5h-603v1139zM721 166q123 0 183.5 56.5t60.5 183.5q0 129 -60.5 181t-187.5 52h-373v-473h377zM1286 1139h201v-1139h-201v1139z"/>
<glyph unicode="ь" horiz-adv-x="1268" d="M147 1139h197v-328h410q217 0 315 -104.5t98 -292.5q0 -95 -23.5 -170.5t-73.5 -130t-130 -84t-190 -29.5h-603v1139zM721 166q123 0 183.5 56.5t60.5 183.5q0 129 -60.5 181t-187.5 52h-373v-473h377z"/>
<glyph unicode="э" horiz-adv-x="1165" d="M250 492v178h622q-4 43 -13 80q-17 79 -59 130.5t-113 77t-175 25.5q-106 0 -176 -41t-111 -84l-135 137q66 74 168 122t258 48q166 0 273.5 -42t171 -119.5t88 -187t24.5 -245.5q0 -135 -24.5 -244.5t-88 -186.5t-170 -118.5t-270.5 -41.5q-76 0 -136 11t-111.5 32.5 t-96.5 52t-90 71.5l125 125q65 -59 136 -86.5t165 -27.5q106 0 177 24.5t112 74.5t58 128q11 48 15 107h-624z"/>
<glyph unicode="ю" horiz-adv-x="1731" d="M147 1139h201v-459h180q7 82 26 150q30 112 95.5 186t170 111.5t255.5 37.5q152 0 258.5 -37.5t174 -111.5t98 -185.5t30.5 -259.5q0 -147 -30.5 -258.5t-98 -185.5t-174 -112t-258.5 -38q-151 0 -255.5 38t-170 112t-95.5 185q-23 84 -29 188h-177v-500h-201v1139z M1075 158q203 0 283 103.5t80 305.5q0 203 -80 305.5t-283 102.5q-201 0 -279.5 -102.5t-78.5 -305.5q0 -202 78.5 -305.5t279.5 -103.5z"/>
<glyph unicode="я" horiz-adv-x="1296" d="M950 399h-383l-229 -399h-213l239 416q-92 22 -150 72q-105 90 -105 282q0 191 104 280t315 89h621v-1139h-199v399zM950 569v394h-413q-111 0 -168.5 -41t-57.5 -158q0 -115 56.5 -155t164.5 -40h418z"/>
<glyph unicode="ё" horiz-adv-x="1229" d="M651 -23q-176 0 -284.5 46.5t-170 127t-83 189.5t-21.5 231q0 123 22.5 231.5t84 188.5t170 127t278.5 47q176 0 273.5 -56t144.5 -149.5t55 -215.5q6 -97 6 -199v-51h-841q3 -51 11 -96q13 -76 53 -131.5t111.5 -86t190.5 -30.5q137 0 217 31.5t146 80.5l106 -139 q-90 -72 -198.5 -109t-270.5 -37zM938 670q-4 67 -13.5 125.5t-38 101.5t-87 67.5t-158.5 24.5q-115 0 -184.5 -30.5t-108.5 -87t-52 -134.5q-6 -32 -9 -67h651zM299 1491h182v-229h-182v229zM741 1491h180v-229h-180v229z"/>
<glyph unicode="ђ" horiz-adv-x="1307" d="M811 -180h16q43 0 70 8t42 24.5t21.5 46t6.5 72.5v666q0 68 -7.5 126t-35 99t-83 64.5t-151.5 23.5q-104 0 -169.5 -25.5t-101.5 -70.5t-48.5 -106.5t-12.5 -135.5v-612h-198v1249h-170v181h170v159h198v-159h283v-181h-283v-227q17 25 46.5 47.5t77.5 39.5t115 27.5 t157 10.5q135 0 216 -34t124 -96.5t56 -149.5t13 -193v-727q0 -82 -15 -138.5t-52 -90t-97.5 -48t-150.5 -14.5h-37v164z"/>
<glyph unicode="ѓ" horiz-adv-x="1053" d="M147 1139h859v-181h-658v-958h-201v1139zM662 1591h244l-363 -336h-184z"/>
<glyph unicode="є" horiz-adv-x="1165" d="M647 -20q-164 0 -271.5 41.5t-170 118.5t-88 186.5t-25.5 244.5q0 136 25.5 245.5t89 187t172 119.5t276.5 42q154 0 256.5 -48t167.5 -122l-137 -137q-20 21 -47 43.5t-61.5 41t-78.5 29.5t-100 11q-104 0 -174.5 -25.5t-113.5 -77t-61 -130.5q-8 -37 -13 -80h625v-178 h-627q4 -59 15 -107q18 -78 60 -128t112.5 -74.5t176.5 -24.5q93 0 163.5 27.5t133.5 86.5l125 -125q-43 -41 -88 -71.5t-95 -52t-110.5 -32.5t-136.5 -11z"/>
<glyph unicode="ѕ" horiz-adv-x="1098" d="M543 -20q-123 0 -249 27.5t-243 105.5l103 155q98 -63 203.5 -88.5t197.5 -25.5q145 0 209.5 32.5t64.5 135.5q0 40 -14 66t-47 44.5t-85 30.5t-128 24q-100 19 -183 39.5t-141.5 57.5t-90 97t-31.5 159q0 155 101 240t345 85q133 0 242.5 -26.5t191.5 -73.5l-94 -164 q-66 35 -151 57.5t-185 22.5q-74 0 -123 -9t-77.5 -27.5t-40 -45.5t-11.5 -59q0 -41 13.5 -66.5t44 -44t80 -31t118.5 -24.5q105 -19 190 -39.5t145 -56t92 -94t32 -154.5q0 -99 -27.5 -165.5t-86 -107.5t-149.5 -59t-216 -18z"/>
<glyph unicode="і" horiz-adv-x="516" d="M160 1139h196v-1139h-196v1139zM158 1518h200v-242h-200v242z"/>
<glyph unicode="ї" horiz-adv-x="516" d="M-18 1509h163v-231h-163v231zM373 1509h164v-231h-164v231zM160 1139h196v-1139h-196v1139z"/>
<glyph unicode="ј" horiz-adv-x="516" d="M4 -180h16q46 0 73.5 8t42 27.5t19.5 51.5t5 81v1151h196v-1149q0 -96 -13 -161t-48 -102.5t-96.5 -54t-157.5 -16.5h-37v164zM158 1518h200v-242h-200v242z"/>
<glyph unicode="љ" horiz-adv-x="2171" d="M90 176h45q82 0 105.5 31t23.5 110v822h991v-330h406q217 0 314.5 -103.5t97.5 -291.5q0 -95 -24 -170.5t-75 -130t-130 -84t-189 -29.5h-592v963h-602v-668q0 -82 -13.5 -138.5t-44 -92t-80 -51t-120.5 -15.5h-30q-17 0 -33.5 1t-31 2t-18.5 1v174zM1628 166 q121 0 181.5 56.5t60.5 183.5q0 129 -60.5 181t-187.5 52h-367v-473h373z"/>
<glyph unicode="њ" horiz-adv-x="2058" d="M147 1139h201v-453h602v453h195v-330h403q215 0 313.5 -104.5t98.5 -290.5q0 -95 -23.5 -170.5t-74 -130t-129 -84t-189.5 -29.5h-594v498h-602v-498h-201v1139zM1516 166q120 0 180.5 56.5t60.5 183.5q0 129 -59.5 181t-186.5 52h-366v-473h371z"/>
<glyph unicode="ћ" horiz-adv-x="1307" d="M-10 1430h170v159h198v-159h283v-181h-283v-227q17 25 46.5 47.5t77.5 39.5t115 27.5t157 10.5q135 0 216 -34t124 -96.5t56 -149.5t13 -193v-674h-196v637q0 68 -7.5 126t-35 99t-83 64.5t-151.5 23.5q-104 0 -169.5 -25.5t-101.5 -70.5t-48.5 -106.5t-12.5 -135.5v-612 h-198v1249h-170v181z"/>
<glyph unicode="ќ" horiz-adv-x="1155" d="M344 0h-197v1139h197v-439h162l346 439h229l-419 -522l460 -617h-233l-380 516h-165v-516zM760 1591h244l-363 -336h-184z"/>
<glyph unicode="ў" horiz-adv-x="1114" d="M14 1139h213l335 -889l331 889h209l-484 -1235q-24 -66 -55 -113t-71.5 -76.5t-97 -44t-132.5 -14.5h-51q-35 0 -53 2v162h88q84 0 119.5 21.5t56.5 82.5l34 89zM562 1233q-104 0 -174 25.5t-115 70.5t-69.5 105.5t-38.5 130.5l147 30q11 -45 26 -81.5t44 -62.5t72 -40 t108 -14q64 0 108 14t71.5 40t44 62.5t26.5 81.5l150 -28q-17 -72 -41.5 -132.5t-69.5 -105.5t-114.5 -70.5t-174.5 -25.5z"/>
<glyph unicode="џ" horiz-adv-x="1303" d="M557 0h-410v1139h201v-967h608v967h197v-1139h-408v-340h-188v340z"/>
<glyph unicode="Ґ" horiz-adv-x="1221" d="M172 1518h791v340h208v-539h-792v-1319h-207v1518z"/>
<glyph unicode="ґ" horiz-adv-x="1053" d="M147 1139h668v340h191v-521h-658v-958h-201v1139z"/>
<glyph unicode="Ẁ" horiz-adv-x="2218" d="M63 1518h216l368 -1182l377 1182h182l377 -1182l369 1182h202l-481 -1528h-182l-381 1190l-379 -1190h-184zM737 1941h244l303 -336h-184z"/>
<glyph unicode="ẁ" horiz-adv-x="1819" d="M27 1139h209l294 -860l283 860h197l282 -858l297 858h203l-401 -1149h-199l-283 848l-282 -848h-201zM530 1591h244l303 -336h-184z"/>
<glyph unicode="Ẃ" horiz-adv-x="2218" d="M63 1518h216l368 -1182l377 1182h182l377 -1182l369 1182h202l-481 -1528h-182l-381 1190l-379 -1190h-184zM1243 1941h244l-363 -336h-184z"/>
<glyph unicode="ẃ" horiz-adv-x="1819" d="M27 1139h209l294 -860l283 860h197l282 -858l297 858h203l-401 -1149h-199l-283 848l-282 -848h-201zM1036 1591h244l-363 -336h-184z"/>
<glyph unicode="Ẅ" horiz-adv-x="2218" d="M63 1518h216l368 -1182l377 1182h182l377 -1182l369 1182h202l-481 -1528h-182l-381 1190l-379 -1190h-184zM797 1841h182v-229h-182v229zM1239 1841h180v-229h-180v229z"/>
<glyph unicode="ẅ" horiz-adv-x="1819" d="M27 1139h209l294 -860l283 860h197l282 -858l297 858h203l-401 -1149h-199l-283 848l-282 -848h-201zM594 1491h182v-229h-182v229zM1036 1491h180v-229h-180v229z"/>
<glyph unicode="Ạ" horiz-adv-x="1520" d="M653 1528h211l609 -1528h-213l-125 319h-758l-125 -319h-207zM1061 510l-307 770l-308 -770h615zM658 -130h201v-238h-201v238z"/>
<glyph unicode="ạ" horiz-adv-x="1284" d="M487 -20q-122 0 -201 26.5t-125 72.5t-63.5 109.5t-17.5 135.5q0 120 37 201t125 129t232 67.5t357 19.5h61q-1 49 -7 88q-8 52 -38 84.5t-86 49t-153 16.5q-108 0 -195 -30.5t-141 -65.5l-104 155q29 19 75 41.5t106.5 42t131 31.5t146.5 12q145 0 235 -25.5 t139.5 -80.5t66.5 -142.5t17 -207.5v-406q0 -41 3.5 -66.5t14.5 -39t33.5 -17.5t61.5 -4v-174q-10 -4 -31 -4h-51q-47 0 -78.5 7t-54 22.5t-37 40t-24.5 59.5q-52 -72 -152 -109.5t-283 -37.5zM554 560q-112 -11 -174.5 -37.5t-86 -71.5t-23.5 -113q0 -90 52.5 -138 t197.5 -48q199 0 286 82.5t87 267.5v69h-51q-176 0 -288 -11zM535 -130h201v-238h-201v238z"/>
<glyph unicode="Ả" horiz-adv-x="1520" d="M653 1528h211l609 -1528h-213l-125 319h-758l-125 -319h-207zM1061 510l-307 770l-308 -770h615zM688 1579q-10 76 8.5 123t88.5 90q53 32 73.5 50.5t20.5 49.5t-25.5 51.5t-99.5 20.5q-96 0 -178 -41l-58 121q48 24 111.5 36.5t132.5 12.5q148 0 210.5 -51.5 t62.5 -126.5q0 -72 -32 -112t-91 -75q-29 -16 -45.5 -30.5t-25.5 -30t-12 -37t-1 -51.5h-140z"/>
<glyph unicode="ả" horiz-adv-x="1284" d="M487 -20q-122 0 -201 26.5t-125 72.5t-63.5 109.5t-17.5 135.5q0 120 37 201t125 129t232 67.5t357 19.5h61q-1 49 -7 88q-8 52 -38 84.5t-86 49t-153 16.5q-108 0 -195 -30.5t-141 -65.5l-104 155q29 19 75 41.5t106.5 42t131 31.5t146.5 12q145 0 235 -25.5 t139.5 -80.5t66.5 -142.5t17 -207.5v-406q0 -41 3.5 -66.5t14.5 -39t33.5 -17.5t61.5 -4v-174q-10 -4 -31 -4h-51q-47 0 -78.5 7t-54 22.5t-37 40t-24.5 59.5q-52 -72 -152 -109.5t-283 -37.5zM554 560q-112 -11 -174.5 -37.5t-86 -71.5t-23.5 -113q0 -90 52.5 -138 t197.5 -48q199 0 286 82.5t87 267.5v69h-51q-176 0 -288 -11zM557 1231q-10 76 8.5 123t88.5 90q53 32 73.5 50.5t20.5 49.5t-25.5 51.5t-99.5 20.5q-96 0 -178 -41l-58 121q48 24 111.5 36.5t132.5 12.5q148 0 210.5 -51.5t62.5 -126.5q0 -72 -32 -112t-91 -75 q-29 -16 -45.5 -30.5t-25.5 -30t-12 -37t-1 -51.5h-140z"/>
<glyph unicode="Ấ" horiz-adv-x="1520" d="M653 1528h211l609 -1528h-213l-125 319h-758l-125 -319h-207zM1061 510l-307 770l-308 -770h615zM413 2115h242l-362 -335h-183zM647 1941h215l313 -336h-192l-232 205l-225 -205h-193z"/>
<glyph unicode="ấ" horiz-adv-x="1284" d="M487 -20q-122 0 -201 26.5t-125 72.5t-63.5 109.5t-17.5 135.5q0 120 37 201t125 129t232 67.5t357 19.5h61q-1 49 -7 88q-8 52 -38 84.5t-86 49t-153 16.5q-108 0 -195 -30.5t-141 -65.5l-104 155q29 19 75 41.5t106.5 42t131 31.5t146.5 12q145 0 235 -25.5 t139.5 -80.5t66.5 -142.5t17 -207.5v-406q0 -41 3.5 -66.5t14.5 -39t33.5 -17.5t61.5 -4v-174q-10 -4 -31 -4h-51q-47 0 -78.5 7t-54 22.5t-37 40t-24.5 59.5q-52 -72 -152 -109.5t-283 -37.5zM554 560q-112 -11 -174.5 -37.5t-86 -71.5t-23.5 -113q0 -90 52.5 -138 t197.5 -48q199 0 286 82.5t87 267.5v69h-51q-176 0 -288 -11zM302 1765h242l-362 -335h-183zM536 1591h215l313 -336h-192l-232 205l-225 -205h-193z"/>
<glyph unicode="Ầ" horiz-adv-x="1520" d="M653 1528h211l609 -1528h-213l-125 319h-758l-125 -319h-207zM1061 510l-307 770l-308 -770h615zM864 2115h242l303 -335h-184zM649 1941h215l314 -336h-193l-231 205l-225 -205h-193z"/>
<glyph unicode="ầ" horiz-adv-x="1284" d="M487 -20q-122 0 -201 26.5t-125 72.5t-63.5 109.5t-17.5 135.5q0 120 37 201t125 129t232 67.5t357 19.5h61q-1 49 -7 88q-8 52 -38 84.5t-86 49t-153 16.5q-108 0 -195 -30.5t-141 -65.5l-104 155q29 19 75 41.5t106.5 42t131 31.5t146.5 12q145 0 235 -25.5 t139.5 -80.5t66.5 -142.5t17 -207.5v-406q0 -41 3.5 -66.5t14.5 -39t33.5 -17.5t61.5 -4v-174q-10 -4 -31 -4h-51q-47 0 -78.5 7t-54 22.5t-37 40t-24.5 59.5q-52 -72 -152 -109.5t-283 -37.5zM554 560q-112 -11 -174.5 -37.5t-86 -71.5t-23.5 -113q0 -90 52.5 -138 t197.5 -48q199 0 286 82.5t87 267.5v69h-51q-176 0 -288 -11zM749 1765h242l303 -335h-184zM534 1591h215l314 -336h-193l-231 205l-225 -205h-193z"/>
<glyph unicode="Ẩ" horiz-adv-x="1520" d="M653 1528h211l609 -1528h-213l-125 319h-758l-125 -319h-207zM1061 510l-307 770l-308 -770h615zM648 1941h215l313 -336h-193l-231 205l-227 -205h-191zM687 1992q-11 76 7.5 122t88.5 89q53 35 73.5 52.5t20.5 50.5q0 31 -25.5 51.5t-99.5 20.5q-96 0 -178 -41l-57 118 q47 27 110.5 39.5t132.5 12.5q148 0 210.5 -51.5t62.5 -129.5q0 -71 -32 -110t-91 -74q-29 -16 -45.5 -30.5t-25.5 -31t-12.5 -37t-0.5 -51.5h-139z"/>
<glyph unicode="ẩ" horiz-adv-x="1284" d="M487 -20q-122 0 -201 26.5t-125 72.5t-63.5 109.5t-17.5 135.5q0 120 37 201t125 129t232 67.5t357 19.5h61q-1 49 -7 88q-8 52 -38 84.5t-86 49t-153 16.5q-108 0 -195 -30.5t-141 -65.5l-104 155q29 19 75 41.5t106.5 42t131 31.5t146.5 12q145 0 235 -25.5 t139.5 -80.5t66.5 -142.5t17 -207.5v-406q0 -41 3.5 -66.5t14.5 -39t33.5 -17.5t61.5 -4v-174q-10 -4 -31 -4h-51q-47 0 -78.5 7t-54 22.5t-37 40t-24.5 59.5q-52 -72 -152 -109.5t-283 -37.5zM554 560q-112 -11 -174.5 -37.5t-86 -71.5t-23.5 -113q0 -90 52.5 -138 t197.5 -48q199 0 286 82.5t87 267.5v69h-51q-176 0 -288 -11zM533 1591h215l313 -336h-193l-231 205l-227 -205h-191zM572 1642q-11 76 7.5 122t88.5 89q53 35 73.5 52.5t20.5 50.5q0 31 -25.5 51.5t-99.5 20.5q-96 0 -178 -41l-57 118q47 27 110.5 39.5t132.5 12.5 q148 0 210.5 -51.5t62.5 -129.5q0 -71 -32 -110t-91 -74q-29 -16 -45.5 -30.5t-25.5 -31t-12.5 -37t-0.5 -51.5h-139z"/>
<glyph unicode="Ẫ" horiz-adv-x="1520" d="M653 1528h211l609 -1528h-213l-125 319h-758l-125 -319h-207zM1061 510l-307 770l-308 -770h615zM347 2089q59 73 131.5 122.5t144.5 49.5q51 0 88 -16.5t67 -34.5l61 -36q30 -16 67 -16q39 0 81 31t83 82l116 -96q-61 -74 -132 -127t-144 -53q-47 0 -84 16 q-37 17 -70 35l-64 34q-31 16 -67 17q-35 0 -77 -26.5t-81 -75.5zM648 1941h215l313 -336h-193l-231 205l-227 -205h-191z"/>
<glyph unicode="ẫ" horiz-adv-x="1284" d="M487 -20q-122 0 -201 26.5t-125 72.5t-63.5 109.5t-17.5 135.5q0 120 37 201t125 129t232 67.5t357 19.5h61q-1 49 -7 88q-8 52 -38 84.5t-86 49t-153 16.5q-108 0 -195 -30.5t-141 -65.5l-104 155q29 19 75 41.5t106.5 42t131 31.5t146.5 12q145 0 235 -25.5 t139.5 -80.5t66.5 -142.5t17 -207.5v-406q0 -41 3.5 -66.5t14.5 -39t33.5 -17.5t61.5 -4v-174q-10 -4 -31 -4h-51q-47 0 -78.5 7t-54 22.5t-37 40t-24.5 59.5q-52 -72 -152 -109.5t-283 -37.5zM554 560q-112 -11 -174.5 -37.5t-86 -71.5t-23.5 -113q0 -90 52.5 -138 t197.5 -48q199 0 286 82.5t87 267.5v69h-51q-176 0 -288 -11zM234 1739q59 73 131.5 122.5t144.5 49.5q51 0 88 -16.5t67 -34.5l61 -36q30 -16 67 -16q39 0 81 31t83 82l116 -96q-61 -74 -132 -127t-144 -53q-47 0 -84 16q-37 17 -70 35l-64 34q-31 16 -67 17 q-35 0 -77 -26.5t-81 -75.5zM535 1591h215l313 -336h-193l-231 205l-227 -205h-191z"/>
<glyph unicode="Ậ" horiz-adv-x="1520" d="M653 1528h211l609 -1528h-213l-125 319h-758l-125 -319h-207zM1061 510l-307 770l-308 -770h615zM648 1941h215l313 -336h-193l-231 207l-227 -207h-191zM658 -130h201v-238h-201v238z"/>
<glyph unicode="ậ" horiz-adv-x="1284" d="M487 -20q-122 0 -201 26.5t-125 72.5t-63.5 109.5t-17.5 135.5q0 120 37 201t125 129t232 67.5t357 19.5h61q-1 49 -7 88q-8 52 -38 84.5t-86 49t-153 16.5q-108 0 -195 -30.5t-141 -65.5l-104 155q29 19 75 41.5t106.5 42t131 31.5t146.5 12q145 0 235 -25.5 t139.5 -80.5t66.5 -142.5t17 -207.5v-406q0 -41 3.5 -66.5t14.5 -39t33.5 -17.5t61.5 -4v-174q-10 -4 -31 -4h-51q-47 0 -78.5 7t-54 22.5t-37 40t-24.5 59.5q-52 -72 -152 -109.5t-283 -37.5zM554 560q-112 -11 -174.5 -37.5t-86 -71.5t-23.5 -113q0 -90 52.5 -138 t197.5 -48q199 0 286 82.5t87 267.5v69h-51q-176 0 -288 -11zM535 1591h215l313 -336h-193l-231 207l-227 -207h-191zM535 -130h201v-238h-201v238z"/>
<glyph unicode="Ắ" horiz-adv-x="1520" d="M653 1528h211l609 -1528h-213l-125 319h-758l-125 -319h-207zM1061 510l-307 770l-308 -770h615zM955 2335h241l-360 -336h-184zM756 1583q-104 0 -174 25.5t-115 70.5t-69.5 105.5t-38.5 130.5l147 30q11 -45 26 -81.5t44 -62.5t72 -40t108 -14q64 0 108 14t71.5 40 t44 62.5t26.5 81.5l150 -28q-17 -72 -41.5 -132.5t-69.5 -105.5t-114.5 -70.5t-174.5 -25.5z"/>
<glyph unicode="ắ" horiz-adv-x="1284" d="M487 -20q-122 0 -201 26.5t-125 72.5t-63.5 109.5t-17.5 135.5q0 120 37 201t125 129t232 67.5t357 19.5h61q-1 49 -7 88q-8 52 -38 84.5t-86 49t-153 16.5q-108 0 -195 -30.5t-141 -65.5l-104 155q29 19 75 41.5t106.5 42t131 31.5t146.5 12q145 0 235 -25.5 t139.5 -80.5t66.5 -142.5t17 -207.5v-406q0 -41 3.5 -66.5t14.5 -39t33.5 -17.5t61.5 -4v-174q-10 -4 -31 -4h-51q-47 0 -78.5 7t-54 22.5t-37 40t-24.5 59.5q-52 -72 -152 -109.5t-283 -37.5zM554 560q-112 -11 -174.5 -37.5t-86 -71.5t-23.5 -113q0 -90 52.5 -138 t197.5 -48q199 0 286 82.5t87 267.5v69h-51q-176 0 -288 -11zM842 1985h241l-360 -336h-184zM643 1233q-104 0 -174 25.5t-115 70.5t-69.5 105.5t-38.5 130.5l147 30q11 -45 26 -81.5t44 -62.5t72 -40t108 -14q64 0 108 14t71.5 40t44 62.5t26.5 81.5l150 -28 q-17 -72 -41.5 -132.5t-69.5 -105.5t-114.5 -70.5t-174.5 -25.5z"/>
<glyph unicode="Ằ" horiz-adv-x="1520" d="M653 1528h211l609 -1528h-213l-125 319h-758l-125 -319h-207zM1061 510l-307 770l-308 -770h615zM322 2335h242l303 -336h-185zM756 1583q-104 0 -174 25.5t-115 70.5t-69.5 105.5t-38.5 130.5l147 30q11 -45 26 -81.5t44 -62.5t72 -40t108 -14q64 0 108 14t71.5 40 t44 62.5t26.5 81.5l150 -28q-17 -72 -41.5 -132.5t-69.5 -105.5t-114.5 -70.5t-174.5 -25.5z"/>
<glyph unicode="ằ" horiz-adv-x="1284" d="M487 -20q-122 0 -201 26.5t-125 72.5t-63.5 109.5t-17.5 135.5q0 120 37 201t125 129t232 67.5t357 19.5h61q-1 49 -7 88q-8 52 -38 84.5t-86 49t-153 16.5q-108 0 -195 -30.5t-141 -65.5l-104 155q29 19 75 41.5t106.5 42t131 31.5t146.5 12q145 0 235 -25.5 t139.5 -80.5t66.5 -142.5t17 -207.5v-406q0 -41 3.5 -66.5t14.5 -39t33.5 -17.5t61.5 -4v-174q-10 -4 -31 -4h-51q-47 0 -78.5 7t-54 22.5t-37 40t-24.5 59.5q-52 -72 -152 -109.5t-283 -37.5zM554 560q-112 -11 -174.5 -37.5t-86 -71.5t-23.5 -113q0 -90 52.5 -138 t197.5 -48q199 0 286 82.5t87 267.5v69h-51q-176 0 -288 -11zM209 1985h242l303 -336h-185zM643 1233q-104 0 -174 25.5t-115 70.5t-69.5 105.5t-38.5 130.5l147 30q11 -45 26 -81.5t44 -62.5t72 -40t108 -14q64 0 108 14t71.5 40t44 62.5t26.5 81.5l150 -28 q-17 -72 -41.5 -132.5t-69.5 -105.5t-114.5 -70.5t-174.5 -25.5z"/>
<glyph unicode="Ẳ" horiz-adv-x="1520" d="M653 1528h211l609 -1528h-213l-125 319h-758l-125 -319h-207zM1061 510l-307 770l-308 -770h615zM756 1583q-104 0 -174 25.5t-115 70.5t-69.5 105.5t-38.5 130.5l147 30q11 -45 26 -81.5t44 -62.5t72 -40t108 -14q64 0 108 14t71.5 40t44 62.5t26.5 81.5l150 -28 q-17 -72 -41.5 -132.5t-69.5 -105.5t-114.5 -70.5t-174.5 -25.5zM687 1962q-11 76 7.5 122t88.5 89q53 35 73.5 52t20.5 50q0 31 -25.5 51.5t-99.5 20.5q-96 0 -178 -41l-57 121q47 24 110.5 36.5t132.5 12.5q148 0 210.5 -51.5t62.5 -128.5q0 -72 -32 -111t-91 -74 q-29 -16 -45.5 -30.5t-25.5 -29.5t-12.5 -37t-0.5 -52h-139z"/>
<glyph unicode="ẳ" horiz-adv-x="1284" d="M487 -20q-122 0 -201 26.5t-125 72.5t-63.5 109.5t-17.5 135.5q0 120 37 201t125 129t232 67.5t357 19.5h61q-1 49 -7 88q-8 52 -38 84.5t-86 49t-153 16.5q-108 0 -195 -30.5t-141 -65.5l-104 155q29 19 75 41.5t106.5 42t131 31.5t146.5 12q145 0 235 -25.5 t139.5 -80.5t66.5 -142.5t17 -207.5v-406q0 -41 3.5 -66.5t14.5 -39t33.5 -17.5t61.5 -4v-174q-10 -4 -31 -4h-51q-47 0 -78.5 7t-54 22.5t-37 40t-24.5 59.5q-52 -72 -152 -109.5t-283 -37.5zM554 560q-112 -11 -174.5 -37.5t-86 -71.5t-23.5 -113q0 -90 52.5 -138 t197.5 -48q199 0 286 82.5t87 267.5v69h-51q-176 0 -288 -11zM643 1233q-104 0 -174 25.5t-115 70.5t-69.5 105.5t-38.5 130.5l147 30q11 -45 26 -81.5t44 -62.5t72 -40t108 -14q64 0 108 14t71.5 40t44 62.5t26.5 81.5l150 -28q-17 -72 -41.5 -132.5t-69.5 -105.5 t-114.5 -70.5t-174.5 -25.5zM574 1612q-11 76 7.5 122t88.5 89q53 35 73.5 52t20.5 50q0 31 -25.5 51.5t-99.5 20.5q-96 0 -178 -41l-57 121q47 24 110.5 36.5t132.5 12.5q148 0 210.5 -51.5t62.5 -128.5q0 -72 -32 -111t-91 -74q-29 -16 -45.5 -30.5t-25.5 -29.5t-12.5 -37 t-0.5 -52h-139z"/>
<glyph unicode="Ẵ" horiz-adv-x="1520" d="M653 1528h211l609 -1528h-213l-125 319h-758l-125 -319h-207zM1061 510l-307 770l-308 -770h615zM347 2117q59 74 130.5 122t143.5 48q51 0 89 -15t68.5 -34.5t60.5 -35t67 -15.5q39 0 79.5 30.5t84.5 82.5l114 -95q-59 -75 -130 -128.5t-144 -53.5q-49 0 -85 16.5 t-69 34.5l-64 36q-31 16 -67 16q-78 0 -158 -103zM756 1583q-104 0 -174 25.5t-115 70.5t-69.5 105.5t-38.5 130.5l147 30q11 -45 26 -81.5t44 -62.5t72 -40t108 -14q64 0 108 14t71.5 40t44 62.5t26.5 81.5l150 -28q-17 -72 -41.5 -132.5t-69.5 -105.5t-114.5 -70.5 t-174.5 -25.5z"/>
<glyph unicode="ẵ" horiz-adv-x="1284" d="M487 -20q-122 0 -201 26.5t-125 72.5t-63.5 109.5t-17.5 135.5q0 120 37 201t125 129t232 67.5t357 19.5h61q-1 49 -7 88q-8 52 -38 84.5t-86 49t-153 16.5q-108 0 -195 -30.5t-141 -65.5l-104 155q29 19 75 41.5t106.5 42t131 31.5t146.5 12q145 0 235 -25.5 t139.5 -80.5t66.5 -142.5t17 -207.5v-406q0 -41 3.5 -66.5t14.5 -39t33.5 -17.5t61.5 -4v-174q-10 -4 -31 -4h-51q-47 0 -78.5 7t-54 22.5t-37 40t-24.5 59.5q-52 -72 -152 -109.5t-283 -37.5zM554 560q-112 -11 -174.5 -37.5t-86 -71.5t-23.5 -113q0 -90 52.5 -138 t197.5 -48q199 0 286 82.5t87 267.5v69h-51q-176 0 -288 -11zM234 1767q59 74 130.5 122t143.5 48q51 0 89 -15t68.5 -34.5t60.5 -35t67 -15.5q39 0 79.5 30.5t84.5 82.5l114 -95q-59 -75 -130 -128.5t-144 -53.5q-49 0 -85 16.5t-69 34.5l-64 36q-31 16 -67 16 q-78 0 -158 -103zM643 1233q-104 0 -174 25.5t-115 70.5t-69.5 105.5t-38.5 130.5l147 30q11 -45 26 -81.5t44 -62.5t72 -40t108 -14q64 0 108 14t71.5 40t44 62.5t26.5 81.5l150 -28q-17 -72 -41.5 -132.5t-69.5 -105.5t-114.5 -70.5t-174.5 -25.5z"/>
<glyph unicode="Ặ" horiz-adv-x="1520" d="M653 1528h211l609 -1528h-213l-125 319h-758l-125 -319h-207zM1061 510l-307 770l-308 -770h615zM756 1583q-104 0 -174 25.5t-115 70.5t-69.5 105.5t-38.5 130.5l147 30q11 -45 26 -81.5t44 -62.5t72 -40t108 -14q64 0 108 14t71.5 40t44 62.5t26.5 81.5l150 -28 q-17 -72 -41.5 -132.5t-69.5 -105.5t-114.5 -70.5t-174.5 -25.5zM658 -130h201v-238h-201v238z"/>
<glyph unicode="ặ" horiz-adv-x="1284" d="M487 -20q-122 0 -201 26.5t-125 72.5t-63.5 109.5t-17.5 135.5q0 120 37 201t125 129t232 67.5t357 19.5h61q-1 49 -7 88q-8 52 -38 84.5t-86 49t-153 16.5q-108 0 -195 -30.5t-141 -65.5l-104 155q29 19 75 41.5t106.5 42t131 31.5t146.5 12q145 0 235 -25.5 t139.5 -80.5t66.5 -142.5t17 -207.5v-406q0 -41 3.5 -66.5t14.5 -39t33.5 -17.5t61.5 -4v-174q-10 -4 -31 -4h-51q-47 0 -78.5 7t-54 22.5t-37 40t-24.5 59.5q-52 -72 -152 -109.5t-283 -37.5zM554 560q-112 -11 -174.5 -37.5t-86 -71.5t-23.5 -113q0 -90 52.5 -138 t197.5 -48q199 0 286 82.5t87 267.5v69h-51q-176 0 -288 -11zM643 1233q-104 0 -174 25.5t-115 70.5t-69.5 105.5t-38.5 130.5l147 30q11 -45 26 -81.5t44 -62.5t72 -40t108 -14q64 0 108 14t71.5 40t44 62.5t26.5 81.5l150 -28q-17 -72 -41.5 -132.5t-69.5 -105.5 t-114.5 -70.5t-174.5 -25.5zM535 -130h201v-238h-201v238z"/>
<glyph unicode="Ẹ" horiz-adv-x="1335" d="M172 1518h1038v-199h-831v-436h811v-197h-811v-496h840v-190h-1047v1518zM602 -130h201v-238h-201v238z"/>
<glyph unicode="ẹ" horiz-adv-x="1229" d="M651 -23q-176 0 -284.5 46.5t-170 127t-83 189.5t-21.5 231q0 123 22.5 231.5t84 188.5t170 127t278.5 47q176 0 273.5 -56t144.5 -149.5t55 -215.5q6 -97 6 -199v-51h-841q3 -51 11 -96q13 -76 53 -131.5t111.5 -86t190.5 -30.5q137 0 217 31.5t146 80.5l106 -139 q-90 -72 -198.5 -109t-270.5 -37zM938 670q-4 67 -13.5 125.5t-38 101.5t-87 67.5t-158.5 24.5q-115 0 -184.5 -30.5t-108.5 -87t-52 -134.5q-6 -32 -9 -67h651zM535 -130h201v-238h-201v238z"/>
<glyph unicode="Ẻ" horiz-adv-x="1335" d="M172 1518h1038v-199h-831v-436h811v-197h-811v-496h840v-190h-1047v1518zM632 1579q-10 76 8.5 123t88.5 90q53 32 73.5 50.5t20.5 49.5t-25.5 51.5t-99.5 20.5q-96 0 -178 -41l-58 121q48 24 111.5 36.5t132.5 12.5q148 0 210.5 -51.5t62.5 -126.5q0 -72 -32 -112 t-91 -75q-29 -16 -45.5 -30.5t-25.5 -30t-12 -37t-1 -51.5h-140z"/>
<glyph unicode="ẻ" horiz-adv-x="1229" d="M651 -23q-176 0 -284.5 46.5t-170 127t-83 189.5t-21.5 231q0 123 22.5 231.5t84 188.5t170 127t278.5 47q176 0 273.5 -56t144.5 -149.5t55 -215.5q6 -97 6 -199v-51h-841q3 -51 11 -96q13 -76 53 -131.5t111.5 -86t190.5 -30.5q137 0 217 31.5t146 80.5l106 -139 q-90 -72 -198.5 -109t-270.5 -37zM938 670q-4 67 -13.5 125.5t-38 101.5t-87 67.5t-158.5 24.5q-115 0 -184.5 -30.5t-108.5 -87t-52 -134.5q-6 -32 -9 -67h651zM550 1231q-10 76 8.5 123t88.5 90q53 32 73.5 50.5t20.5 49.5t-25.5 51.5t-99.5 20.5q-96 0 -178 -41l-58 121 q48 24 111.5 36.5t132.5 12.5q148 0 210.5 -51.5t62.5 -126.5q0 -72 -32 -112t-91 -75q-29 -16 -45.5 -30.5t-25.5 -30t-12 -37t-1 -51.5h-140z"/>
<glyph unicode="Ẽ" horiz-adv-x="1335" d="M172 1518h1038v-199h-831v-436h811v-197h-811v-496h840v-190h-1047v1518zM264 1727q60 74 131.5 122t143.5 48q53 0 90 -16q37 -18 67 -36l61 -34q30 -16 66 -17q39 0 80 32t84 81l117 -94q-59 -76 -131 -130.5t-145 -54.5q-48 0 -84.5 16.5t-69.5 34.5l-64 36 q-30 16 -67 16q-35 0 -76 -25.5t-80 -74.5z"/>
<glyph unicode="ẽ" horiz-adv-x="1229" d="M651 -23q-176 0 -284.5 46.5t-170 127t-83 189.5t-21.5 231q0 123 22.5 231.5t84 188.5t170 127t278.5 47q176 0 273.5 -56t144.5 -149.5t55 -215.5q6 -97 6 -199v-51h-841q3 -51 11 -96q13 -76 53 -131.5t111.5 -86t190.5 -30.5q137 0 217 31.5t146 80.5l106 -139 q-90 -72 -198.5 -109t-270.5 -37zM938 670q-4 67 -13.5 125.5t-38 101.5t-87 67.5t-158.5 24.5q-115 0 -184.5 -30.5t-108.5 -87t-52 -134.5q-6 -32 -9 -67h651zM188 1358q60 74 131.5 122t143.5 48q53 0 90 -16q37 -18 67 -36l61 -34q30 -16 66 -17q39 0 80 32t84 81 l117 -94q-59 -76 -131 -130.5t-145 -54.5q-48 0 -84.5 16.5t-69.5 34.5l-64 36q-30 16 -67 16q-35 0 -76 -25.5t-80 -74.5z"/>
<glyph unicode="Ế" horiz-adv-x="1335" d="M172 1518h1038v-199h-831v-436h811v-197h-811v-496h840v-190h-1047v1518zM321 2115h242l-362 -335h-183zM555 1941h215l313 -336h-192l-232 205l-225 -205h-193z"/>
<glyph unicode="ế" horiz-adv-x="1229" d="M651 -23q-176 0 -284.5 46.5t-170 127t-83 189.5t-21.5 231q0 123 22.5 231.5t84 188.5t170 127t278.5 47q176 0 273.5 -56t144.5 -149.5t55 -215.5q6 -97 6 -199v-51h-841q3 -51 11 -96q13 -76 53 -131.5t111.5 -86t190.5 -30.5q137 0 217 31.5t146 80.5l106 -139 q-90 -72 -198.5 -109t-270.5 -37zM938 670q-4 67 -13.5 125.5t-38 101.5t-87 67.5t-158.5 24.5q-115 0 -184.5 -30.5t-108.5 -87t-52 -134.5q-6 -32 -9 -67h651zM273 1765h242l-362 -335h-183zM507 1591h215l313 -336h-192l-232 205l-225 -205h-193z"/>
<glyph unicode="Ề" horiz-adv-x="1335" d="M172 1518h1038v-199h-831v-436h811v-197h-811v-496h840v-190h-1047v1518zM772 2115h242l303 -335h-184zM557 1941h215l314 -336h-193l-231 205l-225 -205h-193z"/>
<glyph unicode="ề" horiz-adv-x="1229" d="M651 -23q-176 0 -284.5 46.5t-170 127t-83 189.5t-21.5 231q0 123 22.5 231.5t84 188.5t170 127t278.5 47q176 0 273.5 -56t144.5 -149.5t55 -215.5q6 -97 6 -199v-51h-841q3 -51 11 -96q13 -76 53 -131.5t111.5 -86t190.5 -30.5q137 0 217 31.5t146 80.5l106 -139 q-90 -72 -198.5 -109t-270.5 -37zM938 670q-4 67 -13.5 125.5t-38 101.5t-87 67.5t-158.5 24.5q-115 0 -184.5 -30.5t-108.5 -87t-52 -134.5q-6 -32 -9 -67h651zM718 1765h242l303 -335h-184zM503 1591h215l314 -336h-193l-231 205l-225 -205h-193z"/>
<glyph unicode="Ể" horiz-adv-x="1335" d="M172 1518h1038v-199h-831v-436h811v-197h-811v-496h840v-190h-1047v1518zM559 1941h215l313 -336h-193l-231 205l-227 -205h-191zM598 1992q-11 76 7.5 122t88.5 89q53 35 73.5 52.5t20.5 50.5q0 31 -25.5 51.5t-99.5 20.5q-96 0 -178 -41l-57 118q47 27 110.5 39.5 t132.5 12.5q148 0 210.5 -51.5t62.5 -129.5q0 -71 -32 -110t-91 -74q-29 -16 -45.5 -30.5t-25.5 -31t-12.5 -37t-0.5 -51.5h-139z"/>
<glyph unicode="ể" horiz-adv-x="1229" d="M651 -23q-176 0 -284.5 46.5t-170 127t-83 189.5t-21.5 231q0 123 22.5 231.5t84 188.5t170 127t278.5 47q176 0 273.5 -56t144.5 -149.5t55 -215.5q6 -97 6 -199v-51h-841q3 -51 11 -96q13 -76 53 -131.5t111.5 -86t190.5 -30.5q137 0 217 31.5t146 80.5l106 -139 q-90 -72 -198.5 -109t-270.5 -37zM938 670q-4 67 -13.5 125.5t-38 101.5t-87 67.5t-158.5 24.5q-115 0 -184.5 -30.5t-108.5 -87t-52 -134.5q-6 -32 -9 -67h651zM502 1591h215l313 -336h-193l-231 205l-227 -205h-191zM541 1642q-11 76 7.5 122t88.5 89q53 35 73.5 52.5 t20.5 50.5q0 31 -25.5 51.5t-99.5 20.5q-96 0 -178 -41l-57 118q47 27 110.5 39.5t132.5 12.5q148 0 210.5 -51.5t62.5 -129.5q0 -71 -32 -110t-91 -74q-29 -16 -45.5 -30.5t-25.5 -31t-12.5 -37t-0.5 -51.5h-139z"/>
<glyph unicode="Ễ" horiz-adv-x="1335" d="M172 1518h1038v-199h-831v-436h811v-197h-811v-496h840v-190h-1047v1518zM254 2089q59 73 131.5 122.5t144.5 49.5q51 0 88 -16.5t67 -34.5l61 -36q30 -16 67 -16q39 0 81 31t83 82l116 -96q-61 -74 -132 -127t-144 -53q-47 0 -84 16q-37 17 -70 35l-64 34q-31 16 -67 17 q-35 0 -77 -26.5t-81 -75.5zM555 1941h215l313 -336h-193l-231 205l-227 -205h-191z"/>
<glyph unicode="ễ" horiz-adv-x="1229" d="M651 -23q-176 0 -284.5 46.5t-170 127t-83 189.5t-21.5 231q0 123 22.5 231.5t84 188.5t170 127t278.5 47q176 0 273.5 -56t144.5 -149.5t55 -215.5q6 -97 6 -199v-51h-841q3 -51 11 -96q13 -76 53 -131.5t111.5 -86t190.5 -30.5q137 0 217 31.5t146 80.5l106 -139 q-90 -72 -198.5 -109t-270.5 -37zM938 670q-4 67 -13.5 125.5t-38 101.5t-87 67.5t-158.5 24.5q-115 0 -184.5 -30.5t-108.5 -87t-52 -134.5q-6 -32 -9 -67h651zM201 1739q59 73 131.5 122.5t144.5 49.5q51 0 88 -16.5t67 -34.5l61 -36q30 -16 67 -16q39 0 81 31t83 82 l116 -96q-61 -74 -132 -127t-144 -53q-47 0 -84 16q-37 17 -70 35l-64 34q-31 16 -67 17q-35 0 -77 -26.5t-81 -75.5zM502 1591h215l313 -336h-193l-231 205l-227 -205h-191z"/>
<glyph unicode="Ệ" horiz-adv-x="1335" d="M172 1518h1038v-199h-831v-436h811v-197h-811v-496h840v-190h-1047v1518zM555 1941h215l313 -336h-193l-231 207l-227 -207h-191zM602 -130h201v-238h-201v238z"/>
<glyph unicode="ệ" horiz-adv-x="1229" d="M651 -23q-176 0 -284.5 46.5t-170 127t-83 189.5t-21.5 231q0 123 22.5 231.5t84 188.5t170 127t278.5 47q176 0 273.5 -56t144.5 -149.5t55 -215.5q6 -97 6 -199v-51h-841q3 -51 11 -96q13 -76 53 -131.5t111.5 -86t190.5 -30.5q137 0 217 31.5t146 80.5l106 -139 q-90 -72 -198.5 -109t-270.5 -37zM938 670q-4 67 -13.5 125.5t-38 101.5t-87 67.5t-158.5 24.5q-115 0 -184.5 -30.5t-108.5 -87t-52 -134.5q-6 -32 -9 -67h651zM502 1591h215l313 -336h-193l-231 207l-227 -207h-191zM535 -130h201v-238h-201v238z"/>
<glyph unicode="Ỉ" horiz-adv-x="582" d="M188 1518h205v-1518h-205v1518zM226 1579q-10 76 8.5 123t88.5 90q53 32 73.5 50.5t20.5 49.5t-25.5 51.5t-99.5 20.5q-96 0 -178 -41l-58 121q48 24 111.5 36.5t132.5 12.5q148 0 210.5 -51.5t62.5 -126.5q0 -72 -32 -112t-91 -75q-29 -16 -45.5 -30.5t-25.5 -30 t-12 -37t-1 -51.5h-140z"/>
<glyph unicode="ỉ" horiz-adv-x="516" d="M160 1139h196v-1139h-196v1139zM193 1231q-10 76 8.5 123t88.5 90q53 32 73.5 50.5t20.5 49.5t-25.5 51.5t-99.5 20.5q-96 0 -178 -41l-58 121q48 24 111.5 36.5t132.5 12.5q148 0 210.5 -51.5t62.5 -126.5q0 -72 -32 -112t-91 -75q-29 -16 -45.5 -30.5t-25.5 -30 t-12 -37t-1 -51.5h-140z"/>
<glyph unicode="Ị" horiz-adv-x="582" d="M188 1518h205v-1518h-205v1518zM196 -130h201v-238h-201v238z"/>
<glyph unicode="ị" horiz-adv-x="516" d="M160 1139h196v-1139h-196v1139zM158 1518h200v-242h-200v242zM163 -130h201v-238h-201v238z"/>
<glyph unicode="Ọ" horiz-adv-x="1718" d="M858 -25q-182 0 -325.5 45.5t-244 140.5t-152.5 243.5t-52 355.5q0 205 52 353.5t152.5 243.5t244 140t325.5 45t325.5 -45t244 -140t152.5 -243.5t52 -353.5q0 -207 -52 -355.5t-152.5 -243.5t-244 -140.5t-325.5 -45.5zM858 168q297 0 432 152.5t135 435.5 q0 282 -135 434.5t-432 152.5t-431 -152.5t-134 -434.5q0 -283 134 -435.5t431 -152.5zM764 -130h201v-238h-201v238z"/>
<glyph unicode="ọ" horiz-adv-x="1309" d="M653 -23q-151 0 -257.5 38t-174 113t-98.5 186.5t-31 256.5q0 146 31 257.5t98.5 186.5t174 112.5t257.5 37.5q152 0 258.5 -37.5t174 -112.5t99.5 -186.5t32 -257.5q0 -145 -32 -256.5t-99.5 -186.5t-174 -113t-258.5 -38zM653 158q101 0 169.5 26.5t111.5 78.5 t61.5 129t18.5 175q0 197 -80 302.5t-281 105.5q-200 0 -280 -105.5t-80 -302.5q0 -98 18.5 -175t61.5 -129t111.5 -78.5t168.5 -26.5zM553 -130h201v-238h-201v238z"/>
<glyph unicode="Ỏ" horiz-adv-x="1718" d="M858 -25q-182 0 -325.5 45.5t-244 140.5t-152.5 243.5t-52 355.5q0 205 52 353.5t152.5 243.5t244 140t325.5 45t325.5 -45t244 -140t152.5 -243.5t52 -353.5q0 -207 -52 -355.5t-152.5 -243.5t-244 -140.5t-325.5 -45.5zM858 168q297 0 432 152.5t135 435.5 q0 282 -135 434.5t-432 152.5t-431 -152.5t-134 -434.5q0 -283 134 -435.5t431 -152.5zM782 1604q-10 76 8.5 123t88.5 90q53 32 73.5 50.5t20.5 49.5t-25.5 51.5t-99.5 20.5q-96 0 -178 -41l-58 121q48 24 111.5 36.5t132.5 12.5q148 0 210.5 -51.5t62.5 -126.5 q0 -72 -32 -112t-91 -75q-29 -16 -45.5 -30.5t-25.5 -30t-12 -37t-1 -51.5h-140z"/>
<glyph unicode="ỏ" horiz-adv-x="1309" d="M653 -23q-151 0 -257.5 38t-174 113t-98.5 186.5t-31 256.5q0 146 31 257.5t98.5 186.5t174 112.5t257.5 37.5q152 0 258.5 -37.5t174 -112.5t99.5 -186.5t32 -257.5q0 -145 -32 -256.5t-99.5 -186.5t-174 -113t-258.5 -38zM653 158q101 0 169.5 26.5t111.5 78.5 t61.5 129t18.5 175q0 197 -80 302.5t-281 105.5q-200 0 -280 -105.5t-80 -302.5q0 -98 18.5 -175t61.5 -129t111.5 -78.5t168.5 -26.5zM579 1231q-10 76 8.5 123t88.5 90q53 32 73.5 50.5t20.5 49.5t-25.5 51.5t-99.5 20.5q-96 0 -178 -41l-58 121q48 24 111.5 36.5 t132.5 12.5q148 0 210.5 -51.5t62.5 -126.5q0 -72 -32 -112t-91 -75q-29 -16 -45.5 -30.5t-25.5 -30t-12 -37t-1 -51.5h-140z"/>
<glyph unicode="Ố" horiz-adv-x="1718" d="M858 -25q-182 0 -325.5 45.5t-244 140.5t-152.5 243.5t-52 355.5q0 205 52 353.5t152.5 243.5t244 140t325.5 45t325.5 -45t244 -140t152.5 -243.5t52 -353.5q0 -207 -52 -355.5t-152.5 -243.5t-244 -140.5t-325.5 -45.5zM858 168q297 0 432 152.5t135 435.5 q0 282 -135 434.5t-432 152.5t-431 -152.5t-134 -434.5q0 -283 134 -435.5t431 -152.5zM512 2115h242l-362 -335h-183zM746 1941h215l313 -336h-192l-232 205l-225 -205h-193z"/>
<glyph unicode="ố" horiz-adv-x="1309" d="M653 -23q-151 0 -257.5 38t-174 113t-98.5 186.5t-31 256.5q0 146 31 257.5t98.5 186.5t174 112.5t257.5 37.5q152 0 258.5 -37.5t174 -112.5t99.5 -186.5t32 -257.5q0 -145 -32 -256.5t-99.5 -186.5t-174 -113t-258.5 -38zM653 158q101 0 169.5 26.5t111.5 78.5 t61.5 129t18.5 175q0 197 -80 302.5t-281 105.5q-200 0 -280 -105.5t-80 -302.5q0 -98 18.5 -175t61.5 -129t111.5 -78.5t168.5 -26.5zM313 1765h242l-362 -335h-183zM547 1591h215l313 -336h-192l-232 205l-225 -205h-193z"/>
<glyph unicode="Ồ" horiz-adv-x="1718" d="M858 -25q-182 0 -325.5 45.5t-244 140.5t-152.5 243.5t-52 355.5q0 205 52 353.5t152.5 243.5t244 140t325.5 45t325.5 -45t244 -140t152.5 -243.5t52 -353.5q0 -207 -52 -355.5t-152.5 -243.5t-244 -140.5t-325.5 -45.5zM858 168q297 0 432 152.5t135 435.5 q0 282 -135 434.5t-432 152.5t-431 -152.5t-134 -434.5q0 -283 134 -435.5t431 -152.5zM962 2115h242l303 -335h-184zM747 1941h215l314 -336h-193l-231 205l-225 -205h-193z"/>
<glyph unicode="ồ" horiz-adv-x="1309" d="M653 -23q-151 0 -257.5 38t-174 113t-98.5 186.5t-31 256.5q0 146 31 257.5t98.5 186.5t174 112.5t257.5 37.5q152 0 258.5 -37.5t174 -112.5t99.5 -186.5t32 -257.5q0 -145 -32 -256.5t-99.5 -186.5t-174 -113t-258.5 -38zM653 158q101 0 169.5 26.5t111.5 78.5 t61.5 129t18.5 175q0 197 -80 302.5t-281 105.5q-200 0 -280 -105.5t-80 -302.5q0 -98 18.5 -175t61.5 -129t111.5 -78.5t168.5 -26.5zM759 1765h242l303 -335h-184zM544 1591h215l314 -336h-193l-231 205l-225 -205h-193z"/>
<glyph unicode="Ổ" horiz-adv-x="1718" d="M858 -25q-182 0 -325.5 45.5t-244 140.5t-152.5 243.5t-52 355.5q0 205 52 353.5t152.5 243.5t244 140t325.5 45t325.5 -45t244 -140t152.5 -243.5t52 -353.5q0 -207 -52 -355.5t-152.5 -243.5t-244 -140.5t-325.5 -45.5zM858 168q297 0 432 152.5t135 435.5 q0 282 -135 434.5t-432 152.5t-431 -152.5t-134 -434.5q0 -283 134 -435.5t431 -152.5zM748 1941h215l313 -336h-193l-231 205l-227 -205h-191zM787 1992q-11 76 7.5 122t88.5 89q53 35 73.5 52.5t20.5 50.5q0 31 -25.5 51.5t-99.5 20.5q-96 0 -178 -41l-57 118 q47 27 110.5 39.5t132.5 12.5q148 0 210.5 -51.5t62.5 -129.5q0 -71 -32 -110t-91 -74q-29 -16 -45.5 -30.5t-25.5 -31t-12.5 -37t-0.5 -51.5h-139z"/>
<glyph unicode="ổ" horiz-adv-x="1309" d="M653 -23q-151 0 -257.5 38t-174 113t-98.5 186.5t-31 256.5q0 146 31 257.5t98.5 186.5t174 112.5t257.5 37.5q152 0 258.5 -37.5t174 -112.5t99.5 -186.5t32 -257.5q0 -145 -32 -256.5t-99.5 -186.5t-174 -113t-258.5 -38zM653 158q101 0 169.5 26.5t111.5 78.5 t61.5 129t18.5 175q0 197 -80 302.5t-281 105.5q-200 0 -280 -105.5t-80 -302.5q0 -98 18.5 -175t61.5 -129t111.5 -78.5t168.5 -26.5zM541 1591h215l313 -336h-193l-231 205l-227 -205h-191zM580 1642q-11 76 7.5 122t88.5 89q53 35 73.5 52.5t20.5 50.5q0 31 -25.5 51.5 t-99.5 20.5q-96 0 -178 -41l-57 118q47 27 110.5 39.5t132.5 12.5q148 0 210.5 -51.5t62.5 -129.5q0 -71 -32 -110t-91 -74q-29 -16 -45.5 -30.5t-25.5 -31t-12.5 -37t-0.5 -51.5h-139z"/>
<glyph unicode="Ỗ" horiz-adv-x="1718" d="M858 -25q-182 0 -325.5 45.5t-244 140.5t-152.5 243.5t-52 355.5q0 205 52 353.5t152.5 243.5t244 140t325.5 45t325.5 -45t244 -140t152.5 -243.5t52 -353.5q0 -207 -52 -355.5t-152.5 -243.5t-244 -140.5t-325.5 -45.5zM858 168q297 0 432 152.5t135 435.5 q0 282 -135 434.5t-432 152.5t-431 -152.5t-134 -434.5q0 -283 134 -435.5t431 -152.5zM447 2089q59 73 131.5 122.5t144.5 49.5q51 0 88 -16.5t67 -34.5l61 -36q30 -16 67 -16q39 0 81 31t83 82l116 -96q-61 -74 -132 -127t-144 -53q-47 0 -84 16q-37 17 -70 35l-64 34 q-31 16 -67 17q-35 0 -77 -26.5t-81 -75.5zM748 1941h215l313 -336h-193l-231 205l-227 -205h-191z"/>
<glyph unicode="ỗ" horiz-adv-x="1309" d="M653 -23q-151 0 -257.5 38t-174 113t-98.5 186.5t-31 256.5q0 146 31 257.5t98.5 186.5t174 112.5t257.5 37.5q152 0 258.5 -37.5t174 -112.5t99.5 -186.5t32 -257.5q0 -145 -32 -256.5t-99.5 -186.5t-174 -113t-258.5 -38zM653 158q101 0 169.5 26.5t111.5 78.5 t61.5 129t18.5 175q0 197 -80 302.5t-281 105.5q-200 0 -280 -105.5t-80 -302.5q0 -98 18.5 -175t61.5 -129t111.5 -78.5t168.5 -26.5zM242 1739q59 73 131.5 122.5t144.5 49.5q51 0 88 -16.5t67 -34.5l61 -36q30 -16 67 -16q39 0 81 31t83 82l116 -96q-61 -74 -132 -127 t-144 -53q-47 0 -84 16q-37 17 -70 35l-64 34q-31 16 -67 17q-35 0 -77 -26.5t-81 -75.5zM543 1591h215l313 -336h-193l-231 205l-227 -205h-191z"/>
<glyph unicode="Ộ" horiz-adv-x="1718" d="M858 -25q-182 0 -325.5 45.5t-244 140.5t-152.5 243.5t-52 355.5q0 205 52 353.5t152.5 243.5t244 140t325.5 45t325.5 -45t244 -140t152.5 -243.5t52 -353.5q0 -207 -52 -355.5t-152.5 -243.5t-244 -140.5t-325.5 -45.5zM858 168q297 0 432 152.5t135 435.5 q0 282 -135 434.5t-432 152.5t-431 -152.5t-134 -434.5q0 -283 134 -435.5t431 -152.5zM748 1941h215l313 -336h-193l-231 207l-227 -207h-191zM756 -130h201v-238h-201v238z"/>
<glyph unicode="ộ" horiz-adv-x="1309" d="M653 -23q-151 0 -257.5 38t-174 113t-98.5 186.5t-31 256.5q0 146 31 257.5t98.5 186.5t174 112.5t257.5 37.5q152 0 258.5 -37.5t174 -112.5t99.5 -186.5t32 -257.5q0 -145 -32 -256.5t-99.5 -186.5t-174 -113t-258.5 -38zM653 158q101 0 169.5 26.5t111.5 78.5 t61.5 129t18.5 175q0 197 -80 302.5t-281 105.5q-200 0 -280 -105.5t-80 -302.5q0 -98 18.5 -175t61.5 -129t111.5 -78.5t168.5 -26.5zM543 1591h215l313 -336h-193l-231 207l-227 -207h-191zM553 -130h201v-238h-201v238z"/>
<glyph unicode="Ớ" horiz-adv-x="1718" d="M858 -25q-182 0 -325.5 45.5t-244 140.5t-152.5 243.5t-52 355.5q0 205 52 353.5t152.5 243.5t244 140t325.5 45t325 -45q76 -24 139 -61q38 2 64 12q31 12 49.5 30.5t26.5 40t8 40.5h-98v231h213v-211q0 -47 -15.5 -92t-48 -80t-85.5 -57h-1q95 -94 145 -237 q52 -148 52 -353q0 -207 -52 -355.5t-152.5 -243.5t-244 -140.5t-325.5 -45.5zM858 168q297 0 432 152.5t135 435.5q0 282 -135 434.5t-432 152.5t-431 -152.5t-134 -434.5q0 -283 134 -435.5t431 -152.5zM987 1941h244l-363 -336h-184z"/>
<glyph unicode="ớ" horiz-adv-x="1327" d="M653 -23q-151 0 -257.5 38t-174 113t-98.5 186.5t-31 256.5q0 146 31 257.5t98.5 186.5t174 112.5t257.5 37.5q152 0 258 -38q47 -16 86 -39q30 2 51 10q31 12 49.5 30.5t25.5 40t10 39.5h-101v230h213v-207q0 -49 -14 -94t-47 -80t-85 -57h-1q58 -71 87 -172 q32 -111 32 -257q0 -145 -32 -256.5t-99.5 -186.5t-174 -113t-258.5 -38zM653 158q101 0 169.5 26.5t111.5 78.5t61.5 129t18.5 175q0 197 -80 302.5t-281 105.5q-200 0 -280 -105.5t-80 -302.5q0 -98 18.5 -175t61.5 -129t111.5 -78.5t168.5 -26.5zM735 1591h244l-363 -336 h-184z"/>
<glyph unicode="Ờ" horiz-adv-x="1718" d="M858 -25q-182 0 -325.5 45.5t-244 140.5t-152.5 243.5t-52 355.5q0 205 52 353.5t152.5 243.5t244 140t325.5 45t325 -45q76 -24 139 -61q38 2 64 12q31 12 49.5 30.5t26.5 40t8 40.5h-98v231h213v-211q0 -47 -15.5 -92t-48 -80t-85.5 -57h-1q95 -94 145 -237 q52 -148 52 -353q0 -207 -52 -355.5t-152.5 -243.5t-244 -140.5t-325.5 -45.5zM858 168q297 0 432 152.5t135 435.5q0 282 -135 434.5t-432 152.5t-431 -152.5t-134 -434.5q0 -283 134 -435.5t431 -152.5zM481 1941h244l303 -336h-184z"/>
<glyph unicode="ờ" horiz-adv-x="1327" d="M653 -23q-151 0 -257.5 38t-174 113t-98.5 186.5t-31 256.5q0 146 31 257.5t98.5 186.5t174 112.5t257.5 37.5q152 0 258 -38q47 -16 86 -39q30 2 51 10q31 12 49.5 30.5t25.5 40t10 39.5h-101v230h213v-207q0 -49 -14 -94t-47 -80t-85 -57h-1q58 -71 87 -172 q32 -111 32 -257q0 -145 -32 -256.5t-99.5 -186.5t-174 -113t-258.5 -38zM653 158q101 0 169.5 26.5t111.5 78.5t61.5 129t18.5 175q0 197 -80 302.5t-281 105.5q-200 0 -280 -105.5t-80 -302.5q0 -98 18.5 -175t61.5 -129t111.5 -78.5t168.5 -26.5zM276 1591h244l303 -336 h-184z"/>
<glyph unicode="Ở" horiz-adv-x="1718" d="M858 -25q-182 0 -325.5 45.5t-244 140.5t-152.5 243.5t-52 355.5q0 205 52 353.5t152.5 243.5t244 140t325.5 45t325 -45q76 -24 139 -61q38 2 64 12q31 12 49.5 30.5t26.5 40t8 40.5h-98v231h213v-211q0 -47 -15.5 -92t-48 -80t-85.5 -57h-1q95 -94 145 -237 q52 -148 52 -353q0 -207 -52 -355.5t-152.5 -243.5t-244 -140.5t-325.5 -45.5zM858 168q297 0 432 152.5t135 435.5q0 282 -135 434.5t-432 152.5t-431 -152.5t-134 -434.5q0 -283 134 -435.5t431 -152.5zM780 1604q-10 76 8.5 123t88.5 90q53 32 73.5 50.5t20.5 49.5 t-25.5 51.5t-99.5 20.5q-96 0 -178 -41l-58 121q48 24 111.5 36.5t132.5 12.5q148 0 210.5 -51.5t62.5 -126.5q0 -72 -32 -112t-91 -75q-29 -16 -45.5 -30.5t-25.5 -30t-12 -37t-1 -51.5h-140z"/>
<glyph unicode="ở" horiz-adv-x="1327" d="M653 -23q-151 0 -257.5 38t-174 113t-98.5 186.5t-31 256.5q0 146 31 257.5t98.5 186.5t174 112.5t257.5 37.5q152 0 258 -38q47 -16 86 -39q30 2 51 10q31 12 49.5 30.5t25.5 40t10 39.5h-101v230h213v-207q0 -49 -14 -94t-47 -80t-85 -57h-1q58 -71 87 -172 q32 -111 32 -257q0 -145 -32 -256.5t-99.5 -186.5t-174 -113t-258.5 -38zM653 158q101 0 169.5 26.5t111.5 78.5t61.5 129t18.5 175q0 197 -80 302.5t-281 105.5q-200 0 -280 -105.5t-80 -302.5q0 -98 18.5 -175t61.5 -129t111.5 -78.5t168.5 -26.5zM553 1231 q-10 76 8.5 123t88.5 90q53 32 73.5 50.5t20.5 49.5t-25.5 51.5t-99.5 20.5q-96 0 -178 -41l-58 121q48 24 111.5 36.5t132.5 12.5q148 0 210.5 -51.5t62.5 -126.5q0 -72 -32 -112t-91 -75q-29 -16 -45.5 -30.5t-25.5 -30t-12 -37t-1 -51.5h-140z"/>
<glyph unicode="Ỡ" horiz-adv-x="1718" d="M858 -25q-182 0 -325.5 45.5t-244 140.5t-152.5 243.5t-52 355.5q0 205 52 353.5t152.5 243.5t244 140t325.5 45t325 -45q76 -24 139 -61q38 2 64 12q31 12 49.5 30.5t26.5 40t8 40.5h-98v231h213v-211q0 -47 -15.5 -92t-48 -80t-85.5 -57h-1q95 -94 145 -237 q52 -148 52 -353q0 -207 -52 -355.5t-152.5 -243.5t-244 -140.5t-325.5 -45.5zM858 168q297 0 432 152.5t135 435.5q0 282 -135 434.5t-432 152.5t-431 -152.5t-134 -434.5q0 -283 134 -435.5t431 -152.5zM401 1706q60 74 131.5 122t143.5 48q53 0 90 -16q37 -18 67 -36 l61 -34q30 -16 66 -17q39 0 80 32t84 81l117 -94q-59 -76 -131 -130.5t-145 -54.5q-48 0 -84.5 16.5t-69.5 34.5l-64 36q-30 16 -67 16q-35 0 -76 -25.5t-80 -74.5z"/>
<glyph unicode="ỡ" horiz-adv-x="1327" d="M209 1346q37 75 101.5 123.5t135.5 48.5q52 0 90 -16q37 -18 70 -36l64 -34q30 -16 69 -17q37 0 76 30t68 81l104 -90q-41 -74 -101.5 -124t-135.5 -50q-48 0 -85.5 16t-71.5 34l-65 36q-32 16 -69 16q-39 0 -80 -26.5t-68 -75.5zM653 -23q-151 0 -257.5 38t-174 113 t-98.5 186.5t-31 256.5q0 146 31 257.5t98.5 186.5t174 112.5t257.5 37.5q152 0 258 -38q47 -16 86 -39q30 2 51 10q31 12 49.5 30.5t25.5 40t10 39.5h-101v230h213v-207q0 -49 -14 -94t-47 -80t-85 -57h-1q58 -71 87 -172q32 -111 32 -257q0 -145 -32 -256.5t-99.5 -186.5 t-174 -113t-258.5 -38zM653 158q101 0 169.5 26.5t111.5 78.5t61.5 129t18.5 175q0 197 -80 302.5t-281 105.5q-200 0 -280 -105.5t-80 -302.5q0 -98 18.5 -175t61.5 -129t111.5 -78.5t168.5 -26.5z"/>
<glyph unicode="Ợ" horiz-adv-x="1718" d="M858 -25q-182 0 -325.5 45.5t-244 140.5t-152.5 243.5t-52 355.5q0 205 52 353.5t152.5 243.5t244 140t325.5 45t325 -45q76 -24 139 -61q38 2 64 12q31 12 49.5 30.5t26.5 40t8 40.5h-98v231h213v-211q0 -47 -15.5 -92t-48 -80t-85.5 -57h-1q95 -94 145 -237 q52 -148 52 -353q0 -207 -52 -355.5t-152.5 -243.5t-244 -140.5t-325.5 -45.5zM858 168q297 0 432 152.5t135 435.5q0 282 -135 434.5t-432 152.5t-431 -152.5t-134 -434.5q0 -283 134 -435.5t431 -152.5zM756 -130h201v-238h-201v238z"/>
<glyph unicode="ợ" horiz-adv-x="1327" d="M653 -23q-151 0 -257.5 38t-174 113t-98.5 186.5t-31 256.5q0 146 31 257.5t98.5 186.5t174 112.5t257.5 37.5q152 0 258 -38q47 -16 86 -39q30 2 51 10q31 12 49.5 30.5t25.5 40t10 39.5h-101v230h213v-207q0 -49 -14 -94t-47 -80t-85 -57h-1q58 -71 87 -172 q32 -111 32 -257q0 -145 -32 -256.5t-99.5 -186.5t-174 -113t-258.5 -38zM653 158q101 0 169.5 26.5t111.5 78.5t61.5 129t18.5 175q0 197 -80 302.5t-281 105.5q-200 0 -280 -105.5t-80 -302.5q0 -98 18.5 -175t61.5 -129t111.5 -78.5t168.5 -26.5zM553 -130h201v-238h-201 v238z"/>
<glyph unicode="Ụ" horiz-adv-x="1614" d="M805 -27q-213 0 -340 49.5t-194.5 131.5t-88 187t-20.5 216v961h207v-936q0 -93 17 -169.5t65.5 -131t134.5 -84t221 -29.5q137 0 224 29.5t136.5 83t67.5 130t18 171.5v936h201v-961q0 -74 -9 -146.5t-34 -137t-70 -120t-116.5 -95.5t-175 -62.5t-244.5 -22.5zM705 -130 h201v-238h-201v238z"/>
<glyph unicode="ụ" horiz-adv-x="1280" d="M643 -20q-164 0 -263 32.5t-152.5 97t-70 160t-16.5 217.5v652h199v-656q0 -67 5 -125.5t34 -102.5t90 -68.5t174 -24.5t174.5 24.5t90 68.5t32.5 104.5t4 129.5v650h195v-645q0 -127 -15.5 -222.5t-67.5 -161t-150.5 -98t-262.5 -32.5zM537 -130h201v-238h-201v238z"/>
<glyph unicode="Ủ" horiz-adv-x="1614" d="M805 -27q-213 0 -340 49.5t-194.5 131.5t-88 187t-20.5 216v961h207v-936q0 -93 17 -169.5t65.5 -131t134.5 -84t221 -29.5q137 0 224 29.5t136.5 83t67.5 130t18 171.5v936h201v-961q0 -74 -9 -146.5t-34 -137t-70 -120t-116.5 -95.5t-175 -62.5t-244.5 -22.5zM735 1563 q-10 76 8.5 123t88.5 90q53 32 73.5 50.5t20.5 49.5t-25.5 51.5t-99.5 20.5q-96 0 -178 -41l-58 121q48 24 111.5 36.5t132.5 12.5q148 0 210.5 -51.5t62.5 -126.5q0 -72 -32 -112t-91 -75q-29 -16 -45.5 -30.5t-25.5 -30t-12 -37t-1 -51.5h-140z"/>
<glyph unicode="ủ" horiz-adv-x="1280" d="M643 -20q-164 0 -263 32.5t-152.5 97t-70 160t-16.5 217.5v652h199v-656q0 -67 5 -125.5t34 -102.5t90 -68.5t174 -24.5t174.5 24.5t90 68.5t32.5 104.5t4 129.5v650h195v-645q0 -127 -15.5 -222.5t-67.5 -161t-150.5 -98t-262.5 -32.5zM565 1231q-10 76 8.5 123t88.5 90 q53 32 73.5 50.5t20.5 49.5t-25.5 51.5t-99.5 20.5q-96 0 -178 -41l-58 121q48 24 111.5 36.5t132.5 12.5q148 0 210.5 -51.5t62.5 -126.5q0 -72 -32 -112t-91 -75q-29 -16 -45.5 -30.5t-25.5 -30t-12 -37t-1 -51.5h-140z"/>
<glyph unicode="Ứ" horiz-adv-x="1649" d="M805 -27q-213 0 -340 49.5t-194.5 131.5t-88 187t-20.5 216v961h207v-936q0 -93 17 -169.5t65.5 -131t134.5 -84t221 -29.5q137 0 224 29.5t136.5 83t67.5 130t18 171.5v936h169q40 1 67 12q31 12 49 30.5t26.5 40t8.5 39.5h-98v230h211v-209q0 -47 -14.5 -92t-47.5 -80 t-85 -57q-37 -15 -85 -20v-855q0 -74 -9 -146.5t-34 -137t-70 -120t-116.5 -95.5t-175 -62.5t-244.5 -22.5zM934 1941h244l-363 -336h-184z"/>
<glyph unicode="ứ" horiz-adv-x="1368" d="M643 -20q-164 0 -263 32.5t-152.5 97t-70 160t-16.5 217.5v652h199v-656q0 -67 5 -125.5t34 -102.5t90 -68.5t174 -24.5t174.5 24.5t90 68.5t32.5 104.5t4 129.5v650h195q23 3 40 10q31 12 49.5 29.5t26 39t7.5 39.5h-99v232h213v-209q0 -47 -14 -93t-47 -81t-85 -57 q-39 -16 -91 -20v-535q0 -127 -15.5 -222.5t-67.5 -161t-150.5 -98t-262.5 -32.5zM768 1591h244l-363 -336h-184z"/>
<glyph unicode="Ừ" horiz-adv-x="1649" d="M805 -27q-213 0 -340 49.5t-194.5 131.5t-88 187t-20.5 216v961h207v-936q0 -93 17 -169.5t65.5 -131t134.5 -84t221 -29.5q137 0 224 29.5t136.5 83t67.5 130t18 171.5v936h169q40 1 67 12q31 12 49 30.5t26.5 40t8.5 39.5h-98v230h211v-209q0 -47 -14.5 -92t-47.5 -80 t-85 -57q-37 -15 -85 -20v-855q0 -74 -9 -146.5t-34 -137t-70 -120t-116.5 -95.5t-175 -62.5t-244.5 -22.5zM428 1941h244l303 -336h-184z"/>
<glyph unicode="ừ" horiz-adv-x="1368" d="M643 -20q-164 0 -263 32.5t-152.5 97t-70 160t-16.5 217.5v652h199v-656q0 -67 5 -125.5t34 -102.5t90 -68.5t174 -24.5t174.5 24.5t90 68.5t32.5 104.5t4 129.5v650h195q23 3 40 10q31 12 49.5 29.5t26 39t7.5 39.5h-99v232h213v-209q0 -47 -14 -93t-47 -81t-85 -57 q-39 -16 -91 -20v-535q0 -127 -15.5 -222.5t-67.5 -161t-150.5 -98t-262.5 -32.5zM262 1591h244l303 -336h-184z"/>
<glyph unicode="Ử" horiz-adv-x="1649" d="M805 -27q-213 0 -340 49.5t-194.5 131.5t-88 187t-20.5 216v961h207v-936q0 -93 17 -169.5t65.5 -131t134.5 -84t221 -29.5q137 0 224 29.5t136.5 83t67.5 130t18 171.5v936h169q40 1 67 12q31 12 49 30.5t26.5 40t8.5 39.5h-98v230h211v-209q0 -47 -14.5 -92t-47.5 -80 t-85 -57q-37 -15 -85 -20v-855q0 -74 -9 -146.5t-34 -137t-70 -120t-116.5 -95.5t-175 -62.5t-244.5 -22.5zM735 1563q-10 76 8.5 123t88.5 90q53 32 73.5 50.5t20.5 49.5t-25.5 51.5t-99.5 20.5q-96 0 -178 -41l-58 121q48 24 111.5 36.5t132.5 12.5q148 0 210.5 -51.5 t62.5 -126.5q0 -72 -32 -112t-91 -75q-29 -16 -45.5 -30.5t-25.5 -30t-12 -37t-1 -51.5h-140z"/>
</font>
</defs>
</svg>
